<?xml version="1.0" standalone="no"?><!DOCTYPE svg PUBLIC "-//W3C//DTD SVG 1.1//EN" "http://www.w3.org/Graphics/SVG/1.1/DTD/svg11.dtd"><svg class="icon" width="128px" height="128.00px" viewBox="0 0 1024 1024" version="1.1" xmlns="http://www.w3.org/2000/svg"><path d="M900.2 474.2l-414-3s-3.2-228.8-18.4-218.8c-26.6 17.2-44.2 47.2-44.2 81.2v335.2l-25.8-25.4c-40-35.2-100-35.2-140 0-43.8 38.6-47.8 105.4-9.2 149.2l183 182 468.4-11.2V474.2z" fill="#f2f2f2" /><path d="M834.2 426.8c-27.6-0.4-52.8 10.8-70.8 29.2-17.2-17.8-41.4-28.8-68-29.2-27.4-0.4-52.2 10.6-70 28.6-17.6-18.4-42.4-30-70-30-14.8 0-28.8 3.4-41.2 9.2v-128.2c0-53.4-43.4-96.8-96.8-96.8s-96.8 43.4-96.8 96.8v335.2l-25.8-25.4c-40-35.2-100-35.2-140 0-43.8 38.6-47.8 105.4-9.2 149.2L354 972.6c15.2 15.4 36 24.2 57.8 24.2h435.8c45.2 0 82-36.8 82-82V522.4c-0.6-52.4-43-94.8-95.4-95.6z m40.4 487.4c0 14.8-12 27-27 27H410.2c-7 0-13.8-2.8-18.8-7.8L184.4 726.6c-19.8-19.8-19.8-51.8 0-71.6 20-19.2 51.6-19.2 71.6 0l68.4 67.8c5.6 5.2 12.8 8.2 20.4 8.4 16.8 0.2 30.4-13.2 30.8-29.8V306.6v-1.8c0.6-23.2 19.6-41.4 42.8-41 23.2 0.6 41.4 19.6 41 42.8v349h55V516c3-20 20.4-35.4 41.2-35.4 23 0 41.8 18.8 41.8 41.8v133.2h55v-133.2c0.4-22.4 18.6-40.4 41-41 23.2-0.6 42.2 17.8 42.8 41v133.2h55v-133.2c0.4-22.4 18.6-40.4 41-41 23.2-0.6 42.2 17.8 42.8 41v391.8h-0.4z" fill="#eba313" /><path d="M408.6 27c-118.8 0-215.2 96.4-215 215.4 0 70.4 34.6 136.4 92.4 176.6v-71.6c-58-68.4-49.6-171 18.8-229s171-49.6 229 18.8c47.2 55.6 51.6 135.6 10.8 196v75.4c92.2-74 107.4-208.6 33.6-301-41.2-51.6-103.8-81.4-169.6-80.6z" fill="#eba313" /></svg>