<?xml version="1.0" standalone="no"?><!DOCTYPE svg PUBLIC "-//W3C//DTD SVG 1.1//EN" "http://www.w3.org/Graphics/SVG/1.1/DTD/svg11.dtd"><svg t="1566870148023" class="icon" viewBox="0 0 1024 1024" version="1.1" xmlns="http://www.w3.org/2000/svg" p-id="9377" xmlns:xlink="http://www.w3.org/1999/xlink" width="128" height="128"><defs><style type="text/css"></style></defs><path d="M319.82 174.52c1.26-55.16 43.7-99.48 96-99.48h192c52.22 0 94.68 44.32 96 99.48h48c-1.28-81.66-65.2-147.48-144-147.48h-192c-78.72 0-142.64 65.82-144 147.48z" fill="#0066B3" p-id="9378"></path><path d="M295.88 150.62a24 24 0 1 1-24 24 24 24 0 0 1 24-24zM727.72 150.36a24 24 0 1 1-24 24 24 24 0 0 1 24-24zM436.78 560.58h150a24.52 24.52 0 0 1 25 24 24.52 24.52 0 0 1-25 24h-150a24.5 24.5 0 0 1-25-24 24.5 24.5 0 0 1 25-24z" fill="#0066B3" p-id="9379"></path><path d="M54 443.64h919.8v48H54zM55.78 559.2a24 24 0 1 1-24 24 24 24 0 0 1 24-24zM55.78 659.8a24 24 0 1 1-24 24 24 24 0 0 1 24-24zM55.78 795.62a24 24 0 1 1-24 24 24 24 0 0 1 24-24z" fill="#666666" p-id="9380"></path><path d="M943.78 244.58h-864a48 48 0 0 0-48 48v290.52h48V313.86a21.28 21.28 0 0 1 21.28-21.28h821.44a21.28 21.28 0 0 1 21.28 21.28v621.44a21.28 21.28 0 0 1-21.28 21.28H101.06a21.28 21.28 0 0 1-21.28-21.28v-112.2h-48v133.48a48 48 0 0 0 48 48h864a48 48 0 0 0 48-48v-664a48 48 0 0 0-48-48z" fill="#666666" p-id="9381"></path></svg>