<?xml version="1.0" standalone="no"?><!DOCTYPE svg PUBLIC "-//W3C//DTD SVG 1.1//EN" "http://www.w3.org/Graphics/SVG/1.1/DTD/svg11.dtd"><svg t="1566870112794" class="icon" viewBox="0 0 1024 1024" version="1.1" xmlns="http://www.w3.org/2000/svg" p-id="7701" xmlns:xlink="http://www.w3.org/1999/xlink" width="128" height="128"><defs><style type="text/css"></style></defs><path d="M744.725012 372.3625L605.087513 512h-93.0875v-46.55l93.0875-93.0875-23.2625-46.5375h-116.3625v-116.375l69.8125-69.8125h209.45z m0-279.275H465.462513A23.275 23.275 0 0 1 442.137512 69.825V0h325.8625v69.825a23.2625 23.2625 0 0 1-23.275 23.2625z m0 0" fill="#DEDEDE" p-id="7702"></path><path d="M488.725012 977.5h-302.5a23.2625 23.2625 0 0 1-23.275-23.275V372.3625a23.275 23.275 0 0 1 23.275-23.275h302.5a46.55 46.55 0 0 1 46.55 46.55v535.275A46.5375 46.5375 0 0 1 488.725012 977.5z m0 0" fill="#DEDEDE" p-id="7703"></path><path d="M518.050012 523.6375l49.3375 49.3375 177.3375-177.3375-29.325-36.5375L567.387512 507.1125 550.887512 490.5875a23.2875 23.2875 0 0 1 0-32.8125l135.2-135.2125-29.1-36.775-139.6375 139.6375a69.8125 69.8125 0 0 0 0.7 98.2125z m0 0" fill="#0461A7" p-id="7704"></path><path d="M729.837513 400.7625a23.275 23.275 0 1 1 16.45-6.825 23.275 23.275 0 0 1-16.45 6.825zM672.350012 326.9875a23.275 23.275 0 1 1 16.4625-6.825 23.275 23.275 0 0 1-16.4625 6.825zM837.825012 0v69.825a23.275 23.275 0 0 1-23.275 23.2625H488.725012a23.2625 23.2625 0 0 1-23.2625-23.2625V0h-46.55v93.0875a46.55 46.55 0 0 0 46.55 46.55h372.3625a46.5375 46.5375 0 0 0 46.5375-46.55V0z" fill="#0461A7" p-id="7705"></path><path d="M791.275012 69.825a23.3 23.3 0 1 1 16.45-6.825 23.275 23.275 0 0 1-16.45 6.825zM837.825012 465.45a22.825 22.825 0 0 1-16.4625-7.075 24.65 24.65 0 0 1-6.8125-17.125V127.0875h46.5375V441.25a24.65 24.65 0 0 1-6.8125 17.0875 22.825 22.825 0 0 1-16.45 7.075z" fill="#0461A7" p-id="7706"></path><path d="M854.350012 457.775L689.800012 622.3125a23.2875 23.2875 0 1 1-33.0375-32.8125L821.300012 425a23.2875 23.2875 0 0 1 33.05 32.8125zM442.137512 907.6375h46.55a46.55 46.55 0 0 0 46.55-46.55v-46.5375a46.55 46.55 0 0 0-46.55-46.55H442.137512a46.5375 46.5375 0 0 0-46.5375 46.55v46.5375A46.5375 46.5375 0 0 0 442.137512 907.6375z m23.2875-93.0875a23.275 23.275 0 1 1-16.4625 6.8125 23.2625 23.2625 0 0 1 16.4625-6.8125z m-186.25-162.9125a23.275 23.275 0 0 1-23.275-23.275V442.1875a23.275 23.275 0 0 1 46.55 0v186.175a23.275 23.275 0 0 1-23.275 23.275z m116.3625 0a23.3 23.3 0 0 1-23.275-23.275V442.1875a23.275 23.275 0 1 1 46.55 0v186.175a23.3 23.3 0 0 1-23.275 23.275z m0 0" fill="#0461A7" p-id="7707"></path><path d="M651.637512 465.45l-46.55 46.55v162.9125h46.55V465.45z" fill="#0461A7" p-id="7708"></path><path d="M605.087513 907.6375v46.5375A23.2625 23.2625 0 0 1 581.825012 977.5H209.450012a23.2625 23.2625 0 0 1-23.2625-23.275V372.3625a23.275 23.275 0 0 1 23.2625-23.275h359.337501L558.550012 302.5H186.187512A46.5375 46.5375 0 0 0 139.637512 349.0875V977.5a46.55 46.55 0 0 0 46.55 46.5h418.9A46.55 46.55 0 0 0 651.637512 977.5v-69.8625z" fill="#0461A7" p-id="7709"></path><path d="M628.387512 930.9125a23.275 23.275 0 1 1 16.4625-6.825 23.275 23.275 0 0 1-16.4625 6.825z m0-93.1a23.2625 23.2625 0 1 1 16.4625-6.8125 23.275 23.275 0 0 1-16.4625 6.8125z m0-139.625a23.275 23.275 0 1 1 16.4625-6.825 23.275 23.275 0 0 1-16.4625 6.825z m0 0M674.912513 418.9125h23.275a95 95 0 0 1-23.275-3.2625z m-116.3625-93.0875a95 95 0 0 0 3.25 23.2625H608.387512a95.55 95.55 0 0 1-3.2625-23.2625V256a93.1 93.1 0 0 1 93.1-93.0875H651.637512a93.075 93.075 0 0 0-93.0875 93.0875z m-57.025 23.2625A93.05 93.05 0 0 1 488.725012 302.5v-69.775a93.1 93.1 0 0 1 93.1-93.0875h-46.55A93.1 93.1 0 0 0 442.137512 232.725V302.5a93.1875 93.1875 0 0 0 12.8125 46.5375z m0 0" fill="#0461A7" p-id="7710"></path></svg>