<?xml version="1.0" standalone="no"?><!DOCTYPE svg PUBLIC "-//W3C//DTD SVG 1.1//EN" "http://www.w3.org/Graphics/SVG/1.1/DTD/svg11.dtd"><svg t="1566870108354" class="icon" viewBox="0 0 1204 1024" version="1.1" xmlns="http://www.w3.org/2000/svg" p-id="7441" xmlns:xlink="http://www.w3.org/1999/xlink" width="150.5" height="128"><defs><style type="text/css"></style></defs><path d="M1114.35 271.0625H120.4625A60.2875 60.2875 0 0 0 77.875 288.75a60.2625 60.2625 0 0 0-17.6375 42.5v7.8375a240.9375 240.9375 0 0 1 180.7 233.15v331.25A60.225 60.225 0 0 1 180.7125 963.75h933.6375a60.2375 60.2375 0 0 0 60.2375-60.2375V331.25a60.2375 60.2375 0 0 0-60.2375-60.225zM993.875 542.125h-120.4625v-120.475h120.4625z m0 0" fill="#DEDEDE" p-id="7442"></path><path d="M180.7125 662.5875h542.1125a30.125 30.125 0 0 1 0 60.2375H180.7125a30.125 30.125 0 0 1-30.125-30.125 30.125 30.125 0 0 1 30.125-30.1125zM180.7125 783.0625h542.1125a30.125 30.125 0 0 1 0 60.2375H180.7125a30.125 30.125 0 0 1-30.125-30.125 30.1125 30.1125 0 0 1 30.125-30.1125zM180.7125 120.475H1024a30.125 30.125 0 0 1 0 60.2375H180.7125a30.125 30.125 0 0 1-30.125-30.125 30.1125 30.1125 0 0 1 30.125-30.1125zM240.9375 0H963.75a30.125 30.125 0 0 1 0 60.2375H240.9375a30.125 30.125 0 0 1 0-60.2375z" fill="#0461A7" p-id="7443"></path><path d="M1169.4125 276.25a120.4625 120.4625 0 0 0-85.175-35.2875h-963.75A120.4875 120.4875 0 0 0 35.2875 276.25 120.4375 120.4375 0 0 0 0 361.4125v60.2375h60.2375v-60.2375a60.2875 60.2875 0 0 1 17.6375-42.6 60.2875 60.2875 0 0 1 42.5875-17.6375h963.75a60.2375 60.2375 0 0 1 60.2375 60.2375v542.1125A60.2375 60.2375 0 0 1 1084.2375 963.75h-963.75a60.225 60.225 0 0 1-60.225-60.2375V722.825H0v180.7a120.475 120.475 0 0 0 120.4625 120.475h963.75a120.475 120.475 0 0 0 120.475-120.475V361.4125A120.45 120.45 0 0 0 1169.4125 276.25z" fill="#0461A7" p-id="7444"></path><path d="M30.1125 391.525a30.1375 30.1375 0 0 1 27.8375 18.6 30.15 30.15 0 0 1-6.5375 32.825 30.1125 30.1125 0 0 1-32.825 6.525A30.125 30.125 0 0 1 0 421.65a30.125 30.125 0 0 1 30.1125-30.125z m0 301.175a30.125 30.125 0 0 1 30.125 30.125 30.1125 30.1125 0 0 1-30.125 30.1125A30.1125 30.1125 0 0 1 0 722.825a30.125 30.125 0 0 1 8.825-21.25 30.075 30.075 0 0 1 21.25-8.825z m0-180.7a30.125 30.125 0 0 1 30.125 30.125 30.125 30.125 0 0 1-30.125 30.1125A30.125 30.125 0 0 1 0 542.125a30.125 30.125 0 0 1 8.825-21.25 30.075 30.075 0 0 1 21.25-8.825z m963.75-150.5875h-120.45a60.2375 60.2375 0 0 0-60.2375 60.2375v120.475a60.2375 60.2375 0 0 0 60.2375 60.225h120.4625a60.2125 60.2125 0 0 0 60.2375-60.225v-120.475a60.225 60.225 0 0 0-60.2375-60.2375z m0 150.5875A30.1125 30.1125 0 0 1 963.75 542.125h-60.225a30.1125 30.1125 0 0 1-30.1125-30.125v-60.2375a30.1125 30.1125 0 0 1 30.1125-30.1125H963.75a30.1125 30.1125 0 0 1 30.1125 30.1125z m0 0" fill="#0461A7" p-id="7445"></path></svg>