<?xml version="1.0" standalone="no"?><!DOCTYPE svg PUBLIC "-//W3C//DTD SVG 1.1//EN" "http://www.w3.org/Graphics/SVG/1.1/DTD/svg11.dtd"><svg t="1566870128770" class="icon" viewBox="0 0 1024 1024" version="1.1" xmlns="http://www.w3.org/2000/svg" p-id="8483" xmlns:xlink="http://www.w3.org/1999/xlink" width="128" height="128"><defs><style type="text/css"></style></defs><path d="M145.129381 490.726971l235.759729-235.75973 471.519459 471.519459-235.759729 235.75973a47.628228 47.628228 0 0 1-67.393943 0l-404.83994-404.83994a47.628228 47.628228 0 0 1 0.714424-66.679519zM414.705152 221.389341L515.915137 120.417497a47.628228 47.628228 0 0 1 67.393943 0l358.878699 358.878699c18.575009 18.575009 26.671808 130.977628 8.096799 149.552637l-61.440414 30.482066-19.289433 16.908021z" fill="#DEDEDE" p-id="8484"></path><path d="M704.046638 269.017569l151.457766-151.457766a71.442342 71.442342 0 0 1 100.971844 100.971844l-151.457766 151.695907z" fill="#DEDEDE" p-id="8485"></path><path d="M229.669486 272.113404a23.814114 23.814114 0 1 1 0 33.5779 23.814114 23.814114 0 0 1 0-33.5779zM61.303699 440.47919a23.814114 23.814114 0 1 1 0 33.577901 23.814114 23.814114 0 0 1 0-33.577901zM162.275543 339.269205a23.814114 23.814114 0 0 1 33.577901 0 23.814114 23.814114 0 0 1 0 33.816042 23.814114 23.814114 0 0 1-33.577901 0 23.814114 23.814114 0 0 1 0-33.816042z" fill="#0461A7" p-id="8486"></path><path d="M817.639963 691.479953L347.54935 221.389341 448.521194 120.417497a47.628228 47.628228 0 0 1 67.393943 0l100.971844 100.971844 33.577901-33.577901-100.971844-100.971844a95.256456 95.256456 0 0 0-134.787886 0l-134.549745 134.549745L819.068809 760.302743l33.577901-33.577901zM835.738689 69.931575a71.442342 71.442342 0 0 1 100.971844 100.971844l-151.457766 151.695906 33.816042 33.577901 151.457766-151.457765a119.07057 119.07057 0 1 0-168.365787-168.365787l-151.695906 151.457766 33.816042 33.577901zM819.068809 356.177226l-33.816042 33.816042 134.787886 134.549745a47.628228 47.628228 0 0 1 0 67.393943l-50.485922 50.485922 33.577901 33.816042 50.485922-50.485922a95.256456 95.256456 0 0 0 0-134.787886z" fill="#0461A7" p-id="8487"></path><path d="M869.554731 642.422878a23.814114 23.814114 0 0 1 33.577901 0 23.814114 23.814114 0 0 1 0 33.816042 23.814114 23.814114 0 0 1-33.577901 0 23.814114 23.814114 0 0 1 0-33.816042zM313.733308 187.81144l-84.063822 84.301964 33.339759 33.339759 50.485922-50.485922 471.519459 471.519459-235.759729 235.75973a47.628228 47.628228 0 0 1-67.155802 0l-404.83994-404.83994a47.628228 47.628228 0 0 1 0-67.393942l16.66988-16.908021-33.33976-33.33976-16.908021 16.66988a95.256456 95.256456 0 0 0 0 134.787885l404.83994 404.83994a95.256456 95.256456 0 0 0 134.787886 0l269.33763-269.33763z" fill="#0461A7" p-id="8488"></path><path d="M229.669486 272.113404a23.814114 23.814114 0 1 1 0 33.5779 23.814114 23.814114 0 0 1 0-33.5779zM162.275543 339.269205a23.814114 23.814114 0 0 1 33.577901 0 23.814114 23.814114 0 0 1 0 33.816042 23.814114 23.814114 0 0 1-33.577901 0 23.814114 23.814114 0 0 1 0-33.816042zM61.303699 440.47919a23.814114 23.814114 0 1 1 0 33.577901 23.814114 23.814114 0 0 1 0-33.577901zM684.280924 154.233539l-33.816042 33.577901-33.577901-33.577901a47.628228 47.628228 0 1 0 67.393943 0zM852.64671 322.599325a47.628228 47.628228 0 1 0 0 67.393943L819.068809 356.177226z" fill="#0461A7" p-id="8489"></path></svg>