<?xml version="1.0" standalone="no"?><!DOCTYPE svg PUBLIC "-//W3C//DTD SVG 1.1//EN" "http://www.w3.org/Graphics/SVG/1.1/DTD/svg11.dtd"><svg t="1566870008405" class="icon" viewBox="0 0 1024 1024" version="1.1" xmlns="http://www.w3.org/2000/svg" p-id="4054" xmlns:xlink="http://www.w3.org/1999/xlink" width="128" height="128"><defs><style type="text/css"></style></defs><path d="M545.059014 47.396436A426.567924 426.567924 0 1 1 118.49109 473.96436 426.567924 426.567924 0 0 1 545.059014 47.396436z" fill="#DEDEDE" p-id="4055"></path><path d="M819.484379 786.069891l195.510298 195.510299a23.698218 23.698218 0 1 1-33.414487 33.414487l-195.510299-195.510298a23.698218 23.698218 0 1 1 33.414488-33.414488z" fill="#999899" p-id="4056"></path><path d="M473.96436 0A473.96436 473.96436 0 0 0 21.802361 331.775052h50.477204a426.567924 426.567924 0 1 1 0 284.378616H21.802361A473.96436 473.96436 0 1 0 473.96436 0z" fill="#999899" p-id="4057"></path><path d="M47.396436 308.076834a23.698218 23.698218 0 1 1-23.698218 23.698218 23.698218 23.698218 0 0 1 23.698218-23.698218zM23.698218 402.869706a23.698218 23.698218 0 1 1-23.698218 23.698218 23.698218 23.698218 0 0 1 23.698218-23.698218zM47.396436 592.45545a23.698218 23.698218 0 1 1-23.698218 23.698218 23.698218 23.698218 0 0 1 23.698218-23.698218z" fill="#999899" p-id="4058"></path></svg>