<?xml version="1.0" standalone="no"?><!DOCTYPE svg PUBLIC "-//W3C//DTD SVG 1.1//EN" "http://www.w3.org/Graphics/SVG/1.1/DTD/svg11.dtd"><svg t="1569201930011" class="icon" viewBox="0 0 1024 1024" version="1.1" xmlns="http://www.w3.org/2000/svg" p-id="3717" xmlns:xlink="http://www.w3.org/1999/xlink" width="128" height="128"><defs><style type="text/css"></style></defs><path d="M736.22 1004c-70.48-41.7-141.14-83.12-211.34-125.3-16.86-10.12-31.56-5.22-47.32 1.4-46 19.36-92 38.78-138.4 57.36-59 23.66-99.5-5.14-95.02-69.34 3.12-44.6 9.36-89.12 16.68-133.26 3.66-22-2.18-35.62-20.24-48.54-54.14-38.74-107.84-78.2-160.28-119.18-41.04-32-48.46-59.9-30-91.56 10.4-17.78 27.6-26 44.68-34.82C352.94 306.74 888 26.18 897.66 20c17.34-9.34 41.84-10 53.82 0 32.16 27.26 36 62 28.54 100.96Q903.08 526 827.16 931.36c-5.68 30.24-17.76 55.9-44.82 72.64-12.68 4.66-31.34 5.66-46.12 0z m-429.48-163.46c-1.24 36.22 4.36 40.76 34.94 28.48 41.54-16.7 83-33.76 123.64-52.5 30.78-14.18 58.4-12.36 87.26 5.28 56.74 34.72 115.06 66.88 171.42 102.2 29.54 18.5 39.58 14 46-21.24 40.46-220.16 83.04-440 124.88-659.84 7.9-41.46 15.82-82.92 23.32-124.46 1.52-8.54 5.16-18.98-2.76-25.42-8.42-6.82-17 0.6-24.62 4.54-21.56 11.2-42.64 23.36-64.24 34.46Q480 310 133.06 487.2c-29.68 15.06-29.88 24-3.78 42.6 50 35.6 97.2 75.3 148.14 109.5 40 26.92 49.8 61.76 42.58 106-5.36 32.7-9.22 65.82-13.26 95.24z" fill="#278CF0" p-id="3718"></path><path d="M475.42 679.88c-13.8-1.46-23.34-7.26-28.28-18.84-7.6-17.84 0.18-32 11.6-45.32q68.58-80 136.94-160.1 48.6-56.74 97.52-113.16c14.44-16.58 31.74-29.42 52.72-12.6 22.58 18 14 38.82-1.54 56.86q-118.5 138-237.68 275.5c-8.5 9.78-18.7 17.44-31.28 17.66z" fill="#F99D3A" p-id="3719"></path></svg>