<?xml version="1.0" standalone="no"?><!DOCTYPE svg PUBLIC "-//W3C//DTD SVG 1.1//EN" "http://www.w3.org/Graphics/SVG/1.1/DTD/svg11.dtd"><svg t="1566870090910" class="icon" viewBox="0 0 1024 1024" version="1.1" xmlns="http://www.w3.org/2000/svg" p-id="6523" xmlns:xlink="http://www.w3.org/1999/xlink" width="128" height="128"><defs><style type="text/css"></style></defs><path d="M874.334371 139.636364h-198.050909a31.883636 31.883636 0 0 1 0 4.421818v114.501818a80.290909 80.290909 0 0 1-80.058182 80.290909 80.290909 80.290909 0 0 1-80.058182-80.290909V144.058182 139.636364H408.879825a46.545455 46.545455 0 0 0-46.545454 46.545454v744.727273a46.545455 46.545455 0 0 0 46.545454 46.545454h465.454546a46.545455 46.545455 0 0 0 46.545454-46.545454V186.181818a46.545455 46.545455 0 0 0-46.545454-46.545454z" fill="#DEDEDE" p-id="6524"></path><path d="M641.607098 46.545455a46.545455 46.545455 0 0 1 46.545455 46.545454v186.181818a46.545455 46.545455 0 0 1-93.090909 0V93.090909a46.545455 46.545455 0 0 1 46.545454-46.545454zM245.970735 342.807273L155.672553 679.796364 104.007098 833.629091l155.927273 68.189091z" fill="#DEDEDE" p-id="6525"></path><path d="M216.181644 454.981818L294.378007 162.909091H246.203462L171.032553 443.112727l45.149091 11.869091zM129.607098 780.334545l26.763637-100.538181-44.916364-11.869091L83.061644 768a93.090909 93.090909 0 0 0 65.629091 114.036364l103.330909 27.694545 4.887272-46.545454-96.116363-25.6a46.545455 46.545455 0 0 1-31.185455-57.25091z" fill="#0461A7" p-id="6526"></path><path d="M215.948916 454.981818a23.272727 23.272727 0 1 1-16.523636-28.392727 23.272727 23.272727 0 0 1 16.523636 28.392727zM192.676189 545.047273a23.365818 23.365818 0 0 1-45.149091-12.101818 23.365818 23.365818 0 1 1 45.149091 12.101818zM155.90528 679.796364a23.272727 23.272727 0 0 1-28.625455 16.523636 23.272727 23.272727 0 1 1 28.625455-16.523636zM595.061644 0a116.363636 116.363636 0 0 0-116.363637 116.363636v139.636364a116.363636 116.363636 0 0 0 232.727273 0V116.363636a116.363636 116.363636 0 0 0-116.363636-116.363636z m69.818181 256a69.818182 69.818182 0 0 1-139.636363 0V116.363636a69.818182 69.818182 0 0 1 139.636363 0z" fill="#0461A7" p-id="6527"></path><path d="M595.061644 232.727273a23.272727 23.272727 0 1 1-23.272728 23.272727 23.272727 23.272727 0 0 1 23.272728-23.272727zM501.970735 488.727273h232.727272a23.272727 23.272727 0 0 1 0 46.545454h-232.727272a23.272727 23.272727 0 0 1 0-46.545454zM455.42528 628.363636h279.272727a23.272727 23.272727 0 0 1 0 46.545455h-279.272727a23.272727 23.272727 0 0 1 0-46.545455zM641.607098 768h93.090909a23.272727 23.272727 0 0 1 0 46.545455h-93.090909a23.272727 23.272727 0 0 1 0-46.545455z" fill="#0461A7" p-id="6528"></path><path d="M851.061644 93.090909h-166.167273a95.185455 95.185455 0 0 1 3.258182 23.272727v23.272728h162.909091a46.545455 46.545455 0 0 1 46.545454 46.545454v744.727273a46.545455 46.545455 0 0 1-46.545454 46.545454h-512a46.545455 46.545455 0 0 1-46.545455-46.545454V186.181818a46.545455 46.545455 0 0 1 46.545455-46.545454h162.909091V116.363636a95.185455 95.185455 0 0 1 3.258181-23.272727H339.061644a93.090909 93.090909 0 0 0-93.090909 93.090909v744.727273a93.090909 93.090909 0 0 0 93.090909 93.090909h512a93.090909 93.090909 0 0 0 93.090909-93.090909V186.181818a93.090909 93.090909 0 0 0-93.090909-93.090909z" fill="#0461A7" p-id="6529"></path></svg>