<?xml version="1.0" standalone="no"?><!DOCTYPE svg PUBLIC "-//W3C//DTD SVG 1.1//EN" "http://www.w3.org/Graphics/SVG/1.1/DTD/svg11.dtd"><svg t="1566870143052" class="icon" viewBox="0 0 1024 1024" version="1.1" xmlns="http://www.w3.org/2000/svg" p-id="9122" xmlns:xlink="http://www.w3.org/1999/xlink" width="128" height="128"><defs><style type="text/css"></style></defs><path d="M506.88 345.9072c25.2928 0 42.1376-16.896 42.1376-42.0864s-16.5376-41.984-42.1376-41.984-50.6368 16.4864-50.6368 41.984 25.4464 42.0864 50.6368 42.0864zM271.36 261.8368c-25.2416 0-50.7904 16.4864-50.7904 41.984s25.6 42.0864 50.7904 42.0864a39.8336 39.8336 0 0 0 42.0352-42.0864c-0.1536-25.4976-16.9472-41.984-42.0352-41.984z" fill="#0066B3" p-id="9123"></path><path d="M1010.6368 615.4752c0-133.12-123.5456-246.6816-275.2-258.5088a15.36 15.36 0 0 0 0-5.12C704.9216 209.92 552.448 103.168 380.672 103.168c-194.1504 0-352.1536 135.424-352.1536 302.08 0 89.2928 45.568 169.728 131.9424 233.1648l-30.1056 90.4704a15.36 15.36 0 0 0 21.4528 18.5856l113.0496-56.576 13.9264 2.8672c34.816 7.1168 64.8704 13.312 101.888 13.312 10.8544 0 40.96-3.9424 43.3664-7.168 40.96 101.9904 153.088 175.616 285.2864 175.616 33.8432 0 68.1472-8.1408 98.8672-15.872l87.04 47.616a15.36 15.36 0 0 0 22.0672-17.8176l-22.272-73.984c74.7008-59.2384 115.6096-129.7408 115.6096-199.9872zM414.72 666.2656a15.36 15.36 0 0 0-5.12-0.6656c-9.6256 0.8192-19.4048 1.2288-29.0816 1.2288-32.7168 0-60.3648-5.632-92.16-12.2368l-18.5856-3.7888a14.6432 14.6432 0 0 0-9.5232 1.28l-81.92 40.96L199.68 629.3504a14.7968 14.7968 0 0 0-5.12-16.7936c-81.92-57.2416-123.648-126.9248-123.648-207.104C70.656 261.12 209.92 143.9232 380.7232 143.9232c151.1424 0 284.928 92.16 312.576 214.272-158.72 2.0992-286.72 113.5104-286.72 250.3168A218.7776 218.7776 0 0 0 414.72 666.2656zM860.16 788.48a14.6944 14.6944 0 0 0-5.12 15.872l13.7728 46.08-56.6272-30.72a14.7456 14.7456 0 0 0-7.0144-1.792 13.9264 13.9264 0 0 0-3.5328 0.4608c-30.4128 7.68-61.8496 15.36-92.4672 15.36-142.1824 0-257.8432-97.6896-257.8432-217.8048s115.6608-217.7536 257.8432-217.7536c139.4688 0 257.3312 99.7376 257.3312 217.7536 0.1536 59.904-37.5808 121.344-106.3424 172.544z" fill="#666666" p-id="9124"></path><path d="M616.448 506.0096a33.7408 33.7408 0 0 0 0 67.4816c25.344 0 42.0352-16.7424 42.0352-33.6896s-16.6912-33.792-42.0352-33.792zM801.5872 506.0096a33.7408 33.7408 0 0 0 0 67.4816c25.2416 0 42.24-16.7424 42.24-33.6896s-16.9984-33.792-42.24-33.792z" fill="#0066B3" p-id="9125"></path></svg>