<?xml version="1.0" standalone="no"?><!DOCTYPE svg PUBLIC "-//W3C//DTD SVG 1.1//EN" "http://www.w3.org/Graphics/SVG/1.1/DTD/svg11.dtd"><svg t="1576144127245" class="icon" viewBox="0 0 1024 1024" version="1.1" xmlns="http://www.w3.org/2000/svg" p-id="5993" xmlns:xlink="http://www.w3.org/1999/xlink" width="128" height="128"><defs><style type="text/css"></style></defs><path d="M838.28 327.14H184.58a40.88 40.88 0 0 0-36.38 22.48 163.44 163.44 0 0 1 138.52 161.38v347.28a40.86 40.86 0 0 1-40.86 40.86h592.42a40.84 40.84 0 0 0 40.86-40.86V368a40.86 40.86 0 0 0-40.86-40.86z" fill="#DEDEDE" p-id="5994"></path><path d="M143.72 449.72h735.42v40.86H143.72z m306.42 102.14h122.58a20.44 20.44 0 0 1 0 40.86h-122.58a20.44 20.44 0 0 1 0-40.86z m143-265.58H318.38a81.68 81.68 0 0 0 70.48 40.86H634a81.68 81.68 0 0 0 70.48-40.86zM634 82H388.86a81.72 81.72 0 0 0-81.72 81.72v40.86H348a81.72 81.72 0 0 1 81.72-81.72h163.42a81.72 81.72 0 0 1 81.72 81.72h40.86V163.72A81.72 81.72 0 0 0 634 82z" fill="#0461A7" p-id="5995"></path><path d="M327.58 184.14a20.44 20.44 0 1 1-20.44 20.44 20.42 20.42 0 0 1 20.44-20.44z m367.7 0a20.44 20.44 0 1 1-20.42 20.44 20.44 20.44 0 0 1 20.42-20.44z m-572 347.28a20.44 20.44 0 1 1-20.42 20.44 20.46 20.46 0 0 1 20.42-20.44z" fill="#0461A7" p-id="5996"></path><path d="M838.28 286.28H184.58A81.72 81.72 0 0 0 102.86 368v183.86h40.86V368a40.86 40.86 0 0 1 40.86-40.86h653.7A40.86 40.86 0 0 1 879.14 368v490.28a40.84 40.84 0 0 1-40.86 40.86H184.58a40.84 40.84 0 0 1-40.86-40.86v-102.14H102.86v102.14A81.72 81.72 0 0 0 184.58 940h653.7A81.72 81.72 0 0 0 920 858.28V368a81.72 81.72 0 0 0-81.72-81.72z" fill="#0461A7" p-id="5997"></path><path d="M123.28 613.14a20.44 20.44 0 1 1-20.42 20.44 20.44 20.44 0 0 1 20.42-20.44z m0 122.58a20.44 20.44 0 1 1-20.42 20.42 20.44 20.44 0 0 1 20.42-20.42z" fill="#0461A7" p-id="5998"></path></svg>