<?xml version="1.0" standalone="no"?><!DOCTYPE svg PUBLIC "-//W3C//DTD SVG 1.1//EN" "http://www.w3.org/Graphics/SVG/1.1/DTD/svg11.dtd"><svg t="1579154663149" class="icon" viewBox="0 0 1024 1024" version="1.1" xmlns="http://www.w3.org/2000/svg" p-id="8833" xmlns:xlink="http://www.w3.org/1999/xlink" width="128" height="128"><defs><style type="text/css"></style></defs><path d="M566 524.38l321.46-321.46H213.12a44.3 44.3 0 0 0-44.28 37.64l283.8 283.82a79.46 79.46 0 0 0 112.38 0.98l0.98-0.98z" fill="#DEDEDE" p-id="8834"></path><path d="M949.7 202.92L595.46 557.16a120.9 120.9 0 0 1-170.92 0L168.84 302.56v431.72a44.28 44.28 0 0 0 44.28 44.28h730.6A44.28 44.28 0 0 0 988 734.28V247.18a44.28 44.28 0 0 0-38.3-44.28z" fill="#DEDEDE" p-id="8835"></path><path d="M58.14 358a22.14 22.14 0 0 1 22.14 22A22.14 22.14 0 0 1 36 380a22.14 22.14 0 0 1 22.14-22z m0 221.4a22.14 22.14 0 0 1 22.14 22.14 22.14 22.14 0 0 1-44.28 0 22.14 22.14 0 0 1 22.14-22.14z m0-132.84a22.14 22.14 0 1 1 0 44.28A22.14 22.14 0 0 1 36 468.62a22.14 22.14 0 0 1 22.14-22.14z" fill="#0461A7" p-id="8836"></path><path d="M885.04 202.92h64.66a35 35 0 0 1 38.16 31.48c0 0.72 0.12 1.46 0.14 2.18a38 38 0 0 1-41.18 34h-61.78a38.28 38.28 0 0 1-41.38-34 82.54 82.54 0 0 0-17.28-34.32z" fill="#DEDEDE" p-id="8837"></path><path d="M535.02 555.38a79.48 79.48 0 0 1-112.4 0.3l-0.28-0.3L114.16 247.2H51.5l341.82 341.84a120.64 120.64 0 0 0 170.62 0L905.86 247.2H843.2z" fill="#0461A7" p-id="8838"></path><path d="M895.64 228.86a88.6 88.6 0 0 0-62.62-26H124.56A88.56 88.56 0 0 0 36 291.48V380h44.28v-88.52a44.28 44.28 0 0 1 44.28-44.28h708.46a44.28 44.28 0 0 1 44.28 44.28v442.8a44.28 44.28 0 0 1-44.28 44.28H124.56a44.28 44.28 0 0 1-44.28-44.28v-132.84H36v132.84a88.56 88.56 0 0 0 88.56 88.56h708.46a88.56 88.56 0 0 0 88.54-88.56v-442.8a88.6 88.6 0 0 0-25.92-62.62z" fill="#0461A7" p-id="8839"></path></svg>