<?xml version="1.0" standalone="no"?><!DOCTYPE svg PUBLIC "-//W3C//DTD SVG 1.1//EN" "http://www.w3.org/Graphics/SVG/1.1/DTD/svg11.dtd"><svg t="1579154729071" class="icon" viewBox="0 0 1024 1024" version="1.1" xmlns="http://www.w3.org/2000/svg" p-id="8972" xmlns:xlink="http://www.w3.org/1999/xlink" width="128" height="128"><defs><style type="text/css"></style></defs><path d="M345.72 109.88h401.44a47.22 47.22 0 0 1 47.22 47.24v708.42a47.24 47.24 0 0 1-47.22 47.24H345.72a47.24 47.24 0 0 1-47.24-47.24V157.12a47.22 47.22 0 0 1 47.24-47.24z" fill="#DEDEDE" p-id="8973"></path><path d="M440.16 842h141.7a23.62 23.62 0 0 1 0 47.24h-141.7a23.62 23.62 0 0 1 0-47.24z m23.62-779.34h94.46a47.24 47.24 0 0 1 0 94.46h-94.46a47.24 47.24 0 0 1 0-94.46z" fill="#0461A7" p-id="8974"></path><path d="M723.54 62.66H298.48A94.46 94.46 0 0 0 204 157.12v118h47.24v-118a47.22 47.22 0 0 1 47.22-47.24h425.08a47.24 47.24 0 0 1 47.24 47.24v708.42a47.26 47.26 0 0 1-47.24 47.24H298.48a47.24 47.24 0 0 1-47.22-47.24V511.32H204v354.22A94.48 94.48 0 0 0 298.48 960h425.06A94.48 94.48 0 0 0 818 865.54V157.12a94.46 94.46 0 0 0-94.46-94.46z" fill="#0461A7" p-id="8975"></path><path d="M227.64 251.56A23.62 23.62 0 1 1 204 275.18a23.62 23.62 0 0 1 23.62-23.62z m0 94.46A23.62 23.62 0 1 1 204 369.64 23.62 23.62 0 0 1 227.64 346z m0 141.7a23.62 23.62 0 1 1-23.64 23.6 23.6 23.6 0 0 1 23.64-23.6z" fill="#0461A7" p-id="8976"></path></svg>