<?xml version="1.0" standalone="no"?><!DOCTYPE svg PUBLIC "-//W3C//DTD SVG 1.1//EN" "http://www.w3.org/Graphics/SVG/1.1/DTD/svg11.dtd"><svg t="1602582034245" class="icon" viewBox="0 0 1024 1024" version="1.1" xmlns="http://www.w3.org/2000/svg" p-id="6611" xmlns:xlink="http://www.w3.org/1999/xlink" width="128" height="128"><defs><style type="text/css"></style></defs><path d="M296.96 775.04a372 372 0 0 0 526 0c145.28-145.28 145.28-380.82 0-526a372 372 0 0 0-526 0c-145.28 145.26-145.28 380.8 0 526z" fill="#DEDEDE" p-id="6612"></path><path d="M92 512a24 24 0 1 0 24-24 24 24 0 0 0-24 24zM125.64 672a24 24 0 1 0 24-24 24 24 0 0 0-24 24zM174.1 753.64a24 24 0 1 0 24-24 24 24 0 0 0-24 24z" fill="#0066B3" p-id="6613"></path><path d="M512 92C280 92 92 280 92 512h48c0-205.44 166.52-372 372-372s372 166.52 372 372-166.52 372-372 372a372 372 0 0 1-294.6-144.88L180 769.24A419.3 419.3 0 0 0 512 932c232 0 420-188 420-420S744 92 512 92z" fill="#0066B3" p-id="6614"></path><path d="M698.9 609.24c-1.26 15.12-2.94 28.98-5.04 40.32-6.72 34.86-18.48 44.94-60.9 47.04a496 496 0 0 1-50 0c-39.9-2.1-52.92-13.44-52.92-50.4v-94.5H478.4c-0.42 0.42-0.42 0.84-0.42 1.68-5.46 84-36.12 112.98-128.52 156.66l-24.36-38.22c84-33.6 107.52-58.38 110.88-120.12h-69.3v-163.4h70.56c-11.34-18-25.62-38.64-35.28-51.66L436.4 314a724.28 724.28 0 0 1 43.26 61.74l-17.64 12.6h72.24A646.96 646.96 0 0 0 582.14 314l36.12 21c-6.72 13.02-20.16 33.6-33.6 53.34h67.62v163.4h-80.64v79.38c0 18 5.88 22.26 26 23.52a176.74 176.74 0 0 0 29.82 0c22.26-2.1 24.36-5.04 27.72-22.68 1.68-10.5 2.94-21.84 3.78-34.44z m-87.36-96.62v-84.84H408.26v84.84z" fill="#0066B3" p-id="6615"></path></svg>