<?xml version="1.0" standalone="no"?><!DOCTYPE svg PUBLIC "-//W3C//DTD SVG 1.1//EN" "http://www.w3.org/Graphics/SVG/1.1/DTD/svg11.dtd"><svg t="1566977833275" class="icon" viewBox="0 0 1024 1024" version="1.1" xmlns="http://www.w3.org/2000/svg" p-id="3651" xmlns:xlink="http://www.w3.org/1999/xlink" width="32" height="32"><defs><style type="text/css"></style></defs><path d="M348.12 381.54h459.14a87.46 87.46 0 0 1 87.44 87.46v393.54A87.46 87.46 0 0 1 807.26 950H348.12a87.46 87.46 0 0 1-87.46-87.46V469a87.46 87.46 0 0 1 87.46-87.46z" fill="#DEDEDE" p-id="3652"></path><path d="M566.74 31.72h21.88a153.04 153.04 0 0 1 153.04 153.06v262.36h-328V184.78a153.04 153.04 0 0 1 153.08-153.06z" fill="#DEDEDE" p-id="3653"></path><path d="M550.94 555.78l-89.56 89.56a12 12 0 1 0 16.96 16.96L568 572.74a12 12 0 1 0-16.98-16.96z" fill="#0066B3" p-id="3654"></path><path d="M370.24 555.3a12.34 12.34 0 0 0 0.48 17.44l89.56 89.56a12 12 0 1 0 16.98-16.96l-89.58-89.56a12.34 12.34 0 0 0-17.44-0.48zM379.48 686.56h177.78a12 12 0 0 1 0 24h-177.78a12 12 0 0 1 0-24zM379.48 752.16h177.78a12 12 0 0 1 0 24h-177.78a12 12 0 0 1 0-24z" fill="#0066B3" p-id="3655"></path><path d="M468.36 690.52a11.6 11.6 0 0 1 12 11.12v177.78a12 12 0 0 1-24 0v-177.78a11.6 11.6 0 0 1 12-11.12z" fill="#0066B3" p-id="3656"></path><path d="M741.8 423.5H216.8a87.74 87.74 0 0 0-87.5 88v396a87.74 87.74 0 0 0 87.5 88h525a87.76 87.76 0 0 0 87.5-88v-396a87.76 87.76 0 0 0-87.5-88z m39.5 480.72a43.22 43.22 0 0 1-43.14 43.28H220.44a43.22 43.22 0 0 1-43.14-43.28V514.78a43.22 43.22 0 0 1 43.14-43.28h517.72a43.22 43.22 0 0 1 43.14 43.28zM370.3 66.34a24 24 0 1 1-24 24 24 24 0 0 1 24-24zM303.3 270a24 24 0 1 1-24 24 24 24 0 0 1 24-24zM316 138.78a24 24 0 1 1-24 24 24 24 0 0 1 24-24z" fill="#0066B3" p-id="3657"></path><path d="M479.3 28.5a199.12 199.12 0 0 0-123.04 42.32l28 39.4a150.68 150.68 0 0 1 95.14-33.72c84 0 152 68.52 152 153.04v196.78h-304V294h-48v134.42h400v-200a200 200 0 0 0-200.1-199.92z" fill="#0066B3" p-id="3658"></path></svg>