<?xml version="1.0" standalone="no"?><!DOCTYPE svg PUBLIC "-//W3C//DTD SVG 1.1//EN" "http://www.w3.org/Graphics/SVG/1.1/DTD/svg11.dtd"><svg t="1582891564732" class="icon" viewBox="0 0 1024 1024" version="1.1" xmlns="http://www.w3.org/2000/svg" p-id="9697" xmlns:xlink="http://www.w3.org/1999/xlink" width="200" height="200"><defs><style type="text/css"></style></defs><path d="M859.44 90H137.1a42.24 42.24 0 0 0-42.5 42v1.74A193.76 193.76 0 0 1 264.9 326v556a48.44 48.44 0 0 1-42.74 48.1H902a42.28 42.28 0 0 0 42.5-42V195.02C944.44 171.84 882.92 90 859.44 90z" fill="#DEDEDE" p-id="9698"></path><path d="M959.44 153.3L869.3 64.2a42.84 42.84 0 0 0-60 0L358.52 509.72a41.66 41.66 0 0 0 0 59.4l91.36-90.32 374.34-370a21.42 21.42 0 0 1 30 0l60.1 59.4a20.82 20.82 0 0 1 0 29.7L493.74 613.68h-0.1l-44.98 44.46a42.86 42.86 0 0 0 60 0L959.44 212.7a41.66 41.66 0 0 0 0-59.4z" fill="#0066B3" p-id="9699"></path><path d="M900.2 467.82v413.26A48.28 48.28 0 0 1 852 929.4H144.42a48.28 48.28 0 0 1-48.22-48.32V181.7a48.26 48.26 0 0 1 48.22-48.3h417.4V85.04H146a97.82 97.82 0 0 0-97.72 98v696.04a97.84 97.84 0 0 0 97.72 98h704.48a97.84 97.84 0 0 0 97.72-98V467.82z" fill="#0066B3" p-id="9700"></path><path d="M562.18 85.04a24 24 0 1 1-24 24 24 24 0 0 1 24-24zM924.2 444.5a24 24 0 1 1-24 24 24 24 0 0 1 24-24zM52.12 489.38h42.4v209.74h-42.4z" fill="#0066B3" p-id="9701"></path><path d="M73.32 467.82a21.2 21.2 0 1 1-21.2 21.2 21.18 21.18 0 0 1 21.2-21.2z m0 84.04a21.2 21.2 0 1 1-21.2 21.2 21.2 21.2 0 0 1 21.2-21.2z m0 126.44a20.84 20.84 0 1 1-21.2 20.82 21 21 0 0 1 21.2-20.82z m323.5-41.22H380V503.34a33.62 33.62 0 0 0-34 33.44v100.3a33.62 33.62 0 0 0 34 33.44h101.48a33.62 33.62 0 0 0 33.84-33.44h-118.4z" fill="#0066B3" p-id="9702"></path></svg>