<?xml version="1.0" standalone="no"?><!DOCTYPE svg PUBLIC "-//W3C//DTD SVG 1.1//EN" "http://www.w3.org/Graphics/SVG/1.1/DTD/svg11.dtd"><svg t="1566870022434" class="icon" viewBox="0 0 1024 1024" version="1.1" xmlns="http://www.w3.org/2000/svg" p-id="4441" xmlns:xlink="http://www.w3.org/1999/xlink" width="128" height="128"><defs><style type="text/css"></style></defs><path d="M339.781818 23.272727h-279.272727v37.003637a186.181818 186.181818 0 0 1 116.363636 172.450909v139.636363a46.545455 46.545455 0 0 1-46.545454 46.545455h-69.818182v23.272727h279.272727a116.363636 116.363636 0 0 0 116.363637-116.363636V139.636364a116.363636 116.363636 0 0 0-116.363637-116.363637zM898.327273 23.272727h-279.272728v37.003637a186.181818 186.181818 0 0 1 116.363637 172.450909v139.636363a46.545455 46.545455 0 0 1-46.545455 46.545455h-69.818182v23.272727h279.272728a116.363636 116.363636 0 0 0 116.363636-116.363636V139.636364a116.363636 116.363636 0 0 0-116.363636-116.363637zM339.781818 581.818182h-279.272727v37.003636a186.181818 186.181818 0 0 1 116.363636 172.450909v139.636364a46.545455 46.545455 0 0 1-46.545454 46.545454h-69.818182v23.272728h279.272727a116.363636 116.363636 0 0 0 116.363637-116.363637v-186.181818a116.363636 116.363636 0 0 0-116.363637-116.363636z" fill="#DEDEDE" p-id="4442"></path><path d="M372.363636 0H93.090909a93.090909 93.090909 0 0 0-93.090909 93.090909v279.272727a93.090909 93.090909 0 0 0 93.090909 93.090909h279.272727a93.090909 93.090909 0 0 0 93.090909-93.090909V93.090909a93.090909 93.090909 0 0 0-93.090909-93.090909z m46.545455 372.363636a46.545455 46.545455 0 0 1-46.545455 46.545455H93.090909a46.545455 46.545455 0 0 1-46.545454-46.545455V93.090909a46.545455 46.545455 0 0 1 46.545454-46.545454h279.272727a46.545455 46.545455 0 0 1 46.545455 46.545454zM930.909091 0H651.636364a93.090909 93.090909 0 0 0-93.090909 93.090909v279.272727a93.090909 93.090909 0 0 0 93.090909 93.090909h279.272727a93.090909 93.090909 0 0 0 93.090909-93.090909V93.090909a93.090909 93.090909 0 0 0-93.090909-93.090909z m46.545454 372.363636a46.545455 46.545455 0 0 1-46.545454 46.545455H651.636364a46.545455 46.545455 0 0 1-46.545455-46.545455V93.090909a46.545455 46.545455 0 0 1 46.545455-46.545454h279.272727a46.545455 46.545455 0 0 1 46.545454 46.545454zM372.363636 558.545455H93.090909a93.090909 93.090909 0 0 0-93.090909 93.090909v279.272727a93.090909 93.090909 0 0 0 93.090909 93.090909h279.272727a93.090909 93.090909 0 0 0 93.090909-93.090909V651.636364a93.090909 93.090909 0 0 0-93.090909-93.090909z m46.545455 372.363636a46.545455 46.545455 0 0 1-46.545455 46.545454H93.090909a46.545455 46.545455 0 0 1-46.545454-46.545454V651.636364a46.545455 46.545455 0 0 1 46.545454-46.545455h279.272727a46.545455 46.545455 0 0 1 46.545455 46.545455zM651.636364 744.727273a23.272727 23.272727 0 0 1 23.272727 23.272727v186.181818a23.272727 23.272727 0 0 1-46.545455 0v-186.181818a23.272727 23.272727 0 0 1 23.272728-23.272727zM791.272727 605.090909a23.272727 23.272727 0 0 1 23.272728 23.272727v325.818182a23.272727 23.272727 0 0 1-46.545455 0V628.363636a23.272727 23.272727 0 0 1 23.272727-23.272727zM651.636364 628.363636a23.272727 23.272727 0 1 1-23.272728 23.272728 23.272727 23.272727 0 0 1 23.272728-23.272728zM930.909091 628.363636a23.272727 23.272727 0 0 1 23.272727 23.272728v186.181818a23.272727 23.272727 0 0 1-46.545454 0v-186.181818a23.272727 23.272727 0 0 1 23.272727-23.272728zM930.909091 930.909091a23.272727 23.272727 0 1 1-23.272727 23.272727 23.272727 23.272727 0 0 1 23.272727-23.272727z" fill="#0461A7" p-id="4443"></path></svg>