<?xml version="1.0" standalone="no"?><!DOCTYPE svg PUBLIC "-//W3C//DTD SVG 1.1//EN" "http://www.w3.org/Graphics/SVG/1.1/DTD/svg11.dtd"><svg t="1566870115958" class="icon" viewBox="0 0 1024 1024" version="1.1" xmlns="http://www.w3.org/2000/svg" p-id="7835" xmlns:xlink="http://www.w3.org/1999/xlink" width="128" height="128"><defs><style type="text/css"></style></defs><path d="M279.275 651.6375L418.9125 512h93.0875v46.55l-93.0875 93.0875L442.1375 698.1875h116.375v116.3625l-69.825 69.8125H279.275z m0 279.275h279.275a23.275 23.275 0 0 1 23.275 23.2625v69.825H256v-69.825a23.2625 23.2625 0 0 1 23.275-23.2625z m0 0" fill="#DEDEDE" p-id="7836"></path><path d="M535.275 46.55h302.5a23.2625 23.2625 0 0 1 23.2625 23.275v581.8125a23.275 23.275 0 0 1-23.2625 23.275h-302.5a46.55 46.55 0 0 1-46.55-46.55V93.0875a46.5375 46.5375 0 0 1 46.55-46.5375z m0 0" fill="#DEDEDE" p-id="7837"></path><path d="M505.95 500.3625l-49.3375-49.3375-177.3375 177.3375 29.325 36.5375 148.0125-148.0125 16.525 16.525a23.2625 23.2625 0 0 1 0 32.8125L337.925 701.4375l29.0875 36.775 139.6375-139.6375a69.8125 69.8125 0 0 0-0.7-98.2125z m0 0" fill="#0461A7" p-id="7838"></path><path d="M294.1625 623.2375a23.275 23.275 0 1 1-16.45 6.825 23.275 23.275 0 0 1 16.45-6.825zM351.65 698.1875a23.2625 23.2625 0 1 1-16.4625 6.8125 23.275 23.275 0 0 1 16.4625-6.8125zM558.55 884.3625H186.1875A46.55 46.55 0 0 0 139.6375 930.9125v93.0875h46.55v-69.825a23.2625 23.2625 0 0 1 23.2625-23.2625h325.825a23.2625 23.2625 0 0 1 23.275 23.2625v69.825h46.5375v-93.0875a46.5375 46.5375 0 0 0-46.5375-46.55z" fill="#0461A7" p-id="7839"></path><path d="M232.725 954.175a23.3 23.3 0 1 1-16.45 6.825 23.275 23.275 0 0 1 16.45-6.825zM186.1875 558.55a22.8625 22.8625 0 0 1 16.45 7.0375 24.4125 24.4125 0 0 1 6.8125 16.9875V895H162.9125V582.575a24.4125 24.4125 0 0 1 6.8125-16.9875 22.8875 22.8875 0 0 1 16.4625-7.0375z" fill="#0461A7" p-id="7840"></path><path d="M169.6375 566.25l164.5625-164.5625a23.2875 23.2875 0 1 1 33.05 32.8125L202.7125 599.0375A23.2875 23.2875 0 0 1 169.6375 566.25zM581.825 116.3625h-46.55a46.55 46.55 0 0 0-46.55 46.55v46.5375a46.55 46.55 0 0 0 46.55 46.55h46.55A46.5375 46.5375 0 0 0 628.3875 209.45v-46.5375a46.5375 46.5375 0 0 0-46.5375-46.55z m-23.275 93.0875a23.275 23.275 0 1 1 16.45-6.8125 23.2625 23.2625 0 0 1-16.45 6.8125z m186.175 162.9125a23.2625 23.2625 0 0 1 23.275 23.275v186.175a23.275 23.275 0 0 1-46.55 0V395.6375a23.275 23.275 0 0 1 23.275-23.275z m-116.3625 0a23.2625 23.2625 0 0 1 23.275 23.275v186.175a23.275 23.275 0 1 1-46.55 0V395.6375A23.275 23.275 0 0 1 628.3875 372.3625z m0 0" fill="#0461A7" p-id="7841"></path><path d="M372.3625 558.55l46.55-46.55V349.0875h-46.55v209.4625z" fill="#0461A7" p-id="7842"></path><path d="M837.825 0H418.9125a46.55 46.55 0 0 0-46.55 46.55v69.8125h46.55V69.825A23.2625 23.2625 0 0 1 442.1375 46.55h372.375a23.275 23.275 0 0 1 23.275 23.275v581.8125a23.3 23.3 0 0 1-23.275 23.275H455.2125l10.25 46.5375h372.3625a46.5375 46.5375 0 0 0 46.5375-46.5375V46.55A46.5375 46.5375 0 0 0 837.825 0z" fill="#0461A7" p-id="7843"></path><path d="M395.6375 93.0875a23.3 23.3 0 1 1-16.45 6.825 23.275 23.275 0 0 1 16.45-6.825z m0 93.1a23.275 23.275 0 1 1-16.45 6.8125 23.275 23.275 0 0 1 16.45-6.75z m0 139.6375a23.275 23.275 0 1 1-16.45 6.8125 23.275 23.275 0 0 1 16.45-6.8125z m0 0M349.0875 605.0875h-23.275a95 95 0 0 1 23.275 3.2625z m116.375 93.1a95.575 95.575 0 0 0-3.2625-23.275h-46.55a95 95 0 0 1 3.2625 23.275v69.8125a93.1 93.1 0 0 1-93.1 93.0875h46.55a93.1 93.1 0 0 0 93.1-93.0875z m57.0125-23.275a93.05 93.05 0 0 1 12.8 46.5375V791.25A93.075 93.075 0 0 1 442.1375 884.3625h46.55A93.1 93.1 0 0 0 581.825 791.25v-69.8a93.1875 93.1875 0 0 0-12.8125-46.5375z m0 0" fill="#0461A7" p-id="7844"></path></svg>