<?xml version="1.0" standalone="no"?><!DOCTYPE svg PUBLIC "-//W3C//DTD SVG 1.1//EN" "http://www.w3.org/Graphics/SVG/1.1/DTD/svg11.dtd"><svg t="1566870155288" class="icon" viewBox="0 0 1024 1024" version="1.1" xmlns="http://www.w3.org/2000/svg" p-id="9762" xmlns:xlink="http://www.w3.org/1999/xlink" width="128" height="128"><defs><style type="text/css"></style></defs><path d="M1004.94 327.86V842.6a48 48 0 0 1-48 48H67.06a48 48 0 0 1-48-48V327.86a48 48 0 0 1 48-48h95.88l20 48H67.06V842.6h889.88V327.86h-492l20-48h472a48 48 0 0 1 48 48z" fill="#666666" p-id="9763"></path><path d="M323.36 133.4a120 120 0 1 0 120 120 120 120 0 0 0-120-120z m0 192a72 72 0 1 1 72-72 72 72 0 0 1-72 72zM161.16 614.6v-0.4a162 162 0 0 1 324 0v0.4h48v-0.4a210 210 0 0 0-420 0v0.4z" fill="#666666" p-id="9764"></path><path d="M136.94 614.6m-24 0a24 24 0 1 0 48 0 24 24 0 1 0-48 0Z" fill="#666666" p-id="9765"></path><path d="M508.94 614.6m-24 0a24 24 0 1 0 48 0 24 24 0 1 0-48 0Z" fill="#666666" p-id="9766"></path><path d="M610.94 638.6m24 0l252 0q24 0 24 24l0 0q0 24-24 24l-252 0q-24 0-24-24l0 0q0-24 24-24Z" fill="#666666" p-id="9767"></path><path d="M532.94 742.6m24 0l330 0q24 0 24 24l0 0q0 24-24 24l-330 0q-24 0-24-24l0 0q0-24 24-24Z" fill="#666666" p-id="9768"></path></svg>