<?xml version="1.0" standalone="no"?><!DOCTYPE svg PUBLIC "-//W3C//DTD SVG 1.1//EN" "http://www.w3.org/Graphics/SVG/1.1/DTD/svg11.dtd"><svg t="1602555014317" class="icon" viewBox="0 0 1024 1024" version="1.1" xmlns="http://www.w3.org/2000/svg" p-id="18459" xmlns:xlink="http://www.w3.org/1999/xlink" width="128" height="128"><defs><style type="text/css"></style></defs><path d="M575.6 292.6m-219 0a219 219 0 1 0 438 0 219 219 0 1 0-438 0Z" fill="#f2f2f2" p-id="18460"></path><path d="M727.2 574.8c-25.8-13.6-53-24.8-81-33.4 23.8-12.8 45.8-29.2 65.4-48.8 53.4-53.4 83-124.6 83-200.2s-29.4-146.6-83-200.2c-53.4-53.2-124.4-82.6-200-82.6s-146.6 29.4-200.2 83C258 146 228.4 217.2 228.4 292.8s29.4 146.6 83 200.2c19 19 40.4 35.2 63.4 47.8-16.2 4.8-32.2 10.6-48 17.2-55.8 23.6-105.8 57.4-148.8 100.2-43 43-76.8 93-100.2 148.8-24.4 57.8-36.8 119-36.8 182.2 0 17.6 14.4 32 32 32s32-14.4 32-32c0-222.8 181.2-404 404-404 65.6 0 130.8 16 188.4 46.4 15.6 8.2 35 2.2 43.2-13.4 8.2-15.6 2.2-35-13.4-43.4zM292.4 292.6c0-120.8 98.2-219 219-219s219 98.2 219 219-98.2 219-219 219c-120.6 0-219-98.2-219-219z m680.4 494.8h-109v-109c0-17.6-14.4-32-32-32s-32 14.4-32 32v109h-109c-17.6 0-32 14.4-32 32s14.4 32 32 32h109v109c0 17.6 14.4 32 32 32s32-14.4 32-32v-109h109c17.6 0 32-14.4 32-32s-14.2-32-32-32z" fill="#eba313" p-id="18461"></path></svg>