<?xml version="1.0" standalone="no"?><!DOCTYPE svg PUBLIC "-//W3C//DTD SVG 1.1//EN" "http://www.w3.org/Graphics/SVG/1.1/DTD/svg11.dtd"><svg t="1577438297868" class="icon" viewBox="0 0 1024 1024" version="1.1" xmlns="http://www.w3.org/2000/svg" p-id="8306" xmlns:xlink="http://www.w3.org/1999/xlink" width="128" height="128"><defs><style type="text/css"></style></defs><path d="M227.16 742v49.36a43.48 43.48 0 0 0 43.46 43.46h145.68l103 103a43.58 43.58 0 0 0 61.48 0l102.98-103h145.68a43.5 43.5 0 0 0 43.48-43.46v-145.62l103.08-103a43.54 43.54 0 0 0 0-61.48l-102.98-103v-145.68a43.5 43.5 0 0 0-43.48-43.46h-145.78l-102.98-103a43.58 43.58 0 0 0-61.48 0l-103 103h-145.68a43.48 43.48 0 0 0-43.46 43.46v145.68l-103 103a43.54 43.54 0 0 0 0 61.48l13.08 13.08" fill="#f2f2f2" p-id="8307"></path><path d="M138.98 610.3m-21.8 0a21.8 21.8 0 1 0 43.6 0 21.8 21.8 0 1 0-43.6 0Z" fill="#eba313" p-id="8308"></path><path d="M48.1 542.74l13.08 13.08 33.02-28.44a21.7 21.7 0 0 1 0-30.76l100.36-100.34v-142a21.68 21.68 0 0 1 21.72-21.74h142l100.32-100.3a21.68 21.68 0 0 1 30.74 0l87.62 87.62 12.72 12.72h142a21.7 21.7 0 0 1 21.74 21.74v142l100.34 100.34a21.7 21.7 0 0 1 0 30.76l-100.34 100.34v142a21.7 21.7 0 0 1-21.74 21.74h-142l-100.34 100.34a21.68 21.68 0 0 1-30.74 0l-87.62-87.62-12.74-12.72h-142a21.68 21.68 0 0 1-21.72-21.74V742a21.74 21.74 0 0 0-43.48 0v49.36a43.5 43.5 0 0 0 43.48 43.46h145.68l102.98 103a43.58 43.58 0 0 0 61.48 0l103-103h145.68a43.48 43.48 0 0 0 43.46-43.46v-145.62l103-103a43.54 43.54 0 0 0 0-61.48l-103-103v-145.68a43.48 43.48 0 0 0-43.46-43.46h-145.64l-103-103a43.58 43.58 0 0 0-61.48 0l-102.98 103H194.56a43.5 43.5 0 0 0-43.48 43.46v145.68l-102.98 103a43.54 43.54 0 0 0 0 61.48z" fill="#eba313" p-id="8309"></path><path d="M76.74 540.56m-21.8 0a21.8 21.8 0 1 0 43.6 0 21.8 21.8 0 1 0-43.6 0Z" fill="#eba313" p-id="8310"></path><path d="M629.04 388L427.46 589.54l-108.58-108.58A22 22 0 0 0 287.86 512l124 124a21.7 21.7 0 0 0 15.46 6.36 22 22 0 0 0 15.48-6.36L660 419a22 22 0 0 0-30.96-31z" fill="#eba313" p-id="8311"></path></svg>