<?xml version="1.0" standalone="no"?><!DOCTYPE svg PUBLIC "-//W3C//DTD SVG 1.1//EN" "http://www.w3.org/Graphics/SVG/1.1/DTD/svg11.dtd"><svg t="1566870145753" class="icon" viewBox="0 0 1024 1024" version="1.1" xmlns="http://www.w3.org/2000/svg" p-id="9250" xmlns:xlink="http://www.w3.org/1999/xlink" width="128" height="128"><defs><style type="text/css"></style></defs><path d="M741.4784 690.7904l-116.4288-326.144a57.6512 57.6512 0 0 0-54.272-38.2464h-117.76a57.6 57.6 0 0 0-54.272 38.2464l-116.48 326.144a57.7024 57.7024 0 0 0 13.5168 60.1088l189.696 189.696a37.12 37.12 0 0 0 52.48 0l189.696-189.696a57.6 57.6 0 0 0 13.824-60.1088zM512 876.3392l-167.8336-167.8336L457.728 390.4h108.544l113.5616 318.1056z" fill="#666666" p-id="9251"></path><path d="M657.3056 70.4H366.6944a37.12 37.12 0 0 0-33.2288 53.7088L399.36 256a57.4976 57.4976 0 0 0 51.5072 31.8464h121.9584A57.5488 57.5488 0 0 0 624.64 256l66.048-131.9936a37.12 37.12 0 0 0-33.2288-53.76z m-88.2688 153.6H454.912l-44.8-89.6h203.7248z" fill="#0066B3" p-id="9252"></path></svg>