<?xml version="1.0" standalone="no"?><!DOCTYPE svg PUBLIC "-//W3C//DTD SVG 1.1//EN" "http://www.w3.org/Graphics/SVG/1.1/DTD/svg11.dtd"><svg t="1566870012483" class="icon" viewBox="0 0 1024 1024" version="1.1" xmlns="http://www.w3.org/2000/svg" p-id="4183" xmlns:xlink="http://www.w3.org/1999/xlink" width="128" height="128"><defs><style type="text/css"></style></defs><path d="M592.907952 23.473445a302.133454 302.133454 0 0 1 302.133454 302.133455c0 166.40581-282.146164 582.187926-302.133454 582.187925S290.774498 490.850658 290.774498 325.6069a302.133454 302.133454 0 0 1 302.133454-302.133455z" fill="#DEDEDE" p-id="4184"></path><path d="M476.702777 162.919655a139.44621 139.44621 0 1 0 139.44621 139.44621 139.44621 139.44621 0 0 0-139.44621-139.44621z m0 232.41035a92.96414 92.96414 0 1 1 92.96414-92.96414 92.96414 92.96414 0 0 1-92.96414 92.96414z" fill="#0461A7" p-id="4185"></path><path d="M476.702777 0.23241a348.615524 348.615524 0 0 0-348.615524 348.615525h46.48207a302.133454 302.133454 0 0 1 604.266909 0c0 166.40581-282.146164 582.187926-302.133455 582.187925-13.4798 0-139.44621-178.723559-224.043577-348.615524H199.902051c97.147526 207.077621 260.299591 441.579664 276.800726 441.579664 23.241035 0 348.615524-481.554244 348.615524-673.990014A348.615524 348.615524 0 0 0 476.702777 0.23241z" fill="#0461A7" p-id="4186"></path><path d="M151.328288 325.6069a23.241035 23.241035 0 1 1-23.241035 23.241035 23.241035 23.241035 0 0 1 23.241035-23.241035zM226.861651 558.017249a23.241035 23.241035 0 1 1-23.241035 23.241035 23.241035 23.241035 0 0 1 23.241035-23.241035zM174.569323 418.571039a23.241035 23.241035 0 1 1-23.241035 23.241035 23.241035 23.241035 0 0 1 23.241035-23.241035z" fill="#0461A7" p-id="4187"></path></svg>