<?xml version="1.0" standalone="no"?><!DOCTYPE svg PUBLIC "-//W3C//DTD SVG 1.1//EN" "http://www.w3.org/Graphics/SVG/1.1/DTD/svg11.dtd"><svg t="1653544743349" class="icon" viewBox="0 0 1024 1024" version="1.1" xmlns="http://www.w3.org/2000/svg" p-id="17298" xmlns:xlink="http://www.w3.org/1999/xlink" width="200" height="200"><defs><style type="text/css">@font-face { font-family: feedback-iconfont; src: url("//at.alicdn.com/t/font_1031158_u69w8yhxdu.woff2?t=1630033759944") format("woff2"), url("//at.alicdn.com/t/font_1031158_u69w8yhxdu.woff?t=1630033759944") format("woff"), url("//at.alicdn.com/t/font_1031158_u69w8yhxdu.ttf?t=1630033759944") format("truetype"); }
</style></defs><path d="M297.44 416l37.46-29.76 146.46 171.58-36.56 30z" fill="#fbb670" p-id="17299"></path><path d="M415.84 549.22L695.24 320l28.98 38.58L444.8 587.8z" fill="#fbb670" p-id="17300"></path><path d="M269.7 834.16m24 0l436.6 0q24 0 24 24l0 0q0 24-24 24l-436.6 0q-24 0-24-24l0 0q0-24 24-24Z" fill="#fbb670" p-id="17301"></path><path d="M914 132.96H110a48 48 0 0 0-48 48v524a48 48 0 0 0 48 48h804a48 48 0 0 0 48-48v-524a48 48 0 0 0-48-48z m0 546a24 24 0 0 1-24 24H134a24 24 0 0 1-24-24v-472a24 24 0 0 1 24-24h756a24 24 0 0 1 24 24z" fill="#fbb670" p-id="17302"></path></svg>