<?xml version="1.0" standalone="no"?><!DOCTYPE svg PUBLIC "-//W3C//DTD SVG 1.1//EN" "http://www.w3.org/Graphics/SVG/1.1/DTD/svg11.dtd"><svg t="1653544789338" class="icon" viewBox="0 0 1024 1024" version="1.1" xmlns="http://www.w3.org/2000/svg" p-id="18521" xmlns:xlink="http://www.w3.org/1999/xlink" width="200" height="200"><defs><style type="text/css">@font-face { font-family: feedback-iconfont; src: url("//at.alicdn.com/t/font_1031158_u69w8yhxdu.woff2?t=1630033759944") format("woff2"), url("//at.alicdn.com/t/font_1031158_u69w8yhxdu.woff?t=1630033759944") format("woff"), url("//at.alicdn.com/t/font_1031158_u69w8yhxdu.ttf?t=1630033759944") format("truetype"); }
</style></defs><path d="M878.18 252.22H222.9a38.54 38.54 0 0 0-38.54 38.54v501.08a38.56 38.56 0 0 0 38.54 38.56h655.28a38.56 38.56 0 0 0 38.54-38.56V290.76a38.54 38.54 0 0 0-38.54-38.54zM429.52 658.68a19.28 19.28 0 0 1-19.28 19.26h-38.54v-77.08h38.54a19.28 19.28 0 0 1 19.28 19.26z m0-192.74a19.28 19.28 0 0 1-19.28 19.28h-38.54v-77.1h38.54a19.3 19.3 0 0 1 19.28 19.28z m192.72 0a19.26 19.26 0 0 1-19.28 19.28h-38.54v-77.1h38.54a19.28 19.28 0 0 1 19.28 19.28z" fill="#DEDEDE" p-id="18522"></path><path d="M242.18 213.66a19.28 19.28 0 1 1-19.28 19.28 19.3 19.3 0 0 1 19.28-19.28z m154.18 0a19.28 19.28 0 1 1-19.26 19.28 19.3 19.3 0 0 1 19.26-19.28z m231.28 0a19.28 19.28 0 1 1-19.28 19.28 19.3 19.3 0 0 1 19.28-19.28z m154.18 0a19.28 19.28 0 1 1-19.28 19.28 19.3 19.3 0 0 1 19.28-19.28zM319.28 155.84a19.28 19.28 0 0 1 19.26 19.28v77.1a19.28 19.28 0 0 1-38.54 0V175.12a19.28 19.28 0 0 1 19.28-19.28z m385.44 0a19.28 19.28 0 0 1 19.28 19.28v77.1a19.28 19.28 0 0 1-38.54 0V175.12a19.28 19.28 0 0 1 19.26-19.28zM107.28 348.58a19.28 19.28 0 1 1-19.28 19.26 19.26 19.26 0 0 1 19.28-19.26z m0 77.08a19.28 19.28 0 1 1-19.28 19.28 19.28 19.28 0 0 1 19.28-19.28z m0 115.64a19.28 19.28 0 1 1-19.28 19.28 19.28 19.28 0 0 1 19.28-19.28z m340.16-173.46h-77.1a38.56 38.56 0 0 0-38.54 38.56v77.08A38.56 38.56 0 0 0 370.34 522h77.1A38.56 38.56 0 0 0 486 483.48V406.4a38.56 38.56 0 0 0-38.54-38.56z m1.34 98.1a19.26 19.26 0 0 1-19.26 19.28h-38.56a19.26 19.26 0 0 1-19.26-19.28V427.4a19.28 19.28 0 0 1 19.26-19.28h38.56a19.28 19.28 0 0 1 19.26 19.28z m191.58-98.1h-77.1a38.56 38.56 0 0 0-38.54 38.56v77.08A38.56 38.56 0 0 0 563.26 522h77.1a38.56 38.56 0 0 0 38.54-38.56V406.4a38.56 38.56 0 0 0-38.54-38.56z m1.16 98.1a19.28 19.28 0 0 1-19.28 19.28h-38.54a19.28 19.28 0 0 1-19.28-19.28V427.4a19.3 19.3 0 0 1 19.28-19.28h38.54a19.3 19.3 0 0 1 19.28 19.28z m-193.9 94.64h-77.08A38.54 38.54 0 0 0 332 599.12v77.1a38.54 38.54 0 0 0 38.54 38.54h77.08a38.56 38.56 0 0 0 38.56-38.54v-77.1a38.56 38.56 0 0 0-38.56-38.54z m1.16 98a19.26 19.26 0 0 1-19.26 19.26h-38.56a19.26 19.26 0 0 1-19.26-19.26v-38.46a19.26 19.26 0 0 1 19.26-19.26h38.56a19.26 19.26 0 0 1 19.26 19.26z m101.76-21.02a19.3 19.3 0 0 1 19.28 19.28v38.54a19.28 19.28 0 1 1-38.54 0v-38.44a19.28 19.28 0 0 1 19.26-19.28z m57.82-77.08a19.28 19.28 0 0 1 19.28 19.26v115.64a19.28 19.28 0 1 1-38.54 0v-115.54a19.26 19.26 0 0 1 19.26-19.26z m57.82 0a19.28 19.28 0 0 1 19.28 19.26v35.48a19.28 19.28 0 0 1-38.56 0v-35.38a19.28 19.28 0 0 1 19.28-19.26z m0 115.64a19.28 19.28 0 1 1-19.28 19.26 19.28 19.28 0 0 1 19.28-19.16z m-115.64-115.64a19.28 19.28 0 1 1-19.26 19.26 19.26 19.26 0 0 1 19.26-19.16z" fill="#fbb670" p-id="18523" data-spm-anchor-id="a313x.7781069.0.i16" class="selected"></path><path d="M396.36 213.66h231.28v38.56H396.36zM126.54 290.76a38.56 38.56 0 0 1 38.56-38.54h77.08v-38.56H165.1A77.1 77.1 0 0 0 88 290.76v77.08h38.54z m732.36-77.1h-77.08v38.56h77.08a38.56 38.56 0 0 1 38.56 38.54v501.08a38.56 38.56 0 0 1-38.56 38.56H165.1a38.56 38.56 0 0 1-38.56-38.56V560.58H88v231.26a77.1 77.1 0 0 0 77.1 77.1h693.8A77.1 77.1 0 0 0 936 791.84V290.76a77.1 77.1 0 0 0-77.1-77.1z" fill="#fbb670" p-id="18524" data-spm-anchor-id="a313x.7781069.0.i15" class="selected"></path></svg>