<?xml version="1.0" standalone="no"?><!DOCTYPE svg PUBLIC "-//W3C//DTD SVG 1.1//EN" "http://www.w3.org/Graphics/SVG/1.1/DTD/svg11.dtd"><svg t="1566870137086" class="icon" viewBox="0 0 1325 1024" version="1.1" xmlns="http://www.w3.org/2000/svg" p-id="8866" xmlns:xlink="http://www.w3.org/1999/xlink" width="165.625" height="128"><defs><style type="text/css"></style></defs><path d="M1201.667505 0.075289H605.381938l-54.207779 150.577163-123.473274 60.230865-123.473274-60.230865-30.115432-150.577163H120.523472a62.941254 62.941254 0 0 0-63.242409 60.230865v63.242409a243.031542 243.031542 0 0 1 210.808029 237.911918v542.077788a60.230865 60.230865 0 0 1-60.230865 60.230866h69.265495l27.103889-90.346298 123.473274-60.230866 123.473274 60.230866 63.242409 120.46173 587.250937-30.115432a62.941254 62.941254 0 0 0 63.242409-60.230866V60.306154a60.230865 60.230865 0 0 0-63.242409-60.230865z" fill-opacity="0" p-id="8867"></path><path d="M599.358852 0.075289l3.011543 30.115432h-33.126976a102.392471 102.392471 0 0 1 3.011543 30.115433 120.461731 120.461731 0 0 1-240.923461 0c0-9.03463 3.011543-21.080803 3.011543-30.115433H301.216068l6.023087-30.115432h-24.092347a194.244541 194.244541 0 0 0-9.034629 60.230865 180.692596 180.692596 0 0 0 361.385192 0 194.244541 194.244541 0 0 0-9.03463-60.230865z" fill="#583046" p-id="8868"></path><path d="M307.239155 0.075289a30.115433 30.115433 0 1 1-30.115433 30.115432 28.308507 28.308507 0 0 1 30.115433-30.115432zM599.358852 0.075289a30.115433 30.115433 0 1 1-30.115433 30.115432 28.308507 28.308507 0 0 1 30.115433-30.115432zM307.239155 1024l-6.023087-30.115433h33.126976a102.392471 102.392471 0 0 1-3.011543-30.115432 120.461731 120.461731 0 0 1 240.923461 0c0 9.03463-3.011543 21.080803-3.011543 30.115432H602.370395l-6.023087 30.115433h24.092347a194.244541 194.244541 0 0 0 9.034629-60.230865 180.692596 180.692596 0 0 0-361.385192 0 194.244541 194.244541 0 0 0 9.03463 60.230865zM451.793232 271.114183a28.308507 28.308507 0 0 1 30.115432 30.115432v60.230866a30.115433 30.115433 0 0 1-60.230865 0v-60.230866a28.308507 28.308507 0 0 1 30.115433-30.115432zM451.793232 451.806779a28.308507 28.308507 0 0 1 30.115432 30.115433v60.230865a30.115433 30.115433 0 0 1-60.230865 0v-60.230865a28.308507 28.308507 0 0 1 30.115433-30.115433zM451.793232 632.499375a28.308507 28.308507 0 0 1 30.115432 30.115433v60.230865a30.115433 30.115433 0 0 1-60.230865 0v-60.230865a28.308507 28.308507 0 0 1 30.115433-30.115433zM0.061741 240.99875h60.230866v301.154327H0.061741z" fill="#583046" p-id="8869"></path><path d="M30.177174 210.883317a30.115433 30.115433 0 1 1-30.115433 30.115433 28.308507 28.308507 0 0 1 30.115433-30.115433zM30.177174 331.345048a30.115433 30.115433 0 1 1-30.115433 30.115433 28.308507 28.308507 0 0 1 30.115433-30.115433zM30.177174 512.037644a30.115433 30.115433 0 1 1-30.115433 30.115433 28.308507 28.308507 0 0 1 30.115433-30.115433zM596.347308 963.769135a30.115433 30.115433 0 1 1-30.115432 30.115432 30.115433 30.115433 0 0 1 30.115432-30.115432zM307.239155 963.769135a30.115433 30.115433 0 1 1-30.115433 30.115432 28.308507 28.308507 0 0 1 30.115433-30.115432z" fill="#583046" p-id="8870"></path><path d="M307.239155 963.769135H180.754337a120.461731 120.461731 0 0 1-120.46173-120.461731V180.767885a120.461731 120.461731 0 0 1 120.46173-120.461731h126.484818V0.075289H120.523472a120.461731 120.461731 0 0 0-120.461731 120.46173v783.00125a120.461731 120.461731 0 0 0 120.461731 120.461731h186.715683zM1204.679049 0.075289H599.358852v60.230865H1144.448183a120.461731 120.461731 0 0 1 120.461731 120.461731v662.539519a120.461731 120.461731 0 0 1-120.461731 120.461731H596.347308v60.230865H1204.679049a120.461731 120.461731 0 0 0 120.46173-120.461731V120.537019a120.461731 120.461731 0 0 0-120.46173-120.46173z" fill="#583046" p-id="8871"></path></svg>