<?xml version="1.0" standalone="no"?><!DOCTYPE svg PUBLIC "-//W3C//DTD SVG 1.1//EN" "http://www.w3.org/Graphics/SVG/1.1/DTD/svg11.dtd"><svg t="1566870093042" class="icon" viewBox="0 0 1217 1024" version="1.1" xmlns="http://www.w3.org/2000/svg" p-id="6654" xmlns:xlink="http://www.w3.org/1999/xlink" width="152.125" height="128"><defs><style type="text/css"></style></defs><path d="M1134.702703 138.378378H193.72973a55.351351 55.351351 0 0 0-55.351352 55.351352v719.567567a55.351351 55.351351 0 0 0 55.351352 55.351352h940.972973a55.351351 55.351351 0 0 0 55.351351-55.351352V193.72973a55.351351 55.351351 0 0 0-55.351351-55.351352zM490.412973 722.058378a27.675676 27.675676 0 0 1-27.675676 27.675676h-55.351351v-110.702703h55.351351a27.675676 27.675676 0 0 1 27.675676 27.675676z m0-276.756756a27.675676 27.675676 0 0 1-27.675676 27.675675h-55.351351v-110.702702h55.351351a27.675676 27.675676 0 0 1 27.675676 27.675675z m276.756757 0a27.675676 27.675676 0 0 1-27.675676 27.675675h-55.351351v-110.702702h55.351351a27.675676 27.675676 0 0 1 27.675676 27.675675z" fill="#DEDEDE" p-id="6655"></path><path d="M221.405405 83.027027a27.675676 27.675676 0 1 1-27.675675 27.675676 27.675676 27.675676 0 0 1 27.675675-27.675676zM442.810811 83.027027a27.675676 27.675676 0 1 1-27.675676 27.675676 27.675676 27.675676 0 0 1 27.675676-27.675676zM774.918919 83.027027a27.675676 27.675676 0 1 1-27.675676 27.675676 27.675676 27.675676 0 0 1 27.675676-27.675676zM996.324324 83.027027a27.675676 27.675676 0 1 1-27.675675 27.675676 27.675676 27.675676 0 0 1 27.675675-27.675676zM332.108108 0a27.675676 27.675676 0 0 1 27.675676 27.675676v110.702702a27.675676 27.675676 0 0 1-55.351352 0V27.675676a27.675676 27.675676 0 0 1 27.675676-27.675676zM885.621622 0a27.675676 27.675676 0 0 1 27.675675 27.675676v110.702702a27.675676 27.675676 0 0 1-55.351351 0V27.675676a27.675676 27.675676 0 0 1 27.675676-27.675676zM27.675676 276.756757a27.675676 27.675676 0 1 1-27.675676 27.675675 27.675676 27.675676 0 0 1 27.675676-27.675675zM27.675676 387.459459a27.675676 27.675676 0 1 1-27.675676 27.675676 27.675676 27.675676 0 0 1 27.675676-27.675676zM27.675676 553.513514a27.675676 27.675676 0 1 1-27.675676 27.675675 27.675676 27.675676 0 0 1 27.675676-27.675675zM516.151351 304.432432h-110.702702a55.351351 55.351351 0 0 0-55.351352 55.351352v110.702702a55.351351 55.351351 0 0 0 55.351352 55.351352h110.702702a55.351351 55.351351 0 0 0 55.351352-55.351352v-110.702702a55.351351 55.351351 0 0 0-55.351352-55.351352z m1.937298 140.86919a27.675676 27.675676 0 0 1-27.675676 27.675675h-55.351351a27.675676 27.675676 0 0 1-27.675676-27.675675v-55.351352a27.675676 27.675676 0 0 1 27.675676-27.675675h55.351351a27.675676 27.675676 0 0 1 27.675676 27.675675zM793.184865 304.432432h-110.702703a55.351351 55.351351 0 0 0-55.351351 55.351352v110.702702a55.351351 55.351351 0 0 0 55.351351 55.351352h110.702703a55.351351 55.351351 0 0 0 55.351351-55.351352v-110.702702a55.351351 55.351351 0 0 0-55.351351-55.351352z m1.66054 140.86919a27.675676 27.675676 0 0 1-27.675675 27.675675h-55.351352a27.675676 27.675676 0 0 1-27.675675-27.675675v-55.351352a27.675676 27.675676 0 0 1 27.675675-27.675675h55.351352a27.675676 27.675676 0 0 1 27.675675 27.675675zM516.428108 581.189189h-110.702703a55.351351 55.351351 0 0 0-55.351351 55.351352v110.702702a55.351351 55.351351 0 0 0 55.351351 55.351352h110.702703a55.351351 55.351351 0 0 0 55.351351-55.351352v-110.702702a55.351351 55.351351 0 0 0-55.351351-55.351352z m1.660541 140.869189a27.675676 27.675676 0 0 1-27.675676 27.675676h-55.351351a27.675676 27.675676 0 0 1-27.675676-27.675676v-55.351351a27.675676 27.675676 0 0 1 27.675676-27.675676h55.351351a27.675676 27.675676 0 0 1 27.675676 27.675676zM664.216216 691.891892a27.675676 27.675676 0 0 1 27.675676 27.675676v55.351351a27.675676 27.675676 0 0 1-55.351351 0v-55.351351a27.675676 27.675676 0 0 1 27.675675-27.675676zM747.243243 581.189189a27.675676 27.675676 0 0 1 27.675676 27.675676v166.054054a27.675676 27.675676 0 0 1-55.351351 0v-166.054054a27.675676 27.675676 0 0 1 27.675675-27.675676zM830.27027 581.189189a27.675676 27.675676 0 0 1 27.675676 27.675676v50.923243a27.675676 27.675676 0 0 1-55.351351 0V608.864865a27.675676 27.675676 0 0 1 27.675675-27.675676zM830.27027 747.243243a27.675676 27.675676 0 1 1-27.675675 27.675676 27.675676 27.675676 0 0 1 27.675675-27.675676zM664.216216 581.189189a27.675676 27.675676 0 1 1-27.675675 27.675676 27.675676 27.675676 0 0 1 27.675675-27.675676z" fill="#0461A7" p-id="6656"></path><path d="M442.810811 83.027027h332.108108v55.351351H442.810811z" fill="#0461A7" p-id="6657"></path><path d="M55.351351 193.72973a55.351351 55.351351 0 0 1 55.351352-55.351352h110.702702V83.027027H110.702703a110.702703 110.702703 0 0 0-110.702703 110.702703v110.702702h55.351351zM1107.027027 83.027027h-110.702703v55.351351h110.702703a55.351351 55.351351 0 0 1 55.351351 55.351352v719.567567a55.351351 55.351351 0 0 1-55.351351 55.351352H110.702703a55.351351 55.351351 0 0 1-55.351352-55.351352V581.189189H0v332.108108a110.702703 110.702703 0 0 0 110.702703 110.702703h996.324324a110.702703 110.702703 0 0 0 110.702703-110.702703V193.72973a110.702703 110.702703 0 0 0-110.702703-110.702703z" fill="#0461A7" p-id="6658"></path></svg>