<?xml version="1.0" standalone="no"?><!DOCTYPE svg PUBLIC "-//W3C//DTD SVG 1.1//EN" "http://www.w3.org/Graphics/SVG/1.1/DTD/svg11.dtd"><svg t="1653622695425" class="icon" viewBox="0 0 1024 1024" version="1.1" xmlns="http://www.w3.org/2000/svg" p-id="4374" xmlns:xlink="http://www.w3.org/1999/xlink" width="200" height="200"><defs><style type="text/css">@font-face { font-family: feedback-iconfont; src: url("//at.alicdn.com/t/font_1031158_u69w8yhxdu.woff2?t=1630033759944") format("woff2"), url("//at.alicdn.com/t/font_1031158_u69w8yhxdu.woff?t=1630033759944") format("woff"), url("//at.alicdn.com/t/font_1031158_u69w8yhxdu.ttf?t=1630033759944") format("truetype"); }
</style></defs><path d="M467.2 164.266667l2.133333 21.333333h-21.333333c2.133333 6.4 2.133333 12.8 2.133333 21.333333 0 44.8-36.266667 81.066667-81.066666 81.066667s-81.066667-36.266667-81.066667-81.066667c0-6.4 2.133333-14.933333 2.133333-21.333333h-21.333333l4.266667-21.333333H256c-4.266667 12.8-6.4 27.733333-6.4 40.533333 0 68.266667 55.466667 123.733333 123.733333 123.733333s123.733333-55.466667 123.733334-123.733333c0-14.933333-2.133333-27.733333-6.4-40.533333h-23.466667z" fill="#00beeb" p-id="4375" data-spm-anchor-id="a313x.7781069.0.i51" class="selected"></path><path d="M268.8 164.266667c10.666667 0 21.333333 8.533333 21.333333 21.333333s-8.533333 21.333333-21.333333 21.333333c-10.666667 0-21.333333-8.533333-21.333333-21.333333 0-10.666667 6.4-19.2 17.066666-21.333333h4.266667z m198.4 0c10.666667 0 21.333333 8.533333 21.333333 21.333333s-8.533333 21.333333-21.333333 21.333333-21.333333-8.533333-21.333333-21.333333c0-10.666667 6.4-19.2 17.066666-21.333333h4.266667z m-198.4 697.6l-4.266667-21.333334h23.466667c-2.133333-6.4-2.133333-12.8-2.133333-21.333333 0-44.8 36.266667-81.066667 81.066666-81.066667s81.066667 36.266667 81.066667 81.066667c0 6.4-2.133333 14.933333-2.133333 21.333333H469.333333l-4.266666 21.333334h17.066666c4.266667-12.8 6.4-27.733333 6.4-40.533334 0-68.266667-55.466667-123.733333-123.733333-123.733333s-123.733333 55.466667-123.733333 123.733333c0 14.933333 2.133333 27.733333 6.4 40.533334h21.333333z m98.133333-514.133334c10.666667 0 19.2 6.4 21.333334 17.066667v42.666667c0 10.666667-8.533333 21.333333-19.2 21.333333s-21.333333-8.533333-21.333334-19.2v-42.666667c0-10.666667 6.4-19.2 17.066667-21.333333l2.133333 2.133333z m0 123.733334c10.666667 0 19.2 6.4 21.333334 17.066666V533.333333c0 10.666667-8.533333 21.333333-19.2 21.333334s-21.333333-8.533333-21.333334-19.2v-42.666667c0-10.666667 6.4-19.2 17.066667-21.333333h2.133333z m0 123.733333c10.666667 0 19.2 6.4 21.333334 17.066667v42.666666c0 10.666667-10.666667 19.2-21.333334 19.2s-19.2-8.533333-19.2-19.2v-40.533333c0-10.666667 6.4-19.2 17.066667-21.333333l2.133333 2.133333zM59.733333 328.533333h40.533334V533.333333H59.733333v-204.8z" fill="#00beeb" p-id="4376" data-spm-anchor-id="a313x.7781069.0.i48" class="selected"></path><path d="M81.066667 307.2c10.666667 0 21.333333 8.533333 21.333333 21.333333 0 10.666667-8.533333 21.333333-21.333333 21.333334-10.666667 0-21.333333-8.533333-21.333334-21.333334 0-10.666667 6.4-19.2 17.066667-21.333333h4.266667z m0 83.2c10.666667 0 21.333333 8.533333 21.333333 21.333333s-8.533333 21.333333-21.333333 21.333334-21.333333-8.533333-21.333334-21.333334c0-10.666667 6.4-19.2 17.066667-21.333333h4.266667z m0 121.6c10.666667 0 21.333333 8.533333 21.333333 21.333333 0 10.666667-8.533333 21.333333-21.333333 21.333334-10.666667 0-21.333333-8.533333-21.333334-21.333334 0-10.666667 6.4-19.2 17.066667-21.333333h4.266667z m384 307.2c10.666667 0 21.333333 8.533333 21.333333 21.333333s-8.533333 21.333333-21.333333 21.333334-21.333333-8.533333-21.333334-21.333334 10.666667-21.333333 21.333334-21.333333z m-196.266667 0c10.666667 0 21.333333 8.533333 21.333333 21.333333s-8.533333 21.333333-21.333333 21.333334-21.333333-8.533333-21.333333-21.333334c0-10.666667 6.4-19.2 17.066666-21.333333h4.266667z" fill="#00beeb" p-id="4377" data-spm-anchor-id="a313x.7781069.0.i50" class="selected"></path><path d="M268.8 819.2h-85.333333c-44.8 0-81.066667-36.266667-81.066667-81.066667V288c0-44.8 36.266667-81.066667 81.066667-81.066667h85.333333v-42.666666h-128c-44.8 0-81.066667 36.266667-81.066667 81.066666v533.333334c0 44.8 36.266667 81.066667 81.066667 81.066666h128v-40.533333zM881.066667 164.266667H467.2v40.533333h371.2c44.8 0 81.066667 36.266667 81.066667 81.066667v450.133333c0 44.8-36.266667 81.066667-81.066667 81.066667H465.066667v40.533333h413.866666c44.8 0 81.066667-36.266667 81.066667-81.066667v-533.333333c2.133333-42.666667-34.133333-78.933333-78.933333-78.933333z" fill="#00beeb" p-id="4378" data-spm-anchor-id="a313x.7781069.0.i47" class="selected"></path></svg>