<?xml version="1.0" standalone="no"?><!DOCTYPE svg PUBLIC "-//W3C//DTD SVG 1.1//EN" "http://www.w3.org/Graphics/SVG/1.1/DTD/svg11.dtd"><svg t="1653544870092" class="icon" viewBox="0 0 1024 1024" version="1.1" xmlns="http://www.w3.org/2000/svg" p-id="20071" xmlns:xlink="http://www.w3.org/1999/xlink" width="200" height="200"><defs><style type="text/css">@font-face { font-family: feedback-iconfont; src: url("//at.alicdn.com/t/font_1031158_u69w8yhxdu.woff2?t=1630033759944") format("woff2"), url("//at.alicdn.com/t/font_1031158_u69w8yhxdu.woff?t=1630033759944") format("woff"), url("//at.alicdn.com/t/font_1031158_u69w8yhxdu.ttf?t=1630033759944") format("truetype"); }
</style></defs><path d="M233.56 571.58L670 135.1a20.58 20.58 0 0 1 29.1-0.12l0.12 0.12 174.52 174.5a20.62 20.62 0 0 1 0.12 29.12l-0.12 0.12-436.44 436.46a20.56 20.56 0 0 1-29.1 0.12l-0.12-0.12-174.52-174.5a20.56 20.56 0 0 1 0-29.1z" fill="#DEDEDE" p-id="20072"></path><path d="M245.5 568.7h173.08a20.58 20.58 0 0 1 20.6 20.54V763.38a20.6 20.6 0 0 1-19.54 21.58h-174.14a20.58 20.58 0 0 1-21.6-19.5 18.4 18.4 0 0 1 0-2.1v-173.06a20.58 20.58 0 0 1 19.5-21.6 18.4 18.4 0 0 1 2.1 0z" fill="#DEDEDE" p-id="20073"></path><path d="M152.9 924.5h658.52a20.58 20.58 0 1 1 0 41.16H152.9a20.58 20.58 0 0 1 0-41.16z m222-142.6l-5.14-5.36a20.6 20.6 0 0 1-15.44 7.42H189.74a20.58 20.58 0 0 1-20.58-20.58v-164.64a20.62 20.62 0 0 1 7.4-15.44l-5.34-5.14 41.16-41.16H169.16A41.16 41.16 0 0 0 128 578.16V784a41.14 41.14 0 0 0 41.16 41.14h205.78A41.14 41.14 0 0 0 416.1 784v-43.26z" fill="#fbb670" p-id="20074" data-spm-anchor-id="a313x.7781069.0.i44" class="selected"></path><path d="M883.24 273.8L679.52 70a41.16 41.16 0 0 0-58.22 0L358.68 331.84l29.02 29.22L634.66 114.1a20.56 20.56 0 0 1 29.1 0h0.12l174.5 174.52a20.56 20.56 0 0 1 0.12 29.1l-0.12 0.12L402 754.32a20.58 20.58 0 0 1-29.02 0l-174.8-174.72a20.58 20.58 0 0 1 0-29.02l43.62-43.62-27.16-29.42-58.24 58a41.16 41.16 0 0 0 0 58.2l203.72 203.8a41.18 41.18 0 0 0 58.22 0L884 331.84a41.14 41.14 0 0 0-0.76-58.04z" fill="#fbb670" p-id="20075" data-spm-anchor-id="a313x.7781069.0.i42" class="selected"></path><path d="M358.68 331.84a20.6 20.6 0 0 1 29.14 29.1l-0.12 0.12A20.6 20.6 0 0 1 358.56 332z m-144 145.7a20.58 20.58 0 1 1 0 29.18 20.58 20.58 0 0 1 0-29.18z m86.42-88a20.58 20.58 0 1 1-0.12 0.12z" fill="#fbb670" p-id="20076" data-spm-anchor-id="a313x.7781069.0.i43" class="selected"></path></svg>