<?xml version="1.0" standalone="no"?><!DOCTYPE svg PUBLIC "-//W3C//DTD SVG 1.1//EN" "http://www.w3.org/Graphics/SVG/1.1/DTD/svg11.dtd"><svg t="1566870062308" class="icon" viewBox="0 0 1024 1024" version="1.1" xmlns="http://www.w3.org/2000/svg" p-id="5737" xmlns:xlink="http://www.w3.org/1999/xlink" width="128" height="128"><defs><style type="text/css"></style></defs><path d="M337.454545 372.363636h488.727273a93.090909 93.090909 0 0 1 93.090909 93.090909v418.909091a93.090909 93.090909 0 0 1-93.090909 93.090909H337.454545a93.090909 93.090909 0 0 1-93.090909-93.090909V465.454545a93.090909 93.090909 0 0 1 93.090909-93.090909z" fill="#DEDEDE" p-id="5738"></path><path d="M570.181818 0h23.272727a162.909091 162.909091 0 0 1 162.909091 162.909091v279.272727H407.272727V162.909091a162.909091 162.909091 0 0 1 162.909091-162.909091z" fill="#DEDEDE" p-id="5739"></path><path d="M623.941818 651.636364a162.909091 162.909091 0 0 1-291.374545 4.887272L290.909091 674.909091a209.454545 209.454545 0 0 0 376.32-3.723636z" fill="#ff0000" p-id="5740"></path><path d="M310.690909 642.56a23.272727 23.272727 0 1 1-23.272727 23.272727 23.272727 23.272727 0 0 1 23.272727-23.272727zM645.585455 638.370909a23.272727 23.272727 0 0 1 0 46.545455 23.272727 23.272727 0 0 1 0-46.545455zM442.647273 746.356364a23.272727 23.272727 0 0 1 16.290909 28.392727l-11.869091 44.916364a23.272727 23.272727 0 0 1-28.625455 16.523636 23.272727 23.272727 0 0 1-16.290909-28.392727l11.869091-44.916364a23.272727 23.272727 0 0 1 28.625455-16.523636zM511.534545 746.356364a23.272727 23.272727 0 0 1 28.625455 16.523636l11.869091 44.916364a23.272727 23.272727 0 0 1-16.290909 28.392727 23.272727 23.272727 0 0 1-28.625455-16.523636l-11.869091-44.916364a23.272727 23.272727 0 0 1 16.290909-28.392727zM613.701818 709.818182a23.272727 23.272727 0 0 1 31.650909 8.610909l23.272728 40.261818a23.272727 23.272727 0 0 1-40.261819 23.272727l-23.272727-40.261818a23.272727 23.272727 0 0 1 8.610909-31.883636zM340.48 709.818182a23.272727 23.272727 0 0 1 8.610909 31.883636l-23.272727 40.261818a23.272727 23.272727 0 1 1-40.261818-23.272727l23.272727-40.261818a23.272727 23.272727 0 0 1 31.650909-8.610909z" fill="#ff0000" p-id="5741"></path><path d="M756.363636 418.909091H197.818182a93.090909 93.090909 0 0 0-93.090909 93.090909v418.909091a93.090909 93.090909 0 0 0 93.090909 93.090909h558.545454a93.090909 93.090909 0 0 0 93.090909-93.090909V512a93.090909 93.090909 0 0 0-93.090909-93.090909z m46.545455 512a46.545455 46.545455 0 0 1-46.545455 46.545454H197.818182a46.545455 46.545455 0 0 1-46.545455-46.545454V512a46.545455 46.545455 0 0 1 46.545455-46.545455h558.545454a46.545455 46.545455 0 0 1 46.545455 46.545455z" fill="#ff0000" p-id="5742"></path><path d="M267.636364 279.272727h46.545454v139.636364H267.636364z" fill="#ff0000" p-id="5743"></path><path d="M477.090909 0a208.058182 208.058182 0 0 0-128.930909 44.683636l20.014545 40.029091 3.723637-3.723636c2.327273 2.327273 3.723636 0 6.749091-1.163636A162.909091 162.909091 0 0 1 640 209.454545v209.454546h46.545455V209.454545a209.454545 209.454545 0 0 0-209.454546-209.454545z" fill="#ff0000" p-id="5744"></path><path d="M360.727273 40.494545a23.272727 23.272727 0 0 1 0 46.545455 23.272727 23.272727 0 0 1 0-46.545455zM290.909091 256a23.272727 23.272727 0 1 1-23.272727 23.272727 23.272727 23.272727 0 0 1 23.272727-23.272727zM314.181818 116.363636a23.272727 23.272727 0 1 1-23.272727 23.272728 23.272727 23.272727 0 0 1 23.272727-23.272728z" fill="#ff0000" p-id="5745"></path></svg>