<?xml version="1.0" standalone="no"?><!DOCTYPE svg PUBLIC "-//W3C//DTD SVG 1.1//EN" "http://www.w3.org/Graphics/SVG/1.1/DTD/svg11.dtd"><svg t="1566870043673" class="icon" viewBox="0 0 1024 1024" version="1.1" xmlns="http://www.w3.org/2000/svg" p-id="4957" xmlns:xlink="http://www.w3.org/1999/xlink" width="128" height="128"><defs><style type="text/css"></style></defs><path d="M198.115678 579.438676L690.499265 87.05509a23.214691 23.214691 0 0 1 32.96486 0l196.860576 196.860575a23.214691 23.214691 0 0 1 0 32.964861L427.941114 809.264112a23.214691 23.214691 0 0 1-32.96486 0l-196.860576-196.860575a23.214691 23.214691 0 0 1 0-32.964861z" fill="rgba(179,43,55,0.2)" p-id="4958"></path><path d="M211.580199 576.188619h195.235547a23.214691 23.214691 0 0 1 23.214691 24.375425v195.235548a23.214691 23.214691 0 0 1-23.214691 24.375425H211.580199a23.214691 23.214691 0 0 1-24.375425-24.375425v-195.235548a23.214691 23.214691 0 0 1 24.375425-24.375425z" fill="rgba(179,43,55,0.2)" p-id="4959"></path><path d="M107.114091 977.570619h742.870098a23.214691 23.214691 0 0 1 0 46.429381h-742.870098a23.214691 23.214691 0 0 1 0-46.429381zM357.600602 816.692813l-5.803673-6.035819a23.214691 23.214691 0 0 1-17.411017 8.357288H148.668387a23.214691 23.214691 0 0 1-23.21469-23.21469v-185.717524a23.214691 23.214691 0 0 1 8.357288-17.411018l-6.035819-5.803673 46.429381-46.429381H125.453697a46.429381 46.429381 0 0 0-46.429381 46.429381v232.146905a46.429381 46.429381 0 0 0 46.429381 46.429382h232.146905a46.429381 46.429381 0 0 0 46.429381-46.429382v-48.75085z" fill="#a22b12" p-id="4960"></path><path d="M931.003459 243.522104L701.178022 13.696667a46.429381 46.429381 0 0 0-65.697574 0L339.260997 308.987531l32.732713 32.964861 278.576287-278.576287a23.214691 23.214691 0 0 1 32.96486 0l196.860576 196.860576a23.214691 23.214691 0 0 1 0 32.964861L388.011847 785.585128a23.214691 23.214691 0 0 1-32.732714 0l-197.092723-197.092723a23.214691 23.214691 0 0 1 0-32.732713l49.215144-49.215144-30.643391-33.197008-65.697574 65.465428a46.429381 46.429381 0 0 0 0 65.697574l229.825436 229.825436a46.429381 46.429381 0 0 0 65.697574 0l525.348447-525.348447a46.429381 46.429381 0 0 0-0.928587-65.465427z" fill="#a22b12" p-id="4961"></path><path d="M339.260997 308.987531a23.214691 23.214691 0 0 1 32.732713 0 23.214691 23.214691 0 0 1 0 32.964861 23.214691 23.214691 0 0 1-32.732713 0 23.214691 23.214691 0 0 1 0-32.964861zM176.758163 473.34754a23.214691 23.214691 0 0 1 32.732713 0 23.214691 23.214691 0 1 1-32.732713 0zM274.259863 373.988665a23.214691 23.214691 0 1 1 0 32.96486 23.214691 23.214691 0 0 1 0-32.96486z" fill="#a22b12" p-id="4962"></path></svg>