<?xml version="1.0" standalone="no"?><!DOCTYPE svg PUBLIC "-//W3C//DTD SVG 1.1//EN" "http://www.w3.org/Graphics/SVG/1.1/DTD/svg11.dtd"><svg t="1566870035977" class="icon" viewBox="0 0 1399 1024" version="1.1" xmlns="http://www.w3.org/2000/svg" p-id="4697" xmlns:xlink="http://www.w3.org/1999/xlink" width="174.875" height="128"><defs><style type="text/css"></style></defs><path d="M1331.2 68.266667H238.933333a68.266667 68.266667 0 0 0-68.266666 68.266666v546.133334a68.266667 68.266667 0 0 0 68.266666 68.266666h1092.266667a68.266667 68.266667 0 0 0 68.266667-68.266666V136.533333a68.266667 68.266667 0 0 0-68.266667-68.266666z m-294.570667 234.837333l-192.170666 192.170667a34.133333 34.133333 0 0 1-24.234667 9.898666 34.133333 34.133333 0 0 1-24.234667-9.898666l-71.68-71.68-170.666666 170.666666a34.133333 34.133333 0 0 1-48.469334 0 34.133333 34.133333 0 0 1 0-48.128l193.194667-193.194666a34.133333 34.133333 0 0 1 24.576-9.898667 34.133333 34.133333 0 0 1 24.234667 9.898667l72.362666 72.362666 168.618667-168.96a34.269867 34.269867 0 0 1 48.469333 48.469334z" fill="#DEDEDE" p-id="4698"></path><path d="M682.666667 750.933333a34.133333 34.133333 0 0 1 34.133333 34.133334v204.8a34.133333 34.133333 0 0 1-68.266667 0v-204.8a34.133333 34.133333 0 0 1 34.133334-34.133334z" fill="#f28053" p-id="4699"></path><path d="M341.333333 955.733333h682.666667a34.133333 34.133333 0 0 1 0 68.266667H341.333333a34.133333 34.133333 0 0 1 0-68.266667zM409.6 546.133333l193.194667-193.194666a34.133333 34.133333 0 0 1 48.128 0 34.133333 34.133333 0 0 1 0 48.469333l-193.194667 192.853333A34.133333 34.133333 0 0 1 409.6 546.133333zM698.368 447.829333l193.194667-193.194666a34.269867 34.269867 0 1 1 48.469333 48.469333l-193.194667 193.194667a34.269867 34.269867 0 0 1-48.469333-48.469334z" fill="#f28053" p-id="4700"></path><path d="M650.581333 351.232l96.597334 96.597333a34.269867 34.269867 0 0 1-48.469334 48.469334l-96.597333-96.597334a34.269867 34.269867 0 0 1 48.469333-48.469333z" fill="#f28053" p-id="4701"></path><path d="M1228.8 0H136.533333a136.533333 136.533333 0 0 0-136.533333 136.533333v68.266667h68.266667V136.533333a68.266667 68.266667 0 0 1 68.266666-68.266666h1092.266667a68.266667 68.266667 0 0 1 68.266667 68.266666v546.133334a68.266667 68.266667 0 0 1-68.266667 68.266666H136.533333a68.266667 68.266667 0 0 1-68.266666-68.266666v-136.533334H0v136.533334a136.533333 136.533333 0 0 0 136.533333 136.533333h1092.266667a136.533333 136.533333 0 0 0 136.533333-136.533333V136.533333a136.533333 136.533333 0 0 0-136.533333-136.533333z" fill="#f28053" p-id="4702"></path><path d="M34.133333 170.666667a34.133333 34.133333 0 1 1-34.133333 34.133333 34.133333 34.133333 0 0 1 34.133333-34.133333zM34.133333 307.2a34.133333 34.133333 0 1 1-34.133333 34.133333 34.133333 34.133333 0 0 1 34.133333-34.133333zM34.133333 512a34.133333 34.133333 0 1 1-34.133333 34.133333 34.133333 34.133333 0 0 1 34.133333-34.133333z" fill="#f28053" p-id="4703"></path></svg>