<?xml version="1.0" standalone="no"?><!DOCTYPE svg PUBLIC "-//W3C//DTD SVG 1.1//EN" "http://www.w3.org/Graphics/SVG/1.1/DTD/svg11.dtd"><svg t="1653897496223" class="icon" viewBox="0 0 1024 1024" version="1.1" xmlns="http://www.w3.org/2000/svg" p-id="2836" xmlns:xlink="http://www.w3.org/1999/xlink" width="200" height="200"><defs><style type="text/css">@font-face { font-family: feedback-iconfont; src: url("//at.alicdn.com/t/font_1031158_u69w8yhxdu.woff2?t=1630033759944") format("woff2"), url("//at.alicdn.com/t/font_1031158_u69w8yhxdu.woff?t=1630033759944") format("woff"), url("//at.alicdn.com/t/font_1031158_u69w8yhxdu.ttf?t=1630033759944") format("truetype"); }
</style></defs><path d="M679.38 345.02l-47.14 141.42 70.72 141.44h-141.44L498.1 712l-35.12-103.72-137.18-47.1 117.86-94.3 8.48-147.32 77.32 48.78 32 0.24" fill="#DEDEDE" p-id="2837"></path><path d="M620.44 97.5l-14.6 47.14 26.4 40-49.04 3.14-31.2 39.36-15.54-45.72-45.66-15.56 39.6-31.12 2.84-49.02 39.82 26.62 47.16-14.84m330.24 353.58l-14.6 47.16 26.4 40-49.04 3.08-31.12 39.36-15.56-45.74-45.72-15.54 39.6-31.12 2.82-49.04L903.08 466l47.16-14.86M907.34 164.2l-10 31.6 17.68 26.64-32.76 1.88-20.74 26.4-10.38-30.4-30.32-10.32 26.4-20.74 1.88-32.76 26.64 17.66 31.6-10M67.66 900L267.8 699.78a23.58 23.58 0 0 1 33.24 33.24L100.9 934.34a23.58 23.58 0 0 1-33.24-33.24z m197.32-386.84a18.4 18.4 0 1 1-18.4 18.4 18.4 18.4 0 0 1 18.4-18.48z m84.38-68.6a18.4 18.4 0 1 1-18.38 18.4 18.38 18.38 0 0 1 18.38-18.4z m12.5-68.36a16 16 0 0 1 16.26 15.8v0.24a16.26 16.26 0 0 1-16.26 16.26 16 16 0 0 1-16-16v-0.24a15.82 15.82 0 0 1 15.56-16z" fill="#f7e1af" p-id="2838" data-spm-anchor-id="a313x.7781069.0.i20" class="selected"></path><path d="M644 487.16l59.4-190-190 59.16-159.58-106-8 142h32.3l4-71.2 119.76 79.68 142.62-44.54L600 498.7l79.68 119.76-147.34 8.48-93.34 118.58-46.68-137.2-137.18-46.68 17.44-13.66-20-30.18-68 53.52 182.94 62 62 183.16 124.22-158.16 196.36-11.32z" fill="#f7e1af" p-id="2839" data-spm-anchor-id="a313x.7781069.0.i21" class="selected"></path></svg>