<?xml version="1.0" standalone="no"?><!DOCTYPE svg PUBLIC "-//W3C//DTD SVG 1.1//EN" "http://www.w3.org/Graphics/SVG/1.1/DTD/svg11.dtd"><svg t="1653622632527" class="icon" viewBox="0 0 1024 1024" version="1.1" xmlns="http://www.w3.org/2000/svg" p-id="3112" xmlns:xlink="http://www.w3.org/1999/xlink" width="200" height="200"><defs><style type="text/css">@font-face { font-family: feedback-iconfont; src: url("//at.alicdn.com/t/font_1031158_u69w8yhxdu.woff2?t=1630033759944") format("woff2"), url("//at.alicdn.com/t/font_1031158_u69w8yhxdu.woff?t=1630033759944") format("woff"), url("//at.alicdn.com/t/font_1031158_u69w8yhxdu.ttf?t=1630033759944") format("truetype"); }
</style></defs><path d="M923.46 222.4H213a44.4 44.4 0 0 0-44.4 44.4V622a44.4 44.4 0 0 0 44.4 44.4h710.46a44.4 44.4 0 0 0 44.4-44.4V266.8a44.4 44.4 0 0 0-44.4-44.4z m-191.6 152.76l-125 125a22.5 22.5 0 0 1-31.52 0l-46.62-46.64-111.02 111.02a22.2 22.2 0 0 1-31.4 0.12l-0.12-0.12a22.18 22.18 0 0 1 0-31.3l125.66-125.68a22.82 22.82 0 0 1 31.74 0l47.08 47.08 109.68-109.9a22.28 22.28 0 0 1 31.52 31.52z" fill="#DEDEDE" p-id="3113"></path><path d="M501.62 666.44a22.2 22.2 0 0 1 22.2 22.2v133.22a22.2 22.2 0 0 1-44.4 0v-133.22a22.2 22.2 0 0 1 22.2-22.2z" fill="#00beeb" p-id="3114" data-spm-anchor-id="a313x.7781069.0.i28" class="selected"></path><path d="M279.6 799.66h444a22.2 22.2 0 0 1 0 44.4h-444a22.2 22.2 0 0 1 0-44.4zM324 533.24l125.68-125.68a22.22 22.22 0 0 1 31.42 31.4l-0.12 0.14-125.66 125.44A22.2 22.2 0 0 1 324 533.24z m187.84-64l125.66-125.68a22.3 22.3 0 1 1 31.52 31.54l-125.66 125.66a22.28 22.28 0 0 1-31.52-31.52z" fill="#00beeb" p-id="3115" data-spm-anchor-id="a313x.7781069.0.i27" class="selected"></path><path d="M480.76 406.46l62.82 62.84A22.28 22.28 0 0 1 512 500.82L449.22 438a22.3 22.3 0 0 1 31.54-31.52z" fill="#00beeb" p-id="3116" data-spm-anchor-id="a313x.7781069.0.i24" class="selected"></path><path d="M856.86 178H146.4a88.8 88.8 0 0 0-88.82 88.8v44.42H102V266.8a44.4 44.4 0 0 1 44.4-44.4h710.46a44.4 44.4 0 0 1 44.4 44.4V622a44.4 44.4 0 0 1-44.4 44.4H146.4A44.4 44.4 0 0 1 102 622v-88.8H57.58V622a88.8 88.8 0 0 0 88.82 88.8h710.46a88.8 88.8 0 0 0 88.8-88.8V266.8a88.8 88.8 0 0 0-88.8-88.8z" fill="#00beeb" p-id="3117" data-spm-anchor-id="a313x.7781069.0.i23" class="selected"></path><path d="M79.78 289.02a22.2 22.2 0 1 1-22.2 22.2 22.2 22.2 0 0 1 22.2-22.2z m0 88.8A22.2 22.2 0 1 1 57.58 400a22.2 22.2 0 0 1 22.2-22.18z m0 133.22a22.2 22.2 0 1 1-22.2 22.2 22.2 22.2 0 0 1 22.2-22.2z" fill="#00beeb" p-id="3118" data-spm-anchor-id="a313x.7781069.0.i25" class="selected"></path></svg>