<?xml version="1.0" standalone="no"?><!DOCTYPE svg PUBLIC "-//W3C//DTD SVG 1.1//EN" "http://www.w3.org/Graphics/SVG/1.1/DTD/svg11.dtd"><svg t="1653622677353" class="icon" viewBox="0 0 1024 1024" version="1.1" xmlns="http://www.w3.org/2000/svg" p-id="4034" xmlns:xlink="http://www.w3.org/1999/xlink" width="200" height="200"><defs><style type="text/css">@font-face { font-family: feedback-iconfont; src: url("//at.alicdn.com/t/font_1031158_u69w8yhxdu.woff2?t=1630033759944") format("woff2"), url("//at.alicdn.com/t/font_1031158_u69w8yhxdu.woff?t=1630033759944") format("woff"), url("//at.alicdn.com/t/font_1031158_u69w8yhxdu.ttf?t=1630033759944") format("truetype"); }
</style></defs><path d="M348.12 381.54h459.14A87.46 87.46 0 0 1 894.7 469v393.54A87.46 87.46 0 0 1 807.26 950H348.12a87.46 87.46 0 0 1-87.46-87.46V469a87.46 87.46 0 0 1 87.46-87.46z" fill="#DEDEDE" p-id="4035"></path><path d="M566.74 31.72h21.88a153.04 153.04 0 0 1 153.04 153.06v262.36h-328V184.78A153.04 153.04 0 0 1 566.74 31.72z" fill="#DEDEDE" p-id="4036"></path><path d="M550.94 555.78l-89.56 89.56a12 12 0 1 0 16.96 16.96L568 572.74a12 12 0 1 0-16.98-16.96z" fill="#00beeb" p-id="4037" data-spm-anchor-id="a313x.7781069.0.i44" class="selected"></path><path d="M370.24 555.3a12.34 12.34 0 0 0 0.48 17.44l89.56 89.56a12 12 0 1 0 16.98-16.96l-89.58-89.56a12.34 12.34 0 0 0-17.44-0.48z m9.24 131.26h177.78a12 12 0 0 1 0 24H379.48a12 12 0 0 1 0-24z m0 65.6h177.78a12 12 0 0 1 0 24H379.48a12 12 0 0 1 0-24z" fill="#00beeb" p-id="4038" data-spm-anchor-id="a313x.7781069.0.i42" class="selected"></path><path d="M468.36 690.52a11.6 11.6 0 0 1 12 11.12v177.78a12 12 0 0 1-24 0V701.64a11.6 11.6 0 0 1 12-11.12z" fill="#00beeb" p-id="4039" data-spm-anchor-id="a313x.7781069.0.i41" class="selected"></path><path d="M741.8 423.5h-525a87.74 87.74 0 0 0-87.5 88v396a87.74 87.74 0 0 0 87.5 88h525a87.76 87.76 0 0 0 87.5-88v-396a87.76 87.76 0 0 0-87.5-88z m39.5 480.72a43.22 43.22 0 0 1-43.14 43.28H220.44a43.22 43.22 0 0 1-43.14-43.28V514.78a43.22 43.22 0 0 1 43.14-43.28h517.72a43.22 43.22 0 0 1 43.14 43.28z m-411-837.88a24 24 0 1 1-24 24 24 24 0 0 1 24-24zM303.3 270a24 24 0 1 1-24 24 24 24 0 0 1 24-24zM316 138.78a24 24 0 1 1-24 24 24 24 0 0 1 24-24z" fill="#00beeb" p-id="4040" data-spm-anchor-id="a313x.7781069.0.i40" class="selected"></path><path d="M479.3 28.5a199.12 199.12 0 0 0-123.04 42.32l28 39.4A150.68 150.68 0 0 1 479.4 76.5c84 0 152 68.52 152 153.04v196.78h-304V294h-48v134.42h400v-200A200 200 0 0 0 479.3 28.5z" fill="#00beeb" p-id="4041" data-spm-anchor-id="a313x.7781069.0.i45" class="selected"></path></svg>