<?xml version="1.0" standalone="no"?><!DOCTYPE svg PUBLIC "-//W3C//DTD SVG 1.1//EN" "http://www.w3.org/Graphics/SVG/1.1/DTD/svg11.dtd"><svg t="1566870059406" class="icon" viewBox="0 0 1080 1024" version="1.1" xmlns="http://www.w3.org/2000/svg" p-id="5609" xmlns:xlink="http://www.w3.org/1999/xlink" width="135" height="128"><defs><style type="text/css"></style></defs><path d="M741.429883 310.812832l-56.511424 169.534272 84.767135 169.534272h-169.534271l-76.007866 100.872891-42.101011-124.325132-164.448243-56.511424 141.27856-113.022848 10.172056-176.5982 92.678735 58.489324 38.427769 0.282557" fill="rgba(179,43,55,0.2)" p-id="5610"></path><path d="M670.790603 14.127856l-17.518542 56.511424 31.646398 48.03471-58.771881 3.673243L588.849038 169.534272l-18.64877-54.816081-54.816081-18.64877 47.469596-37.29754 3.390685-58.771881 47.752153 31.928955 56.511424-17.801099M1066.37057 437.963536l-17.518541 56.511424 31.646397 48.03471-58.771881 3.673243L984.429006 593.369952l-18.64877-54.816082-54.816082-18.648769 47.469597-37.29754 3.390685-58.771881 47.752153 31.928954 56.511424-17.801098M1014.662617 94.091521l-11.867399 37.862654 21.191784 31.928955-39.275439 2.260456L959.846536 197.789984l-12.432513-36.449869-36.449869-12.432513 31.646398-24.865026 2.260457-39.27544 31.928954 21.191784 37.862654-11.867399M8.194156 975.952292l239.890995-239.890995a28.255712 28.255712 0 0 1 39.840554 39.840554L48.03471 1017.205631a28.255712 28.255712 0 0 1-39.840554-39.840553zM244.694466 512.276058a22.039455 22.039455 0 1 1-22.039456 22.039456 22.039455 22.039455 0 0 1 22.039456-22.039456zM345.849915 430.051936a22.039455 22.039455 0 1 1-22.039456 22.039456 22.039455 22.039455 0 0 1 22.039456-22.039456zM360.825442 348.110372a19.213884 19.213884 0 0 1 19.496441 19.213884 19.496441 19.496441 0 0 1-19.496441 19.496441 19.213884 19.213884 0 0 1-19.213884-19.496441 18.931327 18.931327 0 0 1 19.213884-19.213884z" fill="#a22b12" p-id="5611"></path><path d="M699.046315 481.194775l71.204394-227.741038-227.741039 70.921837-191.29117-127.150704-9.606942 170.099386h38.710325l4.803471-85.33225 143.539017 95.504306 170.947058-53.403296-53.403296 170.947058 95.504307 143.539017-176.5982 10.172056-111.89262 142.126231-55.946309-164.448243-164.448244-55.94631 20.909227-16.388313-24.017356-36.167311-81.37645 64.140466 219.264325 74.312522L441.919335 875.927072l148.907603-189.595828 235.37008-13.562742-127.150703-191.573727z" fill="#a22b12" p-id="5612"></path></svg>