<?xml version="1.0" standalone="no"?><!DOCTYPE svg PUBLIC "-//W3C//DTD SVG 1.1//EN" "http://www.w3.org/Graphics/SVG/1.1/DTD/svg11.dtd"><svg t="1597046799580" class="icon" viewBox="0 0 1024 1024" version="1.1" xmlns="http://www.w3.org/2000/svg" p-id="11132" xmlns:xlink="http://www.w3.org/1999/xlink" width="128" height="128"><defs><style type="text/css"></style></defs><path d="M781.4 487.8l28.2 57.2-72.8 323.4s-286.6 34-344.2 34c-2 0-3.8-0.2-7.2-0.6-0.2-4.2-0.8-8.2-0.8-12.4 0-24 0.4-372.2 0.4-391.6 0-8.6 2.2-11.8 11.2-13.2 75.6-12.2 138.4-81.6 144.4-158 1.6-21 1.8-41.8 10.6-61.8 21.6-48.4 24.2 219.6 23.8 223h206.4z" fill="#DEDEDE" p-id="11133"></path><path d="M522.2 269.2c7.6 0 15.4 2.8 20.4 7.6 7.2 6.8 11.4 15.2 13.6 27.2 8.8 49.2 7 94.6-5.4 138.8-1.6 5.6-1.8 10-2 12.6 0 0.4 0 1-0.2 1.8l-5.4 53h135.4c28.8 0 51.2 0 72 0.2 7.4 0 14 1 19.2 2.6 12.4 4 21.8 21 19 34.2-8.8 41.8-18.2 84.4-27.2 125.6-10.2 46.2-20.6 93.8-30.4 141-4.4 21-8 29.4-14.8 34.2-7.6 5.4-10.4 6.2-11.4 6.2h-368v-71.6c0.2-84.4 0.2-171.4 0.2-257.6 83.8-26.6 148.6-105.6 155.4-194.8 0.2-3.2 0.4-6.2 0.6-9.4 1-14.6 1.8-27.2 6-36.6 4.6-9.8 12.4-15 23-15m0-48c-26.6 0-53.4 13.6-66.8 43.6-9 20-9 41-10.6 61.8-5.8 76.4-68.8 145.8-144.4 158-9.2 1.4-11.2 4.6-11.2 13.2 0 130.6-0.2 261-0.4 391.6 0 4 0.4 8.2 0.8 12.4 3.4 0.2 5.2 0.6 7.2 0.6h408c15.4 0 27.6-6.8 39.6-15.4 21.6-15.6 28.4-38.4 33.6-63.2 18.8-89 38.8-177.6 57.8-266.6 8-37.4-15.6-78.4-51.2-89.8-10.6-3.4-22.2-4.8-33.4-5-24.2-0.2-48.2-0.2-72.6-0.2h-82.2c0.4-3.6 0.2-5 0.8-6.6 14.8-52.8 16-106.2 6.4-160-3.8-21-12.4-39.4-28.2-54-14.2-13.2-33.6-20.4-53.2-20.4zM172.4 535.8c9.2 0 18.8 0 28.4 0.2v318.4H145.2c-0.2-102.6-0.2-209.6 0-318.4 9 0 18-0.2 27.2-0.2m0-48c-14.2 0-28.4 0.2-42.6 0.4-20.4 0.4-32.6 13.2-32.6 33.6-0.2 115.6-0.2 231.2 0 346.8 0 21.2 12.8 33.2 33.8 33.4 12 0 24 0.2 36.2 0.2h43.6c26.8 0 38.2-11.6 38.2-38.8v-168.8c0-57 0.2-114 0-171 0-22.2-11.8-35-33.4-35.4-14.6-0.2-28.8-0.4-43.2-0.4z" fill="#ff0000" p-id="11134"></path><path d="M849.6 365.6c-15.6-6.4-31.8-13.2-48-19.4-4.8-1.8-10.4-2.8-16-2.8-5.8 0-11.4 1-16.4 3-16.4 6.2-32.8 13-48.6 19.6-1.6 0.6-3 1.2-4.6 1.8 0.2-1.6 0.2-3 0.4-4.6 1.2-15.6 2.6-31.8 4.2-47.6 1-10 0.8-25-12.2-39.2-11.6-12.8-23.2-26.4-34.2-39.8-0.2-0.2-0.4-0.6-0.6-0.8 18.8-4.6 36.2-8.8 53.2-12.6 13.6-3.2 23.6-10.4 30.6-22.2 9-15.6 18.8-31.2 28.2-46.6 1.6 2.6 3.2 5.2 4.8 8 8.2 13.2 16.6 27 25.4 40.4 6 9.2 16.4 16.8 27.2 19.6 14.4 3.8 28.8 7.4 42.8 10.6 3.8 1 7.8 1.8 11.8 2.8-1.6 2-3.4 4-5 6-10.2 12-20.8 24.2-30.8 37-7.2 9-11.4 21.6-10.8 32.6 0.8 18.8 2.4 37.4 4 55.6v0.8c-2-0.8-3.8-1.4-5.4-2.2z" fill="#DEDEDE" p-id="11135"></path><path d="M785.4 200.2c3.4 5.2 6.6 10.4 10.2 15.8 9.4 14.2 24.6 25.2 41 29.6 5.8 1.6 11.6 3 17.4 4.6-3.8 4.4-7.4 9-11.2 13.6-10.8 13.6-16.8 31.8-16 48.6 0.2 6 0.6 12.2 1 18.2-5.8-2.4-11.8-4.6-17.6-7-7.6-3-15.8-4.4-24.4-4.4-8.6 0-17.2 1.6-25 4.4-5.8 2.2-11.8 4.6-17.6 6.8l1.2-12.6c2.2-22.4-4-42-18.4-57.8-3-3.4-6-6.6-9-10 5-1.2 10-2.2 14.8-3.4 20.2-4.6 35.6-15.8 46-33.6 2.6-4 5-8.4 7.6-12.8m-0.2-81c-4.2 0-8.2 3-12 9.2-12.4 20-25 40.2-36.8 60.6-3.6 6.2-8.4 9.4-15.2 11-23 5.2-46 10.8-69 16.4-14.8 3.6-17.2 11.6-7.4 23.2 15 17.8 29.8 35.8 45.6 53 5.8 6.4 7 12.8 6.2 20.8-2.2 22.2-3.8 44.2-5.6 66.4-0.6 12.4 2.4 18.2 10 18.2 3.2 0 7.2-1 12.2-3 21.6-8.8 43-17.8 64.6-26.2 2.4-0.8 5.2-1.4 8-1.4 2.6 0 5.2 0.4 7.4 1.2 21.8 8.2 43.2 17.4 64.6 26.2 4.8 2 8.8 3 12 3 8 0 11.2-6.2 10.2-19-1.8-22.8-4-45.6-5.2-68.6-0.2-5.4 2.2-12.2 5.6-16.6 14.6-18.2 30-35.6 44.8-53.6 10-12 7.6-20.2-7.4-24-23-5.8-46-10.8-68.8-16.8-5-1.4-10.4-5.4-13.4-9.6-13.2-20-25.4-40.6-38.2-61-3.8-6.2-8-9.4-12.2-9.4z" fill="#ff0000" p-id="11136"></path></svg>