<?xml version="1.0" standalone="no"?><!DOCTYPE svg PUBLIC "-//W3C//DTD SVG 1.1//EN" "http://www.w3.org/Graphics/SVG/1.1/DTD/svg11.dtd"><svg t="1570776146256" class="icon" viewBox="0 0 1024 1024" version="1.1" xmlns="http://www.w3.org/2000/svg" p-id="3752" xmlns:xlink="http://www.w3.org/1999/xlink" width="128" height="128"><defs><style type="text/css"></style></defs><path d="M358.44 503.54l-33.6 147.36 145.78-36.1 408-408-112.46-111-407.72 407.7z m-41.12-26.64L726 68.32a57.7 57.7 0 0 1 81.64 0l98 98a57.7 57.7 0 0 1 0 81.68L496.98 656.56a34.82 34.82 0 0 1-17.84 9.52l-159.68 31.3a34.64 34.64 0 0 1-40.76-40.1l28.98-162a34.68 34.68 0 0 1 9.62-18.4z m0 0" fill="#c39365" p-id="3753"></path><path d="M923.34 540v359.4a24 24 0 0 1-24 24h-776a24 24 0 0 1-24-24v-776a24 24 0 0 1 24-24h359.32v-48H99.34a48 48 0 0 0-48 48v824a48 48 0 0 0 48 48h824a48 48 0 0 0 48-48V540z" fill="#c39365" p-id="3754"></path><path d="M482.56 75.4m-24 0a24 24 0 1 0 48 0 24 24 0 1 0-48 0Z" fill="#c39365" p-id="3755"></path><path d="M947.34 540.1m-24 0a24 24 0 1 0 48 0 24 24 0 1 0-48 0Z" fill="#c39365" p-id="3756"></path><path d="M601.7 674.02m24 0l154.66 0q24 0 24 24l0 0q0 24-24 24l-154.66 0q-24 0-24-24l0 0q0-24 24-24Z" fill="#c39365" p-id="3757"></path><path d="M727.02 596.7m0 24l0 154.66q0 24-24 24l0 0q-24 0-24-24l0-154.66q0-24 24-24l0 0q24 0 24 24Z" fill="#c39365" p-id="3758"></path></svg>