<?xml version="1.0" standalone="no"?><!DOCTYPE svg PUBLIC "-//W3C//DTD SVG 1.1//EN" "http://www.w3.org/Graphics/SVG/1.1/DTD/svg11.dtd"><svg t="1653622722944" class="icon" viewBox="0 0 1024 1024" version="1.1" xmlns="http://www.w3.org/2000/svg" p-id="4956" xmlns:xlink="http://www.w3.org/1999/xlink" width="200" height="200"><defs><style type="text/css">@font-face { font-family: feedback-iconfont; src: url("//at.alicdn.com/t/font_1031158_u69w8yhxdu.woff2?t=1630033759944") format("woff2"), url("//at.alicdn.com/t/font_1031158_u69w8yhxdu.woff?t=1630033759944") format("woff"), url("//at.alicdn.com/t/font_1031158_u69w8yhxdu.ttf?t=1630033759944") format("truetype"); }
</style></defs><path d="M594.133333 861.44l90.453334-177.066667a160.64 160.64 0 0 0-62.506667 50.346667L352.64 597.333333a159.573333 159.573333 0 0 0 17.066667-128l261.12-136.746666a159.36 159.36 0 0 0 81.493333 49.066666l-121.386667-155.733333a160 160 0 0 0 8.746667 51.413333L341.333333 413.44a139.733333 139.733333 0 0 0-10.453333-11.946667l-23.253333 242.56h1.28L595.626667 789.333333a158.08 158.08 0 0 0-1.493334 72.106667z" fill="#000333" p-id="4957"></path><path d="M216.106667 352.213333a159.786667 159.786667 0 1 0 160 159.786667 159.786667 159.786667 0 0 0-160-159.786667z m0 258.133334A98.346667 98.346667 0 1 1 314.666667 512a98.346667 98.346667 0 0 1-98.56 98.346667zM749.44 65.92a159.786667 159.786667 0 1 0 160 159.786667 159.786667 159.786667 0 0 0-160-159.786667z m0 258.133333a98.346667 98.346667 0 1 1 98.56-98.346666 98.346667 98.346667 0 0 1-98.56 98.346666zM750.506667 669.866667a160 160 0 1 0 159.786666 159.786666 160 160 0 0 0-159.786666-159.786666z m0 258.346666a98.56 98.56 0 1 1 98.346666-98.56 98.56 98.56 0 0 1-98.346666 98.56z" fill="#00beeb" p-id="4958" data-spm-anchor-id="a313x.7781069.0.i59" class="selected"></path></svg>