<?xml version="1.0" standalone="no"?><!DOCTYPE svg PUBLIC "-//W3C//DTD SVG 1.1//EN" "http://www.w3.org/Graphics/SVG/1.1/DTD/svg11.dtd"><svg t="1583924068833" class="icon" viewBox="0 0 1024 1024" version="1.1" xmlns="http://www.w3.org/2000/svg" p-id="9674" xmlns:xlink="http://www.w3.org/1999/xlink" width="200" height="200"><defs><style type="text/css"></style></defs><path d="M805.88 10H219.46c-37.14 0-69.88 17.74-91.6 45.3H208a40 40 0 0 1 40 40v796.2a80 80 0 0 1-80 80H126.9C148.6 999.74 181.74 1018 219.46 1018h431.02c38 0 84.62-20.48 110.42-48.52L881.84 838c25.06-27.22 43.16-73.72 43.16-110.64V135.52C925 67.12 872.54 10 805.88 10z" fill="#f2f2f2" p-id="9675"></path><path d="M306.8 240.2h274.28c12.64 0 22.86-10.74 22.86-24s-10.22-24-22.86-24H306.8c-12.62 0-22.86 10.74-22.86 24s10.24 24 22.86 24zM306.64 423.46h366.24c12.64 0 22.88-10.72 22.9-24a23.48 23.48 0 0 0-22.88-24H306.64a23.46 23.46 0 0 0-22.86 24c0 13.26 10.22 24 22.86 24zM306.64 606.72h366.24a24 24 0 0 0 0-48H306.64a24 24 0 0 0 0 48z" fill="#eba313" p-id="9676"></path><path d="M805.88 10H219.46C152.84 10 100.34 67.08 100.34 135.56V474h45.8V135.56c0-44 32.94-79.7 73.32-79.7h586.42c40.5 0 73.3 35.82 73.3 79.66v584.64h-92a114.44 114.44 0 0 0-114.12 114.78v134a90.46 90.46 0 0 1-22.58 3.2H219.46c-40.5 0-73.32-35.64-73.32-79.7V774h-45.8v118.44c0 68.52 52.4 125.52 119.12 125.52h431.02c38 0 84.62-20.48 110.42-48.52L881.84 838c25.06-27.22 43.16-73.72 43.16-110.64V135.52C925 67.12 872.54 10 805.88 10z m42.28 796.94l-120.94 131.4a74.96 74.96 0 0 1-8.38 7.8v-111.2A68.6 68.6 0 0 1 787.56 766h84c-5.7 15.7-14.04 30.82-23.4 40.98z" fill="#eba313" p-id="9677"></path><path d="M123.24 474.02m-22.9 0a22.9 22.9 0 1 0 45.8 0 22.9 22.9 0 1 0-45.8 0Z" fill="#eba313" p-id="9678"></path><path d="M123.24 774.52m-22.9 0a22.9 22.9 0 1 0 45.8 0 22.9 22.9 0 1 0-45.8 0Z" fill="#eba313" p-id="9679"></path><path d="M123.24 594.52m-22.9 0a22.9 22.9 0 1 0 45.8 0 22.9 22.9 0 1 0-45.8 0Z" fill="#eba313" p-id="9680"></path></svg>