<?xml version="1.0" encoding="utf-8"?>
<!-- Generator: Adobe Illustrator 23.0.0, SVG Export Plug-In . SVG Version: 6.00 Build 0)  -->
<svg version="1.1" id="图层_1" xmlns="http://www.w3.org/2000/svg" xmlns:xlink="http://www.w3.org/1999/xlink" x="0px" y="0px"
	 viewBox="0 0 200 200" style="enable-background:new 0 0 200 200;" xml:space="preserve">
<style type="text/css">
	.st0{fill:none;stroke:#040000;stroke-width:4;stroke-miterlimit:10;}
</style>
<path d="M-6.1,192.4h-199.1v-5.1c0-30.8,58.5-55.9,74.4-59.1c0.6-1.2,1.1-4,1.3-6.8c-3.7-4.1-12.6-15.2-15.9-29.6
	c-3.4-1.6-6.2-5-8-9.9c-2.5-6.8-2.7-16.2,2.2-22.3c0-0.1,0-0.2,0-0.3c-0.9-8.5-3.4-31.2,10-46C-133.3,4.5-121.3,0-105.6,0
	S-78,4.5-70,13.3c13.3,14.9,10.9,37.5,10,46c0,0.1,0,0.2,0,0.3c4.9,6.1,4.7,15.5,2.2,22.3c-1.8,4.8-4.6,8.3-8,9.9
	c-3.3,14.4-12.2,25.5-15.9,29.6c0.2,2.8,0.8,5.6,1.3,6.8c16,3.2,74.4,28.3,74.4,59.1L-6.1,192.4L-6.1,192.4z M-194.1,182.2h177
	c-2.7-8.4-12-17.8-26.6-26.9c-15.4-9.6-32.7-16.1-39.3-17.2c-8.1-1.3-9-13.4-9.1-18.6l0-2.1l1.5-1.5c0.1-0.1,12.6-12.7,15.2-29
	l0.7-4.3h4.3c0.6-0.1,2.3-2,3.4-5.8c1.2-4.7,0.5-9.5-1.7-11.4l-1.9-1.6l0.1-2.5c0-0.7,0.1-1.7,0.3-3c0.9-8,2.9-26.6-7.4-38.1
	c-5.9-6.6-15.3-9.9-28-9.9s-22.1,3.3-28,9.9c-10.3,11.4-8.3,30.1-7.4,38.1c0.1,1.3,0.2,2.3,0.3,3l0.1,2.5l-1.9,1.6
	c-2.2,1.9-2.9,6.7-1.7,11.4c1,3.9,2.8,5.7,3.4,5.8h4.3l0.7,4.3c2.7,16.3,15.1,28.9,15.2,29l1.5,1.5v2.2c0,5.2-1,17.3-9.1,18.6
	c-6.6,1-23.9,7.6-39.3,17.2C-182.2,164.4-191.4,173.7-194.1,182.2L-194.1,182.2z"/>
<path class="st0" d="M5,190.9h189.1c0,0,3.8-33.7-70.9-54.2l-4.9-11.7c0,0,17.8-17.8,17.4-33.3c0,0,12.6-3.8,6.4-25
	c0,0,12-56.8-42.1-58.4c0,0-49.6-5.3-40.5,56.1c0,0-8.7,13.8,3,26.9c0,0,4.2,24.6,17.8,31.8c0,0,5.3,8.7-1.5,13.3
	C78.9,136.3,19,147.7,5,190.9z"/>
</svg>
