<?xml version="1.0" standalone="no"?><!DOCTYPE svg PUBLIC "-//W3C//DTD SVG 1.1//EN" "http://www.w3.org/Graphics/SVG/1.1/DTD/svg11.dtd"><svg t="1566870047583" class="icon" viewBox="0 0 1251 1024" version="1.1" xmlns="http://www.w3.org/2000/svg" p-id="5087" xmlns:xlink="http://www.w3.org/1999/xlink" width="156.375" height="128"><defs><style type="text/css"></style></defs><path d="M1112.177778 0H133.688889C102.4 0 73.955556 25.6 73.955556 56.888889v5.688889C179.2 82.488889 256 176.355556 256 284.444444v512c0 31.288889-25.6 56.888889-56.888889 56.888889H73.955556c0 31.288889 28.444444 56.888889 59.733333 56.888889h1058.133333c31.288889 0 59.733333-25.6 59.733334-56.888889V142.222222c0-34.133333-108.088889-142.222222-139.377778-142.222222z" fill="#DEDEDE" p-id="5088"></path><path d="M824.888889 768h398.222222c17.066667 0 28.444444 11.377778 28.444445 28.444444s-11.377778 28.444444-28.444445 28.444445H824.888889c-17.066667 0-28.444444-11.377778-28.444445-28.444445s11.377778-28.444444 28.444445-28.444444z" fill="#0461A7" p-id="5089"></path><path d="M1024 568.888889c17.066667 0 28.444444 11.377778 28.444444 28.444444v398.222223c0 17.066667-11.377778 28.444444-28.444444 28.444444s-28.444444-11.377778-28.444444-28.444444V597.333333c0-17.066667 11.377778-28.444444 28.444444-28.444444zM369.777778 142.222222c-79.644444 0-142.222222 62.577778-142.222222 142.222222s62.577778 142.222222 142.222222 142.222223 142.222222-62.577778 142.222222-142.222223-62.577778-142.222222-142.222222-142.222222z m0 227.555556c-48.355556 0-85.333333-36.977778-85.333334-85.333334s36.977778-85.333333 85.333334-85.333333 85.333333 36.977778 85.333333 85.333333-36.977778 85.333333-85.333333 85.333334z" fill="#0461A7" p-id="5090"></path><path d="M369.777778 426.666667c93.866667 0 170.666667 76.8 170.666666 170.666666h56.888889c0-125.155556-102.4-227.555556-227.555555-227.555555s-227.555556 102.4-227.555556 227.555555h56.888889c0-93.866667 76.8-170.666667 170.666667-170.666666zM1137.777778 0H113.777778C51.2 0 0 51.2 0 113.777778v113.777778h56.888889V113.777778c0-31.288889 25.6-56.888889 56.888889-56.888889h1024c31.288889 0 56.888889 25.6 56.888889 56.888889v284.444444h56.888889V113.777778c0-62.577778-51.2-113.777778-113.777778-113.777778z" fill="#0461A7" p-id="5091"></path><path d="M56.888889 796.444444V512H0v284.444444c0 62.577778 51.2 113.777778 113.777778 113.777778h512v-56.888889H113.777778c-31.288889 0-56.888889-25.6-56.888889-56.888889zM28.444444 199.111111c17.066667 0 28.444444 11.377778 28.444445 28.444445s-11.377778 28.444444-28.444445 28.444444-28.444444-11.377778-28.444444-28.444444 11.377778-28.444444 28.444444-28.444445zM28.444444 312.888889c17.066667 0 28.444444 11.377778 28.444445 28.444444s-11.377778 28.444444-28.444445 28.444445-28.444444-11.377778-28.444444-28.444445 11.377778-28.444444 28.444444-28.444444z" fill="#0461A7" p-id="5092"></path><path d="M28.444444 483.555556c17.066667 0 28.444444 11.377778 28.444445 28.444444s-11.377778 28.444444-28.444445 28.444444-28.444444-11.377778-28.444444-28.444444 11.377778-28.444444 28.444444-28.444444z" fill="#0461A7" p-id="5093"></path></svg>