<?xml version="1.0" standalone="no"?><!DOCTYPE svg PUBLIC "-//W3C//DTD SVG 1.1//EN" "http://www.w3.org/Graphics/SVG/1.1/DTD/svg11.dtd"><svg t="1576222136617" class="icon" viewBox="0 0 1024 1024" version="1.1" xmlns="http://www.w3.org/2000/svg" p-id="5637" xmlns:xlink="http://www.w3.org/1999/xlink" width="128" height="128"><defs><style type="text/css"></style></defs><path d="M559.999414 511.998586m-263.043722 263.043722a372 372 0 1 0 526.087445-526.087445 372 372 0 1 0-526.087445 526.087445Z" fill="#DEDEDE" p-id="5638"></path><path d="M396 368a24 24 0 1 1-24 24 24 24 0 0 1 24-24zM512 724a24 24 0 1 1-24 24 24 24 0 0 1 24-24z" fill="#0066B3" p-id="5639"></path><path d="M512 252a140 140 0 0 0-140 140h48a92 92 0 1 1 92 92v48a140 140 0 0 0 0-280z" fill="#0066B3" p-id="5640"></path><path d="M488 483.92m24 0l0 0q24 0 24 24l0 128q0 24-24 24l0 0q-24 0-24-24l0-128q0-24 24-24Z" fill="#0066B3" p-id="5641"></path><path d="M116 512m-24 0a24 24 0 1 0 48 0 24 24 0 1 0-48 0Z" fill="#0066B3" p-id="5642"></path><path d="M149.64 671.92m-24 0a24 24 0 1 0 48 0 24 24 0 1 0-48 0Z" fill="#0066B3" p-id="5643"></path><path d="M198.1 753.64m-24 0a24 24 0 1 0 48 0 24 24 0 1 0-48 0Z" fill="#0066B3" p-id="5644"></path><path d="M512 92C280 92 92 280 92 512h48a372 372 0 1 1 77.4 227.12L180 769.24A419.3 419.3 0 0 0 512 932c232 0 420-188 420-420S744 92 512 92z" fill="#0066B3" p-id="5645"></path></svg>