<?xml version="1.0" standalone="no"?><!DOCTYPE svg PUBLIC "-//W3C//DTD SVG 1.1//EN" "http://www.w3.org/Graphics/SVG/1.1/DTD/svg11.dtd"><svg t="1566870150769" class="icon" viewBox="0 0 1024 1024" version="1.1" xmlns="http://www.w3.org/2000/svg" p-id="9506" xmlns:xlink="http://www.w3.org/1999/xlink" width="128" height="128"><defs><style type="text/css"></style></defs><path d="M232.5504 126.5664a174.08 174.08 0 0 1 24.9856 24.3712 591.2576 591.2576 0 0 1 45.5168 60.3136c31.9488 47.7184 51.2 86.4256 55.296 99.3792-0.9728 7.0656-5.12 14.4896-12.7488 26.6752-11.6224 19.0464-27.5456 45.1584-27.5456 81.5104 0 13.3632 0 54.0672 111.4624 164.4544a870.0416 870.0416 0 0 0 79.6672 70.5536c36.3008 27.8016 60.3648 39.1168 82.9952 39.1168 32.0512 0 58.624-13.824 79.9744-24.9344 15.104-7.8848 28.2624-14.7456 39.5776-15.36 10.752 2.9184 47.4112 20.224 104.6016 60.1088 23.2448 16.2304 45.6192 33.3312 63.0272 48.1792a286.72 286.72 0 0 1 25.6 24.2176c-3.4816 24.8832-17.8688 50.5856-40.96 72.0384-24.32 22.8352-55.6032 37.5808-79.616 37.5808-55.9104 0-126.1568-23.6544-203.2128-68.4544C507.1872 782.9504 429.7728 721.92 357.5296 650.24 286.72 579.5328 226.1504 503.7568 182.7328 431.104a587.2128 587.2128 0 0 1-49.7152-102.4 250.112 250.112 0 0 1-16.64-81.92A70.7584 70.7584 0 0 1 128 212.3264a198.5024 198.5024 0 0 1 36.4544-43.0592 245.1968 245.1968 0 0 1 46.08-33.024 119.4496 119.4496 0 0 1 22.0672-9.6768m5.12-52.2752c-50.688 0-172.288 89.9072-172.288 172.2368 0 240.64 443.3408 699.2896 719.5136 699.2896 75.9808 0 172.288-79.8208 172.288-172.288 0-31.6928-197.632-172.288-243.2512-172.288-46.848 0-81.0496 40.5504-121.6 40.5504S369.2544 463.1552 369.2544 418.816 409.6 352.9728 409.6 307.2c0-32.9216-121.6-233.0624-172.2368-233.0624z" fill="#666666" p-id="9507"></path><path d="M801.72718 737.135843a153.6 55.0912 36.59 1 0 65.678048-88.46782 153.6 55.0912 36.59 1 0-65.678048 88.46782Z" fill="#0066B3" p-id="9508"></path><path d="M275.765015 227.947334a153.6 55.0912 54.9 1 0 90.1457-63.355458 153.6 55.0912 54.9 1 0-90.1457 63.355458Z" fill="#0066B3" p-id="9509"></path></svg>