<?xml version="1.0" standalone="no"?><!DOCTYPE svg PUBLIC "-//W3C//DTD SVG 1.1//EN" "http://www.w3.org/Graphics/SVG/1.1/DTD/svg11.dtd"><svg t="1566973319110" class="icon" viewBox="0 0 1024 1024" version="1.1" xmlns="http://www.w3.org/2000/svg" p-id="6784" xmlns:xlink="http://www.w3.org/1999/xlink" width="32" height="32"><defs><style type="text/css"></style></defs><path d="M599.2704 69.3248v104.7168s85.4016-27.584 82.6368 68.8256l2.7648 256.2816-121.216 68.8 2.752-168.0256c0.8832-54.1696-109.3376-54.2336-108.4416 0l2.7648 168.0256-121.2288-74.3168 2.7648-250.7648c-2.7648-96.4224 82.6368-68.8256 82.6368-68.8256V69.3248h174.5664zM0 802.9696l90.688-52.352s-66.5856-60.1728 18.304-105.9712l220.544-130.5472 120.2176 70.592-146.9312 81.6256c-47.3344 26.3168 7.7312 121.792 54.2208 93.9008l144.1536-86.3872-3.7504 142.1312-218.5344 122.9952c-82.1376 50.5856-100.9536-37.1456-100.9536-37.1456l-90.688 52.3392L0 802.9696z m936.7168 149.8112l-90.688-52.3392s-18.816 87.7312-100.9536 37.12l-223.3088-125.7344 1.024-139.3664 144.1664 86.4c46.4384 27.8528 101.6064-67.5968 54.208-93.9136l-146.9184-81.6256 124.9792-67.8144 215.808 127.7696c84.864 45.7984 18.2912 105.984 18.2912 105.984L1024 801.6384l-87.2832 151.1424z" fill="#E50012" p-id="6785"></path></svg>