<?xml version="1.0" standalone="no"?><!DOCTYPE svg PUBLIC "-//W3C//DTD SVG 1.1//EN" "http://www.w3.org/Graphics/SVG/1.1/DTD/svg11.dtd"><svg t="1568602582047" class="icon" viewBox="0 0 1024 1024" version="1.1" xmlns="http://www.w3.org/2000/svg" p-id="1714" xmlns:xlink="http://www.w3.org/1999/xlink" width="128" height="128"><defs><style type="text/css"></style></defs><path d="M574.754226 902.7977v-136.573183c0-17.855632-8.73582-46.239046 14.07971-47.647018 27.839426-1.791963 56.22284 3.455929 83.614275-4.031917 57.726809-15.871673 83.198284-67.678604 83.198284-123.61345v-133.117254c0-34.271293 3.359931-68.702583-15.455681-99.389951-29.855384-48.415001-77.950392-56.190841-129.821323-56.190841-6.911857 0-27.967423 3.455929-33.183315-0.895981-5.951877-5.34389-2.43195-20.479578-2.43195-27.359436V116.669914c190.460072 30.431372 333.241127 203.611801 333.241127 395.479843 0 191.99604-143.677037 360.408567-333.241127 390.711941v-0.063998z m-178.396321-295.993895c-18.879611 0-11.295767-43.679099-11.295767-55.550855v-103.517865c0-8.959815-3.263933-23.615513 1.919961-31.359353 8.319828-12.031752 52.062926-4.991897 65.726644-4.991897h129.245334c13.151729 0 57.758809-7.679842 61.246737 9.055813 4.35191 20.287582 0.191996 46.239046 0.191996 67.038618v89.69415c0 15.423682 2.559947 29.535391-16.703655 29.535391h-230.33125v0.095998z m-280.602212-94.718047c0-191.804044 142.717056-365.11247 333.241127-395.415844v137.21317c0 12.479743 4.479908 33.535308-0.95998 44.959072-4.415909 8.799819-46.879033 3.327931-56.638832 3.327932-54.814869 0-107.709778 32.415331-120.989505 88.478175-5.759881 24.543494-2.303952 52.990907-2.303952 78.142388 0 45.343065-1.47197 91.006123 0 136.381187 0 39.935176 21.759551 77.694398 56.094843 97.917981 24.543494 14.399703 50.590957 15.423682 78.078389 15.423682 12.895734 0 41.919135-6.399868 46.719037 8.22383 3.647925 11.16777 0 32.095338 0 43.967093v132.029277c-189.56409-30.175378-333.241127-198.651903-333.241127-390.647943zM511.843524 0.00032C245.385019 0.00032 17.677716 213.435918 0.97406 479.670427c-16.639657 266.20251 181.82025 507.253538 446.710787 540.468853 264.634542 33.087318 517.749321-150.076905 567.2523-412.567491 24.127502-128.125357-0.191996-266.490504-70.238551-376.72823-68.030597-106.973794-176.636357-183.388218-299.193829-214.395578A544.94876 544.94876 0 0 0 511.907522 0.00032h-0.063998z" fill="#9A1F24" p-id="1715"></path></svg>