<?xml version="1.0" standalone="no"?><!DOCTYPE svg PUBLIC "-//W3C//DTD SVG 1.1//EN" "http://www.w3.org/Graphics/SVG/1.1/DTD/svg11.dtd"><svg t="1566973284817" class="icon" viewBox="0 0 1024 1024" version="1.1" xmlns="http://www.w3.org/2000/svg" p-id="6269" xmlns:xlink="http://www.w3.org/1999/xlink" width="32" height="32"><defs><style type="text/css"></style></defs><path d="M810.35 737.28c-52.35 1.72-100.73 3.38-153.08 5.07-33.15 141-307.25 102.92-276.72-76C395.89 560.36 539.1 514.08 628 594.1c19.54 22.08 29.11 42.56 35.38 87.45 43.91-1.69 103.11-3.38 147-5.07 2.23-228-256.73-343.7-450.92-233.05-186.16 106.06-164.67 429.18 30.4 511.71v5.07c-106.37-2.09-223-84.48-248.44-182.39l1.44-525.65C227.28 194.76 320.6 125.93 405 68.51l10.13 5.07c-5.83 79.24-2.15 209.91 2.53 305.26 52.91-51.34 88.54-105 179.87-122.87 58.87-11.5 115.19-4.57 150.73 7.6 266.79 91.4 283.4 436.13 57 554.78-5.07 0-16.07 10-24.48 11.63 0-1.69 5.27-9 9.28-16.7l20.26-76z" fill="#1D2088" p-id="6270"></path></svg>