<?xml version="1.0" standalone="no"?><!DOCTYPE svg PUBLIC "-//W3C//DTD SVG 1.1//EN" "http://www.w3.org/Graphics/SVG/1.1/DTD/svg11.dtd"><svg t="1566973213956" class="icon" viewBox="0 0 1024 1024" version="1.1" xmlns="http://www.w3.org/2000/svg" p-id="4633" xmlns:xlink="http://www.w3.org/1999/xlink" width="32" height="32"><defs><style type="text/css"></style></defs><path d="M475.84 40.832S561.856-25.6 709.856 22.752c0 0 49.824 18.08 107.2 69.44l178.208 187.264-95.104 95.136-271.872-276.352s-45.312-55.872-152.512-57.408z m392.64 366.976l-111.744 108.736s-18.176 25.664-33.28 1.536l-205.344-200.896s-18.176-24.128-31.776-2.976l-206.88 211.424s-13.568 21.152 3.008 30.208l202.4 202.336s16.576 27.2 31.712 6.08l209.92-211.424s6.048-18.176 39.264-13.6h214.432s9.088 217.472-157.024 353.344c0 0-215.936 216-511.968 83.072 0 0-285.44-99.68-282.464-469.664 0 0 7.584-247.68 232.64-379.04 0 0 164.608-122.368 295.968-31.744l311.168 312.64z" fill="#003B8F" p-id="4634"></path></svg>