<?xml version="1.0" standalone="no"?><!DOCTYPE svg PUBLIC "-//W3C//DTD SVG 1.1//EN" "http://www.w3.org/Graphics/SVG/1.1/DTD/svg11.dtd"><svg t="1568603642763" class="icon" viewBox="0 0 1024 1024" version="1.1" xmlns="http://www.w3.org/2000/svg" p-id="11155" xmlns:xlink="http://www.w3.org/1999/xlink" width="128" height="128"><defs><style type="text/css"></style></defs><path d="M931.924 770.026s46.469-55.76 49.093-79.765c0 0-1.263-33.151-27.816 18.626 0 0 6.62-31.86-12.02-15.864 0 0-90.369 104.929-128.87 110.244 0 0-285.696 168.775-415.969-171.39 0 0-55.809-160.85 75.727-281.781C603.66 229.1 732.572 241.176 850.812 328.867c0 0 59.806-67.843 85.082-54.47 0 0 22.595-13.372 11.936-33.22l-33.2-42.471s-130.217 21.228-127.593-51.84c0 0 9.243-54.47-85.054-33.241 0 0-22.553-21.229-21.25-33.228 0 0 6.635-31.853-95.685-14.615 0 0-151.48 18.606-317.631 208.616 0 0-167.4 136.789-167.4-4.067 0 0-91.715 93.083-42.526 167.463 0 0 55.85 78.391 162.153 14.622 0 0-33.186 257.783 136.838 392.08 0 0 178.074 164.709 382.754 106.304 0 0 171.383-35.906 236.506-208.762 0 0-30.536 30.611-43.818 27.988zM549.197 659.733h283.018V444.407l-283.017 1.381v213.945h-0.001z" fill="#C9171D" p-id="11156"></path></svg>