<?xml version="1.0" standalone="no"?><!DOCTYPE svg PUBLIC "-//W3C//DTD SVG 1.1//EN" "http://www.w3.org/Graphics/SVG/1.1/DTD/svg11.dtd"><svg t="1568603586379" class="icon" viewBox="0 0 1036 1024" version="1.1" xmlns="http://www.w3.org/2000/svg" p-id="9545" xmlns:xlink="http://www.w3.org/1999/xlink" width="129.5" height="128"><defs><style type="text/css"></style></defs><path d="M517.453108 517.391422m-505.831325 0a505.831325 505.831325 0 1 0 1011.662651 0 505.831325 505.831325 0 1 0-1011.662651 0Z" fill="#FFFFFF" p-id="9546"></path><path d="M385.690217 999.65841V348.431422c0-70.779373-39.849639-131.651855-96.724819-154.303229v769.406458c30.571952 14.163277 63.290602 27.610988 96.724819 36.099084z m362.718072-36.111422V194.152867c-56.899855 22.651373-96.724819 83.523855-96.724819 154.303229v651.202314c34.137446-8.488096 66.843759-21.935807 96.724819-36.099085zM116.834699 424.898313c3.565494 0 7.118651 2.109687 8.537446 7.069301 8.537446 29.733012 32.718651 51.668819 61.168578 52.384386 9.956241 0 17.062554-4.959614 24.181205-10.622458V116.279518C90.519133 207.575904 12.288 351.984578 12.288 514.775904c0 162.803663 78.231133 307.2 199.137157 398.52106V555.834602c-7.106313-7.069301-14.224964-10.61012-24.181205-12.028915-29.153157 1.418795-53.334361 24.057831-61.156241 53.790843-1.431133 3.540819-4.984289 7.081639-8.537446 7.081639-3.553157 0-7.118651-3.540819-7.118651-5.662844-17.765783-21.232578-29.856386-51.668819-29.856385-84.94265 0-32.558265 12.090602-60.872482 29.856385-83.523856-0.703229-2.122024 2.849928-5.662843 6.415422-5.662843z m871.966843 118.907374c14.224964 0.703229 26.315566 10.61012 33.42188 24.773397-0.715566 5.662843-0.715566 13.447711-2.134362 19.110555-19.196916 131.651855-88.90294 246.327518-189.180915 324.18853V117.685976C935.442506 199.087807 1007.98612 320.832771 1022.223422 460.98506c-5.687518 13.447711-19.196916 22.651373-33.434217 24.057832-27.734361-0.690892-51.915566-22.639036-60.453012-52.372049-1.418795-4.947277-4.971952-7.069301-9.956241-7.069301-2.134361 0-5.675181 3.528482-7.106313 4.947277-18.493687 22.651373-29.165494 50.96559-29.165494 83.523856 0 33.273831 11.387373 63.710072 29.165494 84.94265 1.418795 2.122024 4.971952 5.662843 7.106313 5.662844 4.984289 0 8.537446-3.540819 9.968578-7.081639 8.525108-29.733012 32.706313-52.372048 60.453012-53.790843z m-686.326747-441.677109c-7.834217-3.553157-12.806169-12.041253-13.521735-20.541686 0-10.61012 5.687518-19.110554 15.643759-22.651374A517.576482 517.576482 0 0 1 519.390072 12.226313c76.096771 0 147.924819 16.98853 213.362121 46.709205 9.956241 3.540819 15.656096 12.041253 15.656096 22.651374 0 8.500434-4.984289 16.98853-13.521735 20.529349-81.796627 31.151807-156.462265 109.012819-156.462265 201.024771v710.668337a550.356819 550.356819 0 0 1-59.034217 3.528482c-20.628048 0-39.824964-1.406458-59.034217-3.528482l-1.418795-710.668337c0-92.011952-74.677976-169.885301-156.474602-201.024771z" fill="#D7000F" p-id="9547"></path></svg>