<?xml version="1.0" standalone="no"?><!DOCTYPE svg PUBLIC "-//W3C//DTD SVG 1.1//EN" "http://www.w3.org/Graphics/SVG/1.1/DTD/svg11.dtd"><svg t="1618456142339" class="icon" viewBox="0 0 1024 1024" version="1.1" xmlns="http://www.w3.org/2000/svg" p-id="1269" xmlns:xlink="http://www.w3.org/1999/xlink" width="128" height="128"><defs><style type="text/css"></style></defs><path d="M833.1264 141.7216S437.72586667 506.53866667 562.24426667 931.4304h203.1616s126.70293333 14.19946667 126.70293333-128.88746667V229.10293333s8.73813333-90.65813333-58.9824-87.38133333z" fill="#F3442E" p-id="1270"></path><path d="M241.11786667 951.0912c-37.13706667 0-67.72053333-10.92266667-90.65813334-33.86026667-40.41386667-40.41386667-38.22933333-100.48853333-38.22933333-103.76533333v-436.90666667c0-10.92266667 8.73813333-19.6608 19.6608-19.6608h617.13066667c10.92266667 0 19.6608 8.73813333 19.6608 19.6608V610.304c5.46133333 38.22933333-2.18453333 67.72053333-21.84533334 87.38133333-24.02986667 24.02986667-58.9824 21.84533333-66.62826666 20.75306667h-415.06133334c-10.92266667 0-19.6608-8.73813333-19.6608-19.6608s8.73813333-19.6608 19.6608-19.6608h418.33813334s22.9376 3.2768 36.0448-10.92266667c13.1072-13.1072 13.1072-37.13706667 9.8304-55.7056V396.21973333h-578.90133334v419.4304c0 1.09226667-1.09226667 48.05973333 27.30666667 75.3664 16.384 16.384 41.50613333 24.02986667 72.0896 21.84533334h535.21066667c1.09226667 0 41.50613333 1.09226667 66.62826666-22.9376 14.19946667-14.19946667 21.84533333-34.95253333 21.84533334-62.2592V229.10293333 228.01066667s1.09226667-32.768-20.75306667-54.61333334c-15.29173333-15.29173333-39.3216-22.9376-70.99733333-21.84533333h-83.01226667c-10.92266667 0-19.6608-8.73813333-19.6608-19.6608s8.73813333-19.6608 19.6608-19.6608h81.92c42.5984-1.09226667 76.45866667 9.8304 99.39626667 33.86026667 31.67573333 32.768 30.58346667 76.45866667 30.58346666 81.92v597.46986666c0 38.22933333-10.92266667 67.72053333-32.768 89.56586667-37.13706667 36.0448-91.7504 33.86026667-93.93493333 33.86026667H249.856c-2.18453333 2.18453333-5.46133333 2.18453333-8.73813333 2.18453333z" fill="#464765" p-id="1271"></path><path d="M747.9296 564.4288H266.24c-10.92266667 0-19.6608-8.73813333-19.6608-19.6608s8.73813333-19.6608 19.6608-19.6608h482.78186667c10.92266667 0 19.6608 8.73813333 19.6608 19.6608s-9.8304 19.6608-20.75306667 19.6608zM131.8912 303.37706667c-10.92266667 0-19.6608-8.73813333-19.6608-19.6608v-52.4288c0-88.4736 77.55093333-115.78026667 117.9648-117.9648h158.37866667c10.92266667 0 19.6608 8.73813333 19.6608 19.6608s-8.73813333 18.56853333-19.6608 18.56853333H231.28746667c-7.64586667 0-80.82773333 6.5536-80.82773334 79.73546667v52.4288c0 10.92266667-8.73813333 19.6608-18.56853333 19.6608z" fill="#464765" p-id="1272"></path><path d="M582.99733333 205.07306667H446.464c-36.0448 0-66.62826667-29.4912-66.62826667-66.62826667 0-36.0448 29.4912-66.62826667 66.62826667-66.62826667h136.53333333c36.0448 0 66.62826667 29.4912 66.62826667 66.62826667-1.09226667 37.13706667-30.58346667 66.62826667-66.62826667 66.62826667zM446.464 110.04586667c-15.29173333 0-28.39893333 13.1072-28.39893333 28.39893333 0 15.29173333 13.1072 28.39893333 28.39893333 28.39893333h136.53333333c15.29173333 0 28.39893333-13.1072 28.39893334-28.39893333 0-15.29173333-13.1072-28.39893333-28.39893334-28.39893333H446.464z" fill="#464765" p-id="1273"></path></svg>