<?xml version="1.0" standalone="no"?><!DOCTYPE svg PUBLIC "-//W3C//DTD SVG 1.1//EN" "http://www.w3.org/Graphics/SVG/1.1/DTD/svg11.dtd"><svg t="1582551939464" class="icon" viewBox="0 0 1024 1024" version="1.1" xmlns="http://www.w3.org/2000/svg" p-id="9453" xmlns:xlink="http://www.w3.org/1999/xlink" width="200" height="200"><defs><style type="text/css"></style></defs><path d="M731.946667 776.96c2.346667-2.773333 4.48-5.546667 7.04-8.32 5.76-6.4 12.16-12.16 18.133333-18.346667a347.52 347.52 0 0 0 24.106667-29.013333 314.026667 314.026667 0 0 0 56.106666-143.146667 318.293333 318.293333 0 0 0-10.24-130.133333A302.72 302.72 0 0 0 704 279.466667a278.826667 278.826667 0 0 0-56.533333-27.946667 264.746667 264.746667 0 0 0-85.333334-16h27.946667a263.893333 263.893333 0 0 0-97.493333 21.333333 272.64 272.64 0 0 0-71.466667 43.733334 287.36 287.36 0 0 0-43.946667 45.653333 307.626667 307.626667 0 0 0-53.76 109.226667 320 320 0 0 0 1.066667 168.32 305.28 305.28 0 0 0 64 118.826666l10.026667 11.093334a229.973333 229.973333 0 0 1 21.333333 21.333333 106.666667 106.666667 0 0 1 21.333333 61.013333v24.746667l-52.48 1.706667a28.8 28.8 0 0 0-18.133333 8.746666 27.306667 27.306667 0 0 0 2.773333 38.4l3.626667 2.56a30.293333 30.293333 0 0 0 11.52 3.626667c37.76 1.493333 75.306667 2.56 113.066667 3.2a45.013333 45.013333 0 0 0 0 5.546667c5.333333 52.693333 14.72 80 62.08 85.333333 33.066667 3.84 62.08-23.68 76.373333-53.76a97.493333 97.493333 0 0 0 9.173333-31.573333v-5.76c37.546667 0 75.306667-1.706667 112.853334-3.2a28.8 28.8 0 0 0 18.133333-8.746667 27.306667 27.306667 0 0 0-2.773333-38.4l-3.626667-2.56a31.573333 31.573333 0 0 0-11.52-3.626667l-52.48-1.706666V836.266667a110.72 110.72 0 0 1 22.186667-59.306667z" fill="#DEDEDE" p-id="9454"></path><path d="M685.866667 771.2l6.826666-8.32c5.973333-6.4 12.373333-12.16 18.133334-18.346667a287.36 287.36 0 0 0 24.106666-29.226666 311.04 311.04 0 0 0 56.106667-142.933334 321.92 321.92 0 0 0-10.026667-129.92 302.08 302.08 0 0 0-123.946666-168.746666 277.333333 277.333333 0 0 0-56.32-27.946667 260.053333 260.053333 0 0 0-85.333334-16h-14.933333a269.013333 269.013333 0 0 0-97.493333 21.333333 286.506667 286.506667 0 0 0-71.466667 43.946667 295.253333 295.253333 0 0 0-43.946667 45.44A310.4 310.4 0 0 0 234.666667 449.493333a320 320 0 0 0 1.066666 169.173334 308.053333 308.053333 0 0 0 64 118.826666c4.906667 5.546667 4.906667 5.546667 10.026667 10.88a301.226667 301.226667 0 0 1 21.333333 22.4 106.666667 106.666667 0 0 1 21.333334 61.013334v24.533333l-52.693334 1.92a26.666667 26.666667 0 0 0-15.36 47.146667l3.626667 2.56a31.573333 31.573333 0 0 0 11.52 3.626666c37.76 1.493333 75.52 2.56 113.066667 3.2a45.013333 45.013333 0 0 0 0 5.546667 95.573333 95.573333 0 0 0 181.333333 31.786667 96.853333 96.853333 0 0 0 8.96-31.786667v-5.546667c37.76 0 75.306667-1.706667 113.066667-3.2a27.946667 27.946667 0 0 0 17.92-8.96 27.093333 27.093333 0 0 0-2.773334-38.186666l-3.413333-2.56a29.013333 29.013333 0 0 0-11.733333-3.626667l-52.266667-1.706667v-24.32a110.933333 110.933333 0 0 1 22.186667-61.013333z m-144.426667 174.293333a49.493333 49.493333 0 0 1-65.28 0A51.626667 51.626667 0 0 1 460.8 917.333333v-1.92h96.426667a51.413333 51.413333 0 0 1-15.786667 30.08z m104.533333-198.826666a167.04 167.04 0 0 0-31.786666 92.8v24.96q-104.96-1.92-209.92 0v-21.333334a196.693333 196.693333 0 0 0-2.986667-29.653333 168.533333 168.533333 0 0 0-42.666667-81.493333c-4.693333-4.906667-9.813333-9.6-14.72-14.506667a261.973333 261.973333 0 0 1-65.706666-122.453333 272.426667 272.426667 0 0 1 0-118.826667 261.76 261.76 0 0 1 42.666666-95.146667 244.693333 244.693333 0 0 1 67.2-65.28 232.746667 232.746667 0 0 1 74.666667-31.36 223.786667 223.786667 0 0 1 128 10.026667 236.8 236.8 0 0 1 82.133333 54.613333A259.626667 259.626667 0 0 1 738.346667 469.333333a273.28 273.28 0 0 1 1.92 119.04 262.613333 262.613333 0 0 1-60.16 120.96l-8.533334 9.173334a269.653333 269.653333 0 0 0-25.6 28.16zM507.52 18.133333a24.96 24.96 0 0 1 21.333333 24.106667 558.293333 558.293333 0 0 1 0 85.333333A25.6 25.6 0 0 1 512 149.333333a21.333333 21.333333 0 0 1-24.533333-13.44 30.08 30.08 0 0 1-2.346667-11.52c0-27.52-2.133333-55.253333 0-82.773333a32.64 32.64 0 0 1 2.133333-8.746667 23.466667 23.466667 0 0 1 19.84-15.146666zM800 115.413333a24.746667 24.746667 0 0 1-1.28 32.426667 611.626667 611.626667 0 0 1-59.946667 59.946667 25.813333 25.813333 0 0 1-29.44 3.2 22.4 22.4 0 0 1-7.68-26.88 30.08 30.08 0 0 1 6.4-9.813334c19.2-19.84 37.76-40.533333 58.666667-58.453333a24.533333 24.533333 0 0 1 7.466667-4.693333 23.253333 23.253333 0 0 1 24.746666 3.2zM213.333333 114.346667a23.253333 23.253333 0 0 1 24.746667-3.2 24.533333 24.533333 0 0 1 7.466667 4.693333c21.333333 17.92 39.466667 38.613333 58.666666 58.453333a27.52 27.52 0 0 1 6.186667 9.6 21.333333 21.333333 0 0 1-7.68 26.88 25.173333 25.173333 0 0 1-29.44-3.2A561.92 561.92 0 0 1 213.333333 148.053333a24.533333 24.533333 0 0 1-1.28-32.426666zM66.986667 358.826667a23.466667 23.466667 0 0 1 15.146666-19.84 40.32 40.32 0 0 1 8.746667-2.133334c27.52-1.92 55.253333 0 82.773333 0a26.453333 26.453333 0 0 1 11.306667 2.56 21.333333 21.333333 0 0 1 13.653333 24.32 25.813333 25.813333 0 0 1-23.04 18.56 561.28 561.28 0 0 1-85.333333 0 24.533333 24.533333 0 0 1-23.893333-21.333333z m757.973333 0a23.466667 23.466667 0 0 1 15.146667-19.84 40.32 40.32 0 0 1 8.746666-2.133334c27.52-1.92 55.253333 0 82.773334 0a26.453333 26.453333 0 0 1 11.306666 2.56 21.333333 21.333333 0 0 1 13.653334 24.32 25.813333 25.813333 0 0 1-23.04 18.56 561.28 561.28 0 0 1-85.333334 0 24.533333 24.533333 0 0 1-23.893333-21.333333z" fill="#eba313" p-id="9455"></path><path d="M490.666667 423.04a21.333333 21.333333 0 0 1 33.92 0l106.666666 106.666667a21.333333 21.333333 0 0 1 0 33.92 21.333333 21.333333 0 0 1-33.92 0l-106.666666-106.666667a21.333333 21.333333 0 0 1 0-33.92z" fill="#eba313" p-id="9456"></path><path d="M509.013333 439.893333A21.333333 21.333333 0 0 1 533.333333 463.786667v251.946666a21.333333 21.333333 0 0 1-23.893333 24.106667 21.333333 21.333333 0 0 1-24.106667-24.106667V463.786667a21.333333 21.333333 0 0 1 23.68-23.893334z" fill="#eba313" p-id="9457"></path><path d="M382.293333 564.48a21.333333 21.333333 0 0 1 0-33.92l106.666667-106.666667a21.333333 21.333333 0 0 1 33.92 0 21.333333 21.333333 0 0 1 0 33.92l-106.666667 106.666667a21.333333 21.333333 0 0 1-33.92 0z" fill="#eba313" p-id="9458"></path></svg>