<?xml version="1.0" standalone="no"?><!DOCTYPE svg PUBLIC "-//W3C//DTD SVG 1.1//EN" "http://www.w3.org/Graphics/SVG/1.1/DTD/svg11.dtd"><svg t="1582621310521" class="icon" viewBox="0 0 1024 1024" version="1.1" xmlns="http://www.w3.org/2000/svg" p-id="9544" xmlns:xlink="http://www.w3.org/1999/xlink" width="200" height="200"><defs><style type="text/css"></style></defs><path d="M573.687 959.317l0.151 7.794s-5.31-1.195-14.43-3.679c-9.122 2.484-14.431 3.68-14.431 3.68l0.151-7.795c-74.809-22.47-273.256-97.052-317.572-265.766v-388.74s286.018-16.062 331.851-115.181c45.834 99.119 331.852 115.18 331.852 115.18v388.741c-44.316 168.714-242.764 243.295-317.572 265.766z" fill="#0099FF" opacity=".2" p-id="9545"></path><path d="M530.773 1013.741l0.19 10.259s-6.978-1.574-18.963-4.855c-11.985 3.281-18.963 4.855-18.963 4.855l0.19-10.259c-98.304-29.601-359.12-127.83-417.375-350.037v-512S451.755 130.56 512 0c60.245 130.56 436.148 151.704 436.148 151.704v512c-58.254 222.208-319.07 320.436-417.375 350.037zM891.26 218.415S560.47 201.197 512 94.815c-48.47 106.382-379.26 123.6-379.26 123.6v417.186c46.858 181.077 275.608 280.064 354.684 304.184l-0.152 8.363s5.613-1.29 15.247-3.944c9.633 2.655 15.246 3.944 15.246 3.944l-0.152-8.363c79.076-24.12 326.789-123.107 373.646-304.184V218.415zM474.55 649.538l-40.089-40.087-0.132-0.133-120.68-120.68 53.627-53.647 120.68 120.68 187.733-187.714 53.628 53.628-241.361 241.36-13.407-13.407z" fill="#0099FF" p-id="9546"></path></svg>