<?xml version="1.0" standalone="no"?><!DOCTYPE svg PUBLIC "-//W3C//DTD SVG 1.1//EN" "http://www.w3.org/Graphics/SVG/1.1/DTD/svg11.dtd"><svg t="1566870051252" class="icon" viewBox="0 0 1287 1024" version="1.1" xmlns="http://www.w3.org/2000/svg" p-id="5218" xmlns:xlink="http://www.w3.org/1999/xlink" width="160.875" height="128"><defs><style type="text/css"></style></defs><path d="M555.885714 58.514286h292.571429a87.771429 87.771429 0 0 1 0 175.542857H555.885714a87.771429 87.771429 0 0 1 0-175.542857zM731.428571 351.085714a198.363429 198.363429 0 0 1 58.514286 8.777143 229.376 229.376 0 0 1 87.771429 196.022857c0 92.452571-54.418286 136.338286-87.771429 196.022857a198.070857 198.070857 0 0 1-58.514286 8.777143 204.8 204.8 0 0 1 0-409.6z" fill="#DEDEDE" p-id="5219"></path><path d="M1199.542857 204.8H204.8a58.514286 58.514286 0 0 0-58.514286 58.514286v643.657143a58.514286 58.514286 0 0 0 58.514286 58.514285h994.742857a58.514286 58.514286 0 0 0 58.514286-58.514285V263.314286a58.514286 58.514286 0 0 0-58.514286-58.514286zM643.657143 789.942857a234.057143 234.057143 0 1 1 234.057143-234.057143 234.057143 234.057143 0 0 1-234.057143 234.057143z" fill="#DEDEDE" p-id="5220"></path><path d="M403.163429 204.8A87.771429 87.771429 0 0 1 468.114286 58.514286h351.085714a87.771429 87.771429 0 0 1 64.950857 146.285714h69.046857A144.530286 144.530286 0 0 0 965.485714 146.285714a146.285714 146.285714 0 0 0-146.285714-146.285714H468.114286a146.285714 146.285714 0 0 0-146.285715 146.285714 144.530286 144.530286 0 0 0 12.288 58.514286z" fill="#0461A7" p-id="5221"></path><path d="M380.342857 175.542857h29.257143v29.257143h-29.257143zM877.714286 175.542857h29.257143v29.257143h-29.257143z" fill="#0461A7" p-id="5222"></path><path d="M1170.285714 146.285714H117.028571a117.028571 117.028571 0 0 0-117.028571 117.028572v117.028571h58.514286V263.314286a58.514286 58.514286 0 0 1 58.514285-58.514286h1053.257143a58.514286 58.514286 0 0 1 58.514286 58.514286v643.657143a58.514286 58.514286 0 0 1-58.514286 58.514285H117.028571a58.514286 58.514286 0 0 1-58.514285-58.514285v-234.057143H0v234.057143a117.028571 117.028571 0 0 0 117.028571 117.028571h1053.257143a117.028571 117.028571 0 0 0 117.028572-117.028571V263.314286a117.028571 117.028571 0 0 0-117.028572-117.028572z" fill="#0461A7" p-id="5223"></path><path d="M29.257143 351.085714a29.257143 29.257143 0 1 1-29.257143 29.257143 29.257143 29.257143 0 0 1 29.257143-29.257143zM29.257143 468.114286a29.257143 29.257143 0 1 1-29.257143 29.257143 29.257143 29.257143 0 0 1 29.257143-29.257143zM29.257143 643.657143a29.257143 29.257143 0 1 1-29.257143 29.257143 29.257143 29.257143 0 0 1 29.257143-29.257143zM643.657143 292.571429a263.314286 263.314286 0 1 0 263.314286 263.314285 263.314286 263.314286 0 0 0-263.314286-263.314285z m0 468.114285a204.8 204.8 0 1 1 204.8-204.8 204.8 204.8 0 0 1-204.8 204.8z" fill="#0461A7" p-id="5224"></path></svg>