<?xml version="1.0" standalone="no"?><!DOCTYPE svg PUBLIC "-//W3C//DTD SVG 1.1//EN" "http://www.w3.org/Graphics/SVG/1.1/DTD/svg11.dtd"><svg t="1566870209519" class="icon" viewBox="0 0 1024 1024" version="1.1" xmlns="http://www.w3.org/2000/svg" p-id="11575" xmlns:xlink="http://www.w3.org/1999/xlink" width="128" height="128"><defs><style type="text/css"></style></defs><path d="M581.82 277.78a589.6 589.6 0 0 1 191.06 31.64c131.5 69.82 227.84 176.18 227.84 294.18 0 107.74-84.7 209.44-187.58 279.26a582.82 582.82 0 0 1-231.32 46.54c-257.16 0-465.46-190.6-465.46-325.8s209.46-325.82 465.46-325.82z" fill="#DEDEDE" p-id="11576"></path><path d="M512 231.22C229.24 231.22 0 449.06 0 603.6S229.24 976 512 976s512-189.02 512-372.4-229.24-372.38-512-372.38z m0 698.18c-257.16 0-465.46-190.6-465.46-325.8S254.84 277.78 512 277.78s465.46 165.46 465.46 325.82S769.16 929.4 512 929.4z" fill="#999999" p-id="11577"></path><path d="M512 68.32a23.28 23.28 0 0 1 23.28 23.28v139.62a23.28 23.28 0 1 1-46.56 0V91.6A23.28 23.28 0 0 1 512 68.32zM880.4 190.74a23.24 23.24 0 0 1 0.14 32.9 0.46 0.46 0 0 1-0.14 0.14l-98.66 98.68a23.38 23.38 0 0 1-33.06-33.06l98.68-98.66a23.26 23.26 0 0 1 32.92-0.14zM156.16 188.64a23.28 23.28 0 0 1 32.82 0l98.68 98.68a23.26 23.26 0 0 1 0.12 32.9l-0.12 0.14a23.28 23.28 0 0 1-32.82 0l-98.68-98.68A23.28 23.28 0 0 1 156 188.78a0.92 0.92 0 0 1 0.16-0.14zM512 394.14a232.42 232.42 0 0 0-88.2 17.46c-10.94 4.64 0 12.56-10.24 18.6l30.94 23.28a186.2 186.2 0 1 1-118.68 173.38h-46.54A232.72 232.72 0 1 0 512 394.14z" fill="#999999" p-id="11578"></path><path d="M433.34 409.72A23.28 23.28 0 1 1 410 433a23.28 23.28 0 0 1 23.34-23.28zM349.1 464a23.28 23.28 0 1 1-23.28 23.26A23.26 23.26 0 0 1 349.1 464zM302.54 603.6a23.28 23.28 0 1 1-23.26 23.26 23.26 23.26 0 0 1 23.26-23.26z" fill="#999999" p-id="11579"></path></svg>