<?xml version="1.0" standalone="no"?><!DOCTYPE svg PUBLIC "-//W3C//DTD SVG 1.1//EN" "http://www.w3.org/Graphics/SVG/1.1/DTD/svg11.dtd"><svg t="1573545399722" class="icon" viewBox="0 0 1024 1024" version="1.1" xmlns="http://www.w3.org/2000/svg" p-id="3622" xmlns:xlink="http://www.w3.org/1999/xlink" width="128" height="128"><defs><style type="text/css"></style></defs><path d="M139.34 114v20.16h60a48 48 0 0 1 48 48v611.6a96 96 0 0 1-96 96h-12V906H906V114z" fill="#DEDEDE" p-id="3623"></path><path d="M569.32 575.66a25.88 25.88 0 0 1-18.1-7.24l-88.92-91-93.06 91a25.86 25.86 0 0 1-44-18.6V116a25.84 25.84 0 0 1 25.86-25.84h218.22A25.84 25.84 0 0 1 595.18 116v433.8a25.34 25.34 0 0 1-16 23.78 22.12 22.12 0 0 1-9.86 2.08z m-106.94-156.34a26.5 26.5 0 0 1 18.92 8.1l65.88 68V134.16h-173.9v361.32l67.5-68a27.62 27.62 0 0 1 21.6-8.16z" fill="#0066B3" p-id="3624"></path><path d="M856.58 86H167.42a81.7 81.7 0 0 0-81.7 81.14V464h48V160.94A27.5 27.5 0 0 1 161.78 134h701a27.48 27.48 0 0 1 27.48 27.5V862a28 28 0 0 1-28 28H161.78a28 28 0 0 1-28-28v-98h-48v92.32A82.24 82.24 0 0 0 167.42 938h689.16a82.24 82.24 0 0 0 81.7-81.68V167.14A81.7 81.7 0 0 0 856.58 86z" fill="#0066B3" p-id="3625"></path><path d="M109.72 463.8m-24 0a24 24 0 1 0 48 0 24 24 0 1 0-48 0Z" fill="#0066B3" p-id="3626"></path><path d="M109.72 583.8m-24 0a24 24 0 1 0 48 0 24 24 0 1 0-48 0Z" fill="#0066B3" p-id="3627"></path><path d="M109.72 764.04m-24 0a24 24 0 1 0 48 0 24 24 0 1 0-48 0Z" fill="#0066B3" p-id="3628"></path></svg>