<?xml version="1.0" standalone="no"?><!DOCTYPE svg PUBLIC "-//W3C//DTD SVG 1.1//EN" "http://www.w3.org/Graphics/SVG/1.1/DTD/svg11.dtd"><svg t="1653622711602" class="icon" viewBox="0 0 1024 1024" version="1.1" xmlns="http://www.w3.org/2000/svg" p-id="4711" xmlns:xlink="http://www.w3.org/1999/xlink" width="200" height="200"><defs><style type="text/css">@font-face { font-family: feedback-iconfont; src: url("//at.alicdn.com/t/font_1031158_u69w8yhxdu.woff2?t=1630033759944") format("woff2"), url("//at.alicdn.com/t/font_1031158_u69w8yhxdu.woff?t=1630033759944") format("woff"), url("//at.alicdn.com/t/font_1031158_u69w8yhxdu.ttf?t=1630033759944") format("truetype"); }
</style></defs><path d="M539.733333 556.8c21.333333-104.533333 113.066667-179.2 219.733334-179.2H938.666667c8.533333 0-2.133333-17.066667 6.4-17.066667v-10.666666c-6.4 0 2.133333-17.066667-4.266667-17.066667h-179.2c-130.133333 0-243.2 93.866667-264.533333 224h42.666666z" fill="#00beeb" p-id="4712" data-spm-anchor-id="a313x.7781069.0.i54" class="selected"></path><path d="M825.6 213.333333l125.866667 125.866667c8.533333 8.533333 8.533333 23.466667 0 32-8.533333 8.533333-23.466667 8.533333-32 0l-125.866667-125.866667c-8.533333-8.533333-8.533333-23.466667 0-32 10.666667-8.533333 23.466667-8.533333 32 0z m110.933333 277.333334c12.8 0 21.333333 10.666667 21.333334 23.466666s-10.666667 21.333333-23.466667 21.333334c-12.8 0-21.333333-10.666667-21.333333-21.333334 2.133333-14.933333 12.8-23.466667 23.466666-23.466666z m-420.266666 44.8c12.8 0 23.466667 10.666667 23.466666 21.333333s-10.666667 21.333333-23.466666 21.333333-21.333333-10.666667-21.333334-21.333333c0-12.8 8.533333-21.333333 21.333334-21.333333z m19.2-337.066667c12.8 0 21.333333 10.666667 21.333333 23.466667s-10.666667 23.466667-21.333333 21.333333-21.333333-10.666667-21.333334-23.466667c-2.133333-10.666667 8.533333-21.333333 21.333334-21.333333z" fill="#00beeb" p-id="4713" data-spm-anchor-id="a313x.7781069.0.i55" class="selected"></path><path d="M108.8 288c0-25.6 19.2-44.8 44.8-44.8H533.333333V198.4H153.6C104.533333 198.4 64 238.933333 64 288v89.6h44.8v-89.6zM915.2 512v224c0 25.6-19.2 44.8-44.8 44.8H153.6c-25.6 0-44.8-19.2-44.8-44.8v-134.4H64v134.4c0 49.066667 40.533333 89.6 89.6 89.6h716.8c49.066667 0 89.6-40.533333 89.6-89.6V512h-44.8z" fill="#00beeb" p-id="4714" data-spm-anchor-id="a313x.7781069.0.i53" class="selected"></path><path d="M87.466667 356.266667c12.8 0 21.333333 10.666667 21.333333 23.466666 0 12.8-10.666667 21.333333-23.466667 21.333334-12.8 0-21.333333-10.666667-21.333333-21.333334 0-14.933333 10.666667-23.466667 23.466667-23.466666z m0 224c12.8 0 21.333333 10.666667 21.333333 23.466666 0 12.8-10.666667 23.466667-23.466667 21.333334-12.8 0-21.333333-10.666667-21.333333-21.333334 0-14.933333 10.666667-25.6 23.466667-23.466666-2.133333-2.133333-2.133333-2.133333 0 0z m0-134.4c12.8 0 21.333333 10.666667 21.333333 23.466666s-10.666667 21.333333-23.466667 21.333334-21.333333-10.666667-21.333333-23.466667c0-12.8 10.666667-21.333333 23.466667-21.333333z" fill="#00beeb" p-id="4715" data-spm-anchor-id="a313x.7781069.0.i56" class="selected"></path></svg>