<?xml version="1.0" standalone="no"?><!DOCTYPE svg PUBLIC "-//W3C//DTD SVG 1.1//EN" "http://www.w3.org/Graphics/SVG/1.1/DTD/svg11.dtd"><svg t="1653622591529" class="icon" viewBox="0 0 1024 1024" version="1.1" xmlns="http://www.w3.org/2000/svg" p-id="2344" xmlns:xlink="http://www.w3.org/1999/xlink" width="200" height="200"><defs><style type="text/css">@font-face { font-family: feedback-iconfont; src: url("//at.alicdn.com/t/font_1031158_u69w8yhxdu.woff2?t=1630033759944") format("woff2"), url("//at.alicdn.com/t/font_1031158_u69w8yhxdu.woff?t=1630033759944") format("woff"), url("//at.alicdn.com/t/font_1031158_u69w8yhxdu.ttf?t=1630033759944") format("truetype"); }
</style></defs><path d="M659.5 470.4H935.8v-85.02S824.22 153.5 686.92 120c-8.92-2.14-18-4-27.42-5.54z" fill="#DEDEDE" p-id="2345"></path><path d="M471.82 573.06V157.74C266 205.2 137.5 410.58 184.96 616.48a382.56 382.56 0 0 0 371.88 296.64 344.94 344.94 0 0 0 216-66.74c66.96-53.56 109.68-136 122.22-249.32l-51.22-24z" fill="#DEDEDE" p-id="2346"></path><path d="M574.48 69.12a21.24 21.24 0 0 1 21.26 20.18v382.58a21.26 21.26 0 0 1-42.5 0V89.3a21.24 21.24 0 0 1 21.24-20.18z" fill="#00beeb" p-id="2347" data-spm-anchor-id="a313x.7781069.0.i15" class="selected"></path><path d="M574.48 449.14h360.26a21.26 21.26 0 0 1 0 42.5H574.48a21.26 21.26 0 0 1 0-42.5z m-124-341.56a21.24 21.24 0 0 1 21.24 21.26v465.46a21.26 21.26 0 1 1-42.5 0V129.68a21.26 21.26 0 0 1 20.38-22z" fill="#00beeb" p-id="2348" data-spm-anchor-id="a313x.7781069.0.i12" class="selected"></path><path d="M450.58 573.06h439.74a21.26 21.26 0 1 1 0 42.5H450.58a21.26 21.26 0 1 1 0-42.5z m124-504.38V111.2A382.6 382.6 0 0 1 913.5 470H956A425.1 425.1 0 0 0 574.48 68.68zM130.28 410.24A382.58 382.58 0 0 1 450.58 150.52V108A425.04 425.04 0 0 0 89.26 396.64z" fill="#00beeb" p-id="2349" data-spm-anchor-id="a313x.7781069.0.i14" class="selected"></path><path d="M870 594.3c-35.62 208.28-233.34 348.22-441.6 312.58A382.56 382.56 0 0 1 128.78 647.44l-41.02 11.48c71.24 223.7 310.34 347.28 534 276a425.1 425.1 0 0 0 291.06-339.8zM110.5 381.76a21.26 21.26 0 1 1-21.24 21.26 21.26 21.26 0 0 1 21.24-21.26z m-21.24 85.02A21.26 21.26 0 1 1 68 488a21.26 21.26 0 0 1 21.26-21.22z" fill="#00beeb" p-id="2350" data-spm-anchor-id="a313x.7781069.0.i11" class="selected"></path><path d="M107.74 630.66A21.26 21.26 0 1 1 86.5 652a21.22 21.22 0 0 1 21.24-21.34z" fill="#00beeb" p-id="2351" data-spm-anchor-id="a313x.7781069.0.i16" class="selected"></path></svg>