<?xml version="1.0" standalone="no"?><!DOCTYPE svg PUBLIC "-//W3C//DTD SVG 1.1//EN" "http://www.w3.org/Graphics/SVG/1.1/DTD/svg11.dtd"><svg t="1566870039873" class="icon" viewBox="0 0 1185 1024" version="1.1" xmlns="http://www.w3.org/2000/svg" p-id="4828" xmlns:xlink="http://www.w3.org/1999/xlink" width="148.125" height="128"><defs><style type="text/css"></style></defs><path d="M431.044462 53.880558A298.49829 298.49829 0 0 0 134.701394 354.803473a296.343068 296.343068 0 0 0 153.55959 256.471455c42.296238 23.976848 33.136543 80.820837 61.962641 89.172323 26.940279 0 39.60221-35.022363 80.820837-44.720863 80.820837-7.273875 107.761115-143.861089 107.761115-143.861089s11.58432-75.432781 53.880558-107.761116c74.35517-28.287293 80.820837-134.701394 80.820837-134.701394l-53.880558-107.761116s-91.327545-107.761115-188.581952-107.761115zM915.969482 323.283346c42.835043 0 78.396212 0 107.761115 26.940279 83.514865 79.20442 134.701394 146.82452 134.701395 269.402789 0 112.610366-17.780584 190.737174-107.761116 242.46251-42.296238 23.976848-25.054459 45.798474-53.880558 53.880558-10.776112 0-18.858195 47.684294-26.940279 39.871612a114.765588 114.765588 0 0 0-53.880557-30.711917c-148.979742-40.949224-296.343068-134.701394-296.343068-300.922915A298.49829 298.49829 0 0 1 915.969482 323.283346z" fill=" rgba(224, 62, 20,0.2)" p-id="4829"></path><path d="M835.148645 269.402789a350.223625 350.223625 0 0 0-350.223625 350.223625c0 193.970008 174.303604 303.34754 350.223625 350.223625 31.789529 11.853723 62.232044 55.227572 116.651408 51.994739 34.214154-9.429098 2.155222-75.971586 51.994738-103.989477A343.488556 343.488556 0 0 0 1185.37227 619.626414a350.223625 350.223625 0 0 0-350.223625-350.223625z m142.783478 611.274927c-42.296238 23.976848-33.136543 80.820837-61.962641 89.172323-26.940279 0-36.908182-35.022363-80.820837-44.720862-148.979742-40.949224-296.343068-134.701394-296.343068-300.922915a296.343068 296.343068 0 1 1 592.686136 0 296.343068 296.343068 0 0 1-153.55959 256.471454z" fill="#e03e14" p-id="4830"></path><path d="M848.618785 627.977901c-20.744015-55.496974-93.75217-42.835043-94.290977 22.091028 0 35.830571 31.789529 63.040253 53.880558 77.318601s40.410418 26.940279 40.410419 26.940278 20.474612-13.200737 40.410418-26.940278 53.880558-42.026835 53.880558-77.588004c0-65.195475-72.46935-77.588003-94.290976-21.821625zM200.166272 342.410944l38.255196-38.255196a26.940279 26.940279 0 0 1 37.985793 0 26.940279 26.940279 0 0 1 0 38.255196l-37.985793 37.985794a26.940279 26.940279 0 0 1-38.255196 0 26.940279 26.940279 0 0 1 0-37.985794zM310.08261 350.223625l37.985793-37.985793a26.940279 26.940279 0 0 1 38.255196 0 26.940279 26.940279 0 0 1 0 37.985793l-38.255196 37.985794A26.940279 26.940279 0 0 1 310.08261 350.223625zM419.998948 350.223625L457.984741 312.237832A26.940279 26.940279 0 1 1 495.970534 350.223625L457.984741 388.209419A26.940279 26.940279 0 1 1 419.998948 350.223625zM57.652197 188.581952a26.940279 26.940279 0 1 1-26.940279 26.940279 26.940279 26.940279 0 0 1 26.940279-26.940279zM26.940279 296.343068a26.940279 26.940279 0 1 1-26.940279 26.940278 26.940279 26.940279 0 0 1 26.940279-26.940278zM50.378321 443.43699a26.940279 26.940279 0 1 1-26.940278 26.940279 26.940279 26.940279 0 0 1 26.940278-26.940279z" fill="#e03e14" p-id="4831"></path><path d="M511.865299 592.686135l3.502236-10.506709A556.047356 556.047356 0 0 1 350.223625 655.726388c-41.218627 9.6985-53.880558 44.720863-80.820836 44.720863-28.826098-8.082084-19.666404-65.195475-61.962642-89.172323a307.388582 307.388582 0 0 1-132.815575-150.326756l-48.761904 18.049986a360.191529 360.191529 0 0 0 155.714812 171.340174c49.839516 26.940279 17.780584 94.560379 51.994738 103.989476 53.880558 3.232833 84.861878-40.141016 116.651407-51.994738a673.506972 673.506972 0 0 0 188.581952-80.820836zM350.223625 53.880558a298.49829 298.49829 0 0 1 296.343068 271.288608V323.283346l53.880558 13.200737A350.223625 350.223625 0 0 0 33.405946 204.207314l49.30071 23.438042A296.343068 296.343068 0 0 1 350.223625 53.880558z" fill="#e03e14" p-id="4832"></path></svg>