<?xml version="1.0" standalone="no"?><!DOCTYPE svg PUBLIC "-//W3C//DTD SVG 1.1//EN" "http://www.w3.org/Graphics/SVG/1.1/DTD/svg11.dtd"><svg t="1653544856911" class="icon" viewBox="0 0 1024 1024" version="1.1" xmlns="http://www.w3.org/2000/svg" p-id="19734" xmlns:xlink="http://www.w3.org/1999/xlink" width="200" height="200"><defs><style type="text/css">@font-face { font-family: feedback-iconfont; src: url("//at.alicdn.com/t/font_1031158_u69w8yhxdu.woff2?t=1630033759944") format("woff2"), url("//at.alicdn.com/t/font_1031158_u69w8yhxdu.woff?t=1630033759944") format("woff"), url("//at.alicdn.com/t/font_1031158_u69w8yhxdu.ttf?t=1630033759944") format("truetype"); }
</style></defs><path d="M393.28 171.84A221.08 221.08 0 0 0 173.78 394.52v0.22a219.48 219.48 0 0 0 113.74 190c31.32 17.76 24.54 59.86 45.88 66 20 0 29.34-26 59.88-33.14 59.86-5.38 79.82-106.54 79.82-106.54s8.58-55.88 39.9-79.82c55.08-20.96 59.86-99.78 59.86-99.78l-39.9-79.82s-67.66-79.8-139.68-79.8z m359.18 199.54c31.72 0 58 0 79.82 20C894.14 450 932 500.1 932 590.88c0 83.42-13.16 141.28-79.82 179.6-31.32 17.76-18.56 34-39.9 39.9-8 0-14 35.32-20 29.54a84.98 84.98 0 0 0-39.9-22.74c-110.36-30.34-219.5-99.78-219.5-222.9A221.08 221.08 0 0 1 752.24 371.4z" fill="#DEDEDE" p-id="19735"></path><path d="M692.6 331.48a259.4 259.4 0 0 0-259.42 259.4c0 143.68 129.1 224.7 259.42 259.42 23.54 8.78 46 40.9 86.4 38.52 25.34-7 1.6-56.28 38.5-77.04A254.44 254.44 0 0 0 952 590.88a259.4 259.4 0 0 0-259.4-259.4z m105.74 452.76c-31.32 17.76-24.54 59.88-45.88 66-20 0-27.34-26-59.86-33.12-110.36-30.34-219.5-99.78-219.5-222.9a219.52 219.52 0 1 1 325.24 190z" fill="#fbb670" p-id="19736" data-spm-anchor-id="a313x.7781069.0.i37" class="selected"></path><path d="M702.56 597.08c-15.36-41.12-69.44-31.74-69.84 16.36 0 26.54 23.56 46.7 40 57.26s30 20 30 20 15.18-9.78 30-20 39.9-31.12 39.9-57.46c-0.22-48.3-53.88-57.48-70.06-16.16zM222.26 385.56l28.34-28.34a20 20 0 0 1 28.24 28.22v0.12l-28.24 28.14a20 20 0 0 1-28.22 0.1l-0.12-0.1a20 20 0 0 1 0-28.14z m81.42 5.78l28.14-28.14a20 20 0 0 1 28.22 0 20 20 0 0 1 0 28.14l-28.32 28.14a20 20 0 0 1-28.14-28.14z m81.42 0l28.12-28.14a20 20 0 0 1 30.32 26 18.7 18.7 0 0 1-2.18 2.18l-28.14 28.14a20 20 0 1 1-30.3-26 20.4 20.4 0 0 1 2.18-2.18z m-268.4-119.72a20 20 0 1 1-20 20 20 20 0 0 1 20-20zM94 351.44a20 20 0 1 1-20 20 20 20 0 0 1 20-20z m17.36 108.94a20 20 0 1 1-20 20 20 20 0 0 1 19.96-20z" fill="#fbb670" p-id="19737" data-spm-anchor-id="a313x.7781069.0.i38" class="selected"></path><path d="M453.14 570.94l2.6-7.78a412 412 0 0 1-122.34 54.46c-30.52 7.2-39.9 33.14-59.86 33.14-21.34-6-14.56-48.3-45.88-66a227.6 227.6 0 0 1-98.38-111.34l-36.12 13.36a266.62 266.62 0 0 0 115.34 126.92c36.9 20 13.16 70 38.5 77.02 40 2.4 62.86-29.72 86.4-38.5a499.16 499.16 0 0 0 139.7-59.88zM333.4 171.84a221.1 221.1 0 0 1 219.5 200.94v-1.4l40 9.78a259.42 259.42 0 0 0-494-98l36.52 17.36a219.5 219.5 0 0 1 197.98-128.68z" fill="#fbb670" p-id="19738" data-spm-anchor-id="a313x.7781069.0.i40" class="selected"></path></svg>