<?xml version="1.0" standalone="no"?><!DOCTYPE svg PUBLIC "-//W3C//DTD SVG 1.1//EN" "http://www.w3.org/Graphics/SVG/1.1/DTD/svg11.dtd"><svg t="1566870072473" class="icon" viewBox="0 0 1025 1024" version="1.1" xmlns="http://www.w3.org/2000/svg" p-id="6130" xmlns:xlink="http://www.w3.org/1999/xlink" width="128.125" height="128"><defs><style type="text/css"></style></defs><path d="M682.912054 463.781452h319.003115v-98.154805S873.086988 97.909418 714.566978 59.13827c-10.306254-2.45387-20.857896-4.662353-31.654924-6.380062z" fill="rgba(154,107,61,0.2)" p-id="6131"></path><path d="M466.235322 582.303379V102.817158a441.696621 441.696621 0 0 0 98.154805 872.10544 398.26312 398.26312 0 0 0 249.313204-77.051522c77.296909-61.837527 126.619698-157.047688 141.097532-287.838965l-59.13827-27.728732z" fill="rgba(154,107,61,0.2)" p-id="6132"></path><path d="M584.757249 0.490774a24.538701 24.538701 0 0 1 24.538701 23.311766v441.696621a24.538701 24.538701 0 0 1-49.077402 0v-441.696621a24.538701 24.538701 0 0 1 24.538701-23.311766z" fill="#9a6b3d" p-id="6133"></path><path d="M584.757249 439.242751h415.930985a24.538701 24.538701 0 0 1 0 49.077402H584.757249a24.538701 24.538701 0 0 1 0-49.077402zM441.696621 44.905823a24.538701 24.538701 0 0 1 24.538701 24.538701v537.397556a24.538701 24.538701 0 1 1-49.077402 0V70.426072a24.538701 24.538701 0 0 1 24.538701-25.520249z" fill="#9a6b3d" p-id="6134"></path><path d="M441.696621 582.303379h507.705727a24.538701 24.538701 0 1 1 0 49.077402H441.696621a24.538701 24.538701 0 1 1 0-49.077402zM584.757249 0v49.077402a441.696621 441.696621 0 0 1 391.392284 414.213276h49.077402A490.774023 490.774023 0 0 0 584.757249 0zM71.898394 394.336928A441.696621 441.696621 0 0 1 441.696621 94.474v-49.077403A490.774023 490.774023 0 0 0 24.538701 378.632159z" fill="#9a6b3d" p-id="6135"></path><path d="M925.845195 606.84208a441.696621 441.696621 0 0 1-855.66451 61.346753l-47.359693 13.250899a490.774023 490.774023 0 0 0 952.59238-73.616104zM49.077402 361.455068a24.538701 24.538701 0 1 1-24.538701 24.538701 24.538701 24.538701 0 0 1 24.538701-24.538701zM24.538701 459.609873a24.538701 24.538701 0 1 1-24.538701 24.538701 24.538701 24.538701 0 0 1 24.538701-24.538701z" fill="#9a6b3d" p-id="6136"></path><path d="M45.887371 648.803259a24.538701 24.538701 0 1 1-24.538701 24.538701 24.538701 24.538701 0 0 1 24.538701-24.538701z" fill="#9a6b3d" p-id="6137"></path></svg>