<?xml version="1.0" standalone="no"?><!DOCTYPE svg PUBLIC "-//W3C//DTD SVG 1.1//EN" "http://www.w3.org/Graphics/SVG/1.1/DTD/svg11.dtd"><svg t="1566983556070" class="icon" viewBox="0 0 1024 1024" version="1.1" xmlns="http://www.w3.org/2000/svg" p-id="3305" xmlns:xlink="http://www.w3.org/1999/xlink" width="32" height="32"><defs><style type="text/css"></style></defs><path d="M312.78 480.1a108 108 0 1 0 108 108 108 108 0 0 0-108-108z m0 168a60 60 0 1 1 60-60 60 60 0 0 1-60 60z" fill="#9a6b3d" p-id="3306"></path><path d="M184.84 831.16v-2.1a128 128 0 0 1 256 0v2.1h48v-2.1c0-96.78-78.78-175.24-176-175.24s-176 78.46-176 175.24v2.1zM76.78 376.46a24 24 0 1 1-24 24 24 24 0 0 1 24-24zM76.78 464a24 24 0 1 1-24 24 24 24 0 0 1 24-24zM76.78 576.44a24 24 0 1 1-24 24 24 24 0 0 1 24-24zM422.32 216.18a24 24 0 1 1-24 24 24 24 0 0 1 24-24zM988.78 563.66a24 24 0 1 1-24 24 24 24 0 0 1 24-24zM622.36 783.16h257.14c11.84 0 21.42 10.74 21.42 24s-9.58 24-21.42 24H622.36c-11.84 0-21.44-10.74-21.44-24s9.6-24 21.44-24zM708.34 695.54h172.8c12 0 21.6 10.74 21.6 24s-9.66 24-21.6 24h-172.8c-12 0-21.6-10.76-21.6-24s9.68-24 21.6-24zM729.02 109.02a260 260 0 1 0 260 260 260 260 0 0 0-260-260z m0 472a212 212 0 1 1 212-212 212 212 0 0 1-212 212z" fill="#9a6b3d" p-id="3307"></path><path d="M100.78 400.46v-93.14A43.18 43.18 0 0 1 144 264.18h279.16c-0.84-12.42-1.3-24.92-1.3-37.56 0-3.48 0-6.96 0.14-10.44H140a87.38 87.38 0 0 0-87.26 87.5v96.78zM981.86 588.52c-5.72 0-11.4-0.12-17.08-0.28v236.8a43.18 43.18 0 0 1-43.2 43.14H144a43.18 43.18 0 0 1-43.2-43.14V600.46h-48v228.22A87.38 87.38 0 0 0 140 916.18h785.5a87.4 87.4 0 0 0 87.28-87.5V587.66q-15.36 0.84-30.92 0.86z" fill="#9a6b3d" p-id="3308"></path><path d="M680.98 371.12q-14.82 7.26-30.64 13.84v95.56q0 27.66-29.32 27.66h-30.3l-4.96-23.06a260 260 0 0 0 27.02 1.66q13.52 0 13.52-12.2v-80q-25.38 8.58-41.18 13.18l-6-23.72a435.04 435.04 0 0 0 47.12-13.52v-75.84h-42.12v-23.06h42.18v-60.94h24v60.94h33.28v23.06h-33.24v66.56q18.44-8.22 30.64-14.16z m53.72 125.86v15.16h-23.4v-193.06a361.74 361.74 0 0 1-26 35.58l-8-25.04A334.6 334.6 0 0 0 734.36 212l23.06 4.6a397.36 397.36 0 0 1-18.44 51.74h59.64a364.86 364.86 0 0 0-19.44-51.08L802 211a468.5 468.5 0 0 1 18.12 54l-8.88 3.3H874v23.1h-57.26v44.8h50.74v22.4h-50.74v44.48h50.74v22h-50.74v49.1h60.94v22.72z m58.64-205.58h-58.64v44.8h58.64z m-58.64 67.2v44.48h58.64V358.6z m0 66.56v49.1h58.64v-49.1z" fill="#9a6b3d" p-id="3309"></path></svg>