<?xml version="1.0" standalone="no"?><!DOCTYPE svg PUBLIC "-//W3C//DTD SVG 1.1//EN" "http://www.w3.org/Graphics/SVG/1.1/DTD/svg11.dtd"><svg t="1652778767119" class="icon" viewBox="0 0 1024 1024" version="1.1" xmlns="http://www.w3.org/2000/svg" p-id="14176" xmlns:xlink="http://www.w3.org/1999/xlink" width="200" height="200"><defs><style type="text/css">@font-face { font-family: feedback-iconfont; src: url("//at.alicdn.com/t/font_1031158_u69w8yhxdu.woff2?t=1630033759944") format("woff2"), url("//at.alicdn.com/t/font_1031158_u69w8yhxdu.woff?t=1630033759944") format("woff"), url("//at.alicdn.com/t/font_1031158_u69w8yhxdu.ttf?t=1630033759944") format("truetype"); }
</style></defs><path d="M465.64 444.38c-24.92-0.9-49.9-0.7-74.84-0.88h-38.56V376c20-3 38.52-5.7 57.04-8.56 23.74-3.68 34.78-14.2 32.42-30.62-2.48-17.26-17.08-24.88-40.92-21.28a55.68 55.68 0 0 0-7.88 1.64c-51.44 15.68-104.28 19.62-157.7 18.76-8.76-0.14-18.56-2-26 1.2-7.86 3.42-19.22 12.5-18.74 18.24 0.8 9.26 8.26 20.42 16.26 25.82 6.72 4.52 18.2 2.36 27.58 2.48 20.54 0.26 41.1 0 63.18 0-0.62 13.74-2.46 26.52-1.48 39.08 1.4 17.76-6.64 21.46-22.56 20.96-30.98-1-62-0.62-93.06 0-14.36 0.3-24.58 6.8-24.54 23.32s8.72 24.8 24.7 25.7c8.74 0.5 17.52 0.12 26.28 0.14h85.7c4.24 52 4.24 52-43.02 53.18h-4c-33.56 1.14-47.7 14.16-49.14 48.18-1.24 29.62-1.16 59.36-0.34 89 0.9 32.42 13.58 48.22 46.36 49.48 56.52 2.2 113.2 1.58 169.76 0 24.18-0.66 38.22-16.14 39.44-40.44 1.6-32.28 2.24-64.74 0.82-97-1.52-34-17.26-48-51.52-49.14-17.3-0.6-34.66-0.12-52.86-0.12v-53.06c40.46 0 78.18 0.24 115.88-0.14 15.66-0.16 26-8.44 26.34-24.54 0.22-15.42-10.02-23.36-24.6-23.9zM378.48 594c15.46-0.48 22.34 6.74 22.34 21.64v4c-1.04 74.66 10.32 64.54-63.06 65.28-24.22 0.24-48.42-0.54-72.64-0.48-12.5 0-18.96-6-19.16-18.14-0.3-18.14 0-36.32 0.2-54.48 0.22-12.32 6.62-18 19.22-17.8 19.5 0.4 39.02 0.1 58.54 0.1 18.24 0.1 36.42 0.54 54.56-0.12zM922.42 404.62c-18.62-0.4-37.26 0-54.22 0 0-27.56 0.76-52.34-0.22-77.04-0.86-22.18-21.36-36-38.82-25.02-8.48 5.32-15.56 18.5-16.62 28.82-2.42 23.74-0.76 48-0.76 71.46-37.16 4.1-46.56 9.86-46.2 28.24 0.56 27.42 22.76 24.98 42.4 27.42 0.98 51.5-2.6 101.46-15.28 150.62-8.36 32.36-27.06 56.76-55.7 73.7q-13.02 7.72-26.26 15.06c-12.86 7.14-19.22 16.9-12.6 31.6 6.36 14.1 18 19.76 32.8 17.54a64.56 64.56 0 0 0 20.68-7.76c47.7-26 83.38-62.7 92.38-118.16 7.64-47.06 11.4-94.72 17.18-142 0.86-7.02 2.68-19.5 5.26-19.82 13.74-1.7 28.46-2.56 41.5 1.06 4.96 1.38 9.02 15.56 8.94 23.86q-0.78 80.82-3.9 161.64c-1.22 30.96-10.56 39.1-40.22 46.12-8.82 2.1-20.56 9.7-23.08 17.38-8.48 25.7 10 45.68 36.98 42.7 46.24-5.14 76.58-33.52 78.8-79.76 3.52-73.32 4.84-146.76 5.42-220.18 0.3-35.28-13.02-46.72-48.46-47.48z" fill="#f7e1af" p-id="14177"></path><path d="M718.96 657.2c10-0.7 22.32-0.34 29.42-5.86s14.92-20.28 12.18-26.5a554.14 554.14 0 0 0-42.78-79.14c-7.16-10.96-21.3-9.5-32.92-2-12 8-12 18.64-6.88 30.14 4.56 10.34 9.86 20.34 16.1 33.02l-82.36 13.18c17.48-44.6 57.4-74.22 58.72-123.38 18.34 0 37.22 0.76 56-0.22 15.46-0.82 27.72-7.54 28.3-25.36 0.48-14.66-12.28-25.78-30-25.86-52-0.28-103.82 0-155.74-0.16-17.06 0-27.62 7.58-27.3 24.92 0.3 16.28 9.42 26.34 26.68 26.68 13.4 0.26 26.8 0 44 0-4.6 14.42-6.46 26-11.76 35.8-16 29.42-32.9 58.32-50.14 87-9.86 16.38-8.4 31.82 0.36 47.68 8.56 15.5 22.16 12.4 35.54 9.74 36.86-7.34 73.62-15.18 110.56-22 7.06-1.06 14.78 2.8 22.02 2.32zM150 547.86c-11.24-6.38-23.56-0.94-30 12.14a422.88 422.88 0 0 0-6.7 14.68Q86 637.3 58.8 700c-2.64 6.14-5.68 12.38-6.74 18.86-2.52 15.26 7.32 26.16 29.54 26.52 4.78-4.18 16.32-10 21.34-19.44 17.68-33.12 34-67.06 49.06-101.44 6.96-15.82 12.44-33.2 13.62-50.2 0.6-8.74-7.62-21.9-15.62-26.44zM582.48 375.86h66.68c20.86 0 41.76-0.3 62.62 0 17.18 0.34 26.84-7 27.32-24.62s-9.72-26.9-25.78-27.24c-43.76-0.88-87.54-0.6-131.32-0.18-17.38 0.18-25.52 10.7-25.12 27.5 0.38 16.32 9.12 24.68 25.6 24.54zM146.54 397.56c15.84 8.66 33.3-10.62 28.62-28.7-4.84-18.74-49.16-53.86-73.76-54.52-3.8 2.54-13.88 6-17.74 12.9-3.46 6.18-3.46 20 0.88 23.82 19.46 17.08 39.46 34.2 62 46.5zM111.34 513.84c17.42 10.1 35.78-1.16 36.3-22a59.02 59.02 0 0 0-1.8-8c-6.24-18.14-52-51.46-70.3-48.9-8.26 1.16-19.82 7.4-22.22 14-2.74 7.62 0 21.72 5.74 27a306.74 306.74 0 0 0 52.28 37.9zM792.24 128.72h154.66q24 0 24 24t-24 24h-154.66q-24 0-24-24t24-24z" fill="#f7e1af" p-id="14178"></path><path d="M893.56 75.4V230q0 24-24 24t-24-24V75.4q0-24 24-24t24 24zM923.34 809.4v90a24 24 0 0 1-24 24h-776a24 24 0 0 1-24-24v-90h-48v114a48 48 0 0 0 48 48h824a48 48 0 0 0 48-48v-114zM600 75.4a24 24 0 1 0 24-24 24 24 0 0 0-24 24z" fill="#f7e1af" p-id="14179"></path><path d="M624 51.4H99.34a48 48 0 0 0-48 48v114h48v-90a24 24 0 0 1 24-24H624z" fill="#f7e1af" p-id="14180"></path></svg>