<?xml version="1.0" standalone="no"?><!DOCTYPE svg PUBLIC "-//W3C//DTD SVG 1.1//EN" "http://www.w3.org/Graphics/SVG/1.1/DTD/svg11.dtd"><svg t="1566986009910" class="icon" viewBox="0 0 1024 1024" version="1.1" xmlns="http://www.w3.org/2000/svg" p-id="12367" xmlns:xlink="http://www.w3.org/1999/xlink" width="32" height="32"><defs><style type="text/css"></style></defs><path d="M512 0a512 512 0 1 0 512 512A512 512 0 0 0 512 0z m0 938.666667a426.666667 426.666667 0 1 1 426.666667-426.666667 426.666667 426.666667 0 0 1-426.666667 426.666667z" fill="#999999" p-id="12368"></path><path d="M512 213.333333a42.666667 42.666667 0 1 1-42.666667 42.666667 42.666667 42.666667 0 0 1 42.666667-42.666667zM512 384a42.666667 42.666667 0 0 1 42.666667 42.666667v341.333333a42.666667 42.666667 0 0 1-85.333334 0v-341.333333a42.666667 42.666667 0 0 1 42.666667-42.666667z" fill="#999999" p-id="12369"></path></svg>