<?xml version="1.0" standalone="no"?><!DOCTYPE svg PUBLIC "-//W3C//DTD SVG 1.1//EN" "http://www.w3.org/Graphics/SVG/1.1/DTD/svg11.dtd"><svg t="1566870239459" class="icon" viewBox="0 0 1024 1024" version="1.1" xmlns="http://www.w3.org/2000/svg" p-id="12747" xmlns:xlink="http://www.w3.org/1999/xlink" width="128" height="128"><defs><style type="text/css"></style></defs><path d="M970.556428 286.147113L691.436351 7.951275a23.282348 23.282348 0 0 0-39.699931 17.087832 9.637481 9.637481 0 0 0-0.091718 1.672096v250.221744a48.914097 48.914097 0 0 0 48.914096 48.914097h252.359488a23.225906 23.225906 0 0 0 17.638142-39.699931z m-273.398263-5.496045V79.399862l201.956731 201.251206zM256.021166 279.303514h279.261182a23.282348 23.282348 0 0 1 0 46.564696H256.021166a23.282348 23.282348 0 0 1 0-46.564696zM256.021166 512.021166h511.978834a23.282348 23.282348 0 0 1 0 46.564696H256.021166a23.282348 23.282348 0 0 1 0-46.564696zM256.021166 744.738818h511.978834a23.282348 23.282348 0 0 1 0 46.564696H256.021166a23.282348 23.282348 0 0 1 0-46.564696z" p-id="12748"></path><path d="M93.150558 93.129392a46.564696 46.564696 0 0 1 46.564696-46.564696h418.842387a23.282348 23.282348 0 0 0 0-46.564696H139.665867A93.087061 93.087061 0 0 0 46.585862 93.129392v441.99774h46.564696zM954.174122 395.658812a23.282348 23.282348 0 0 0-23.282349 23.282348v511.971779a46.564696 46.564696 0 0 1-46.564696 46.564696H139.665867a46.564696 46.564696 0 0 1-46.564696-46.564696v-95.796279H46.585862v95.796279a93.087061 93.087061 0 0 0 93.087061 93.087061h744.682375a93.087061 93.087061 0 0 0 93.087061-93.087061V418.934105a23.282348 23.282348 0 0 0-23.268237-23.275293z" p-id="12749"></path><path d="M69.684773 535.127132m-23.105966 0a23.105967 23.105967 0 1 0 46.211933 0 23.105967 23.105967 0 1 0-46.211933 0Z" p-id="12750"></path><path d="M69.684773 835.11666m-23.105966 0a23.105967 23.105967 0 1 0 46.211933 0 23.105967 23.105967 0 1 0-46.211933 0Z" p-id="12751"></path><path d="M69.684773 734.226485m-23.105966 0a23.105967 23.105967 0 1 0 46.211933 0 23.105967 23.105967 0 1 0-46.211933 0Z" p-id="12752"></path></svg>