<?xml version="1.0" standalone="no"?><!DOCTYPE svg PUBLIC "-//W3C//DTD SVG 1.1//EN" "http://www.w3.org/Graphics/SVG/1.1/DTD/svg11.dtd"><svg t="1566985748424" class="icon" viewBox="0 0 1024 1024" version="1.1" xmlns="http://www.w3.org/2000/svg" p-id="8823" xmlns:xlink="http://www.w3.org/1999/xlink" width="32" height="32"><defs><style type="text/css"></style></defs><path d="M512 992a480 480 0 1 1 0-960 480 480 0 0 1 0 960z m0-64a416 416 0 1 0 0-832 416 416 0 0 0 0 832z" p-id="8824" fill="#0066b3"></path><path d="M449.728 696.704a32.448 32.448 0 0 1-21.76-8.32l-167.68-152.32a28.8 28.8 0 0 1-1.024-42.24 32.704 32.704 0 0 1 44.544-0.96l143.168 130.112 259.776-299.392a32.64 32.64 0 0 1 44.288-4.096 28.8 28.8 0 0 1 4.352 42.048l-281.344 324.288a32.128 32.128 0 0 1-24.32 10.88z" p-id="8825" fill="#0066b3"></path></svg>