<?xml version="1.0" standalone="no"?><!DOCTYPE svg PUBLIC "-//W3C//DTD SVG 1.1//EN" "http://www.w3.org/Graphics/SVG/1.1/DTD/svg11.dtd"><svg t="1566973228451" class="icon" viewBox="0 0 1024 1024" version="1.1" xmlns="http://www.w3.org/2000/svg" p-id="5326" xmlns:xlink="http://www.w3.org/1999/xlink" width="32" height="32"><defs><style type="text/css"></style></defs><path d="M466.208 7.264l23.424-2.144h46.88l21.28 2.144v310.912l-2.144 2.144-2.112 4.256h-2.112l-2.144 2.144-6.4 2.112h-59.616l-6.4-2.112-2.144-2.144h-4.256v-4.256l-2.112-2.144-2.144-8.512V7.264z m215.104 502.592v151.232l-2.144 4.256-2.144 2.144-2.112 4.256h-4.256l-4.224 2.112-8.576 2.144h-89.472v238.528l19.2-4.256 19.2-2.144 17.056-6.4 17.024-4.256 8.512-2.112 8.48-4.256 17.056-6.4 17.056-8.512 14.944-8.512 16.96-8.544 14.976-8.512 12.736-10.656 14.912-10.624 27.68-23.456 12.8-12.768 10.656-12.768 12.8-14.88 10.624-12.8 10.656-14.912 8.512-14.912 8.48-17.024 8.576-14.912 8.48-17.024 6.4-17.056 10.656-34.08 6.4-17.024 2.112-19.2 4.256-16.992 2.176-19.2 2.144-38.336-2.144-29.792-2.176-14.912v-14.88l-6.4-29.824-8.48-29.856-4.256-12.8-4.32-12.736-10.624-27.712-14.912-25.536-12.736-25.536-17.056-21.312-19.2-23.424-19.168-21.312-21.312-19.168-21.248-17.024-23.488-17.024-25.472-14.912-25.6-12.8v349.28l-2.144 4.256-2.144 2.176-2.112 4.224-4.256 2.144h-4.224l-8.576 2.112h-125.632l-2.112 2.144-2.144 2.112v-146.976l2.144-4.256 2.112-4.256 4.256-2.144h57.536l8.48-2.112 6.4-2.144 4.224-2.112 4.32-6.4V15.776l42.56 12.768 21.28 6.4 19.2 6.368 21.312 8.512 19.168 10.656 19.2 8.512 16.96 10.656 19.2 12.8 17.024 10.656 17.056 12.736 14.88 14.912 17.056 14.912 14.944 14.944 27.648 29.792 12.8 17.056 12.8 17.024 10.56 19.168 10.688 17.024 21.344 38.336 8.48 19.168 6.4 21.28 12.8 40.48 6.336 21.312 4.32 21.28 2.112 21.312 4.256 23.424v70.304l-2.112 25.536-2.144 25.568-4.288 25.536-6.4 23.424-6.368 25.6-8.48 23.392-8.544 21.312-10.656 23.424-10.656 21.28-12.768 21.28-12.8 21.344-14.848 19.136-14.944 19.2-14.912 19.168-17.024 17.024-17.024 17.024-19.2 14.912-19.2 14.912-19.168 14.912-21.28 12.8-21.312 12.736-21.312 10.656-23.36 10.656-21.312 8.512-25.6 8.544-23.36 6.368-23.456 6.4-25.6 4.256-25.536 2.112-25.568 2.112-25.504 2.176-25.568-2.144-25.568-2.112-25.536-2.144-25.568-4.256-25.536-6.4-23.424-6.368-23.424-8.512-23.424-8.512-21.312-10.688-21.312-10.624-21.312-12.768-21.312-12.8-19.168-14.88-19.2-14.912-19.168-14.944-16.96-16.992-17.056-17.056-17.056-19.2-14.88-19.168-12.8-19.136-12.736-21.312-12.8-21.28-10.624-21.28-10.688-23.456-8.512-21.28-8.576-23.456-6.368-25.536-6.4-23.424-4.224-25.6-4.288-25.504-2.144-25.568v-48.96l2.144-21.344 2.112-23.392 4.32-21.312 4.256-21.28 4.224-21.344 12.8-40.448 8.512-21.312 8.512-19.168 8.544-19.136 10.624-19.2 10.688-17.024 12.736-19.136 12.8-17.024 12.736-17.056 12.8-14.944 14.88-14.88 14.944-14.912 14.912-14.912 34.048-25.568 17.056-12.768 17.088-12.768 19.2-10.656 19.104-8.512 19.168-10.656 19.168-8.512 19.2-6.4 21.28-6.4 21.312-6.368 21.28-6.4V339.52l2.144 4.288 2.112 2.112 6.4 2.144 6.368 2.112 6.4 2.144h57.504l4.256 2.144 4.224 4.224v151.232l-4.224-4.256H366.08l-8.544-2.112h-4.256l-2.112-2.144-4.256-4.256-2.112-2.144v-4.288l-2.144-6.368V141.408l-25.536 12.8-23.424 14.912-23.424 17.024-23.424 17.024-21.312 19.2-19.2 21.28-17.024 23.424-17.088 23.424-14.848 23.424-12.8 25.536-6.368 12.8-4.256 14.912-10.688 27.712-6.368 27.68-6.368 29.824-2.144 14.88v14.912L106.304 512v19.168l2.112 19.168 2.144 17.024 2.144 19.2 4.224 19.136 4.256 17.024 6.4 17.056 2.176 8.512 4.224 8.512 6.4 17.056 6.368 17.056 17.056 31.904 21.28 27.712 10.624 14.912 10.688 14.912 12.768 12.768 12.8 12.768 25.536 23.424 14.944 10.656 14.88 10.656 29.856 17.024 16.96 8.544 14.944 8.48 17.056 6.4 17.056 6.4 19.104 4.256 17.056 6.4 17.056 2.112 19.2 4.256v-238.496H366.08l-8.544-2.144-2.112-2.112h-4.224l-4.288-4.256-2.112-2.144v-4.256l-2.144-6.4v-144.832l2.144 2.144 2.112 2.144 6.4 4.256 6.336 2.112 6.432 2.144h121.408l4.256 2.112 4.224 4.288v144.8h32v-140.544l2.144-4.256 2.112-4.288 4.256-2.112h121.344l6.432-2.144 6.4-2.112 6.368-4.256 4.256-4.288z" fill="#009174" p-id="5327"></path></svg>