<?xml version="1.0" standalone="no"?><!DOCTYPE svg PUBLIC "-//W3C//DTD SVG 1.1//EN" "http://www.w3.org/Graphics/SVG/1.1/DTD/svg11.dtd"><svg t="1568603477263" class="icon" viewBox="0 0 1024 1024" version="1.1" xmlns="http://www.w3.org/2000/svg" p-id="7894" xmlns:xlink="http://www.w3.org/1999/xlink" width="128" height="128"><defs><style type="text/css"></style></defs><path d="M621.947259 667.306667h-220.728889a20.100741 20.100741 0 0 0-20.48 20.10074v211.13363c0 10.846815 9.140148 20.062815 20.48 20.062815h220.728889c11.377778 0 20.707556-9.216 20.707556-20.062815v-211.13363a20.328296 20.328296 0 0 0-20.707556-20.10074z" fill="#000000" p-id="7895"></path><path d="M613.110519 99.745185c-8.116148-14.032593-21.390222-23.324444-37.167408-23.324444h-128.379259c-16.156444 0-29.240889 9.291852-37.470815 23.324444L6.068148 878.440296c-13.50163 25.144889-2.123852 40.163556 21.845333 40.163556h128.037926c18.62163 0 25.675852-4.778667 35.00563-22.072889l320.587852-626.194963 320.739555 626.194963c9.481481 17.294222 16.459852 22.072889 35.00563 22.072889h128.113778c23.855407 0 35.460741-15.018667 21.997037-40.163556L613.110519 99.745185z" fill="#FF3204" p-id="7896"></path></svg>