<?xml version="1.0" standalone="no"?><!DOCTYPE svg PUBLIC "-//W3C//DTD SVG 1.1//EN" "http://www.w3.org/Graphics/SVG/1.1/DTD/svg11.dtd"><svg t="1566973199715" class="icon" viewBox="0 0 1034 1024" version="1.1" xmlns="http://www.w3.org/2000/svg" p-id="3856" xmlns:xlink="http://www.w3.org/1999/xlink" width="32.3125" height="32"><defs><style type="text/css"></style></defs><path d="M245.333333 474.666667h154.666667v80H245.333333v234.666666h250.666667v-80H325.333333v-74.666666H480V394.666667H325.333333V314.666667h176V234.666667H245.333333v240z" fill="#C6000B" p-id="3857"></path><path d="M517.333333 0C234.666667 0 5.333333 229.333333 5.333333 512s229.333333 512 512 512 512-229.333333 512-512S800 0 517.333333 0z m0 944c-240 0-432-197.333333-432-432s197.333333-432 432-432 432 197.333333 432 432-192 432-432 432z" fill="#C6000B" p-id="3858"></path><path d="M538.666667 314.666667h176v80h-154.666667v240h154.666667v80h-176v74.666666h256v-240H640V469.333333h154.666667V234.666667h-256v80z" fill="#C6000B" p-id="3859"></path></svg>