<?xml version="1.0" standalone="no"?><!DOCTYPE svg PUBLIC "-//W3C//DTD SVG 1.1//EN" "http://www.w3.org/Graphics/SVG/1.1/DTD/svg11.dtd"><svg t="1575875018200" class="icon" viewBox="0 0 1024 1024" version="1.1" xmlns="http://www.w3.org/2000/svg" p-id="5771" xmlns:xlink="http://www.w3.org/1999/xlink" width="128" height="128"><defs><style type="text/css"></style></defs><path d="M114.773333 153.173333h797.866667a22.613333 22.613333 0 0 1 21.333333 24.106667 22.613333 22.613333 0 0 1-21.333333 23.893333H114.773333a22.613333 22.613333 0 0 1-21.333333-23.893333 22.826667 22.826667 0 0 1 21.333333-24.106667zM111.36 412.8H426.666667a366.08 366.08 0 0 1 49.066666-48H111.36a24.106667 24.106667 0 0 0 0 48zM114.773333 576a24.106667 24.106667 0 0 0 0 48h230.186667a367.573333 367.573333 0 0 1 5.546667-48z m260.266667 211.626667H114.773333a24.106667 24.106667 0 0 0 0 48h285.866667a369.493333 369.493333 0 0 1-25.6-47.573334zM728.96 846.72A228.053333 228.053333 0 1 1 957.013333 618.666667a228.053333 228.053333 0 0 1-228.053333 228.053333z" fill="#DEDEDE" p-id="5772"></path><path d="M91.52 129.28H889.6a22.613333 22.613333 0 0 1 21.333333 23.893333 22.826667 22.826667 0 0 1-21.333333 24.106667H91.52a22.826667 22.826667 0 0 1-21.333333-24.106667 22.613333 22.613333 0 0 1 21.333333-23.893333zM680.96 342.826667A276.053333 276.053333 0 1 0 957.013333 618.666667a276.053333 276.053333 0 0 0-276.053333-275.84z m0 503.893333A228.053333 228.053333 0 1 1 909.013333 618.666667a228.053333 228.053333 0 0 1-228.053333 228.053333z" fill="#0066B3" p-id="5773"></path><path d="M671.573333 461.013333a24.533333 24.533333 0 0 1 24.106667 24.96v149.333334a24.106667 24.106667 0 1 1-48 0v-149.333334a24.533333 24.533333 0 0 1 23.893333-24.96z" fill="#0066B3" p-id="5774"></path><path d="M669.226667 612.906667h128a24.106667 24.106667 0 0 1 0 48h-128a24.106667 24.106667 0 0 1 0-48zM88.106667 388.906667H405.333333A353.493333 353.493333 0 0 1 452.48 341.333333H88.106667a24.106667 24.106667 0 0 0 0 48z m3.413333 163.626666a24.106667 24.106667 0 0 0 0 48h230.186667a359.253333 359.253333 0 0 1 5.546666-48z m260.266667 211.626667H91.52a24.106667 24.106667 0 0 0 0 48H377.6a346.666667 346.666667 0 0 1-25.813333-48z" fill="#0066B3" p-id="5775"></path></svg>