<?xml version="1.0" standalone="no"?><!DOCTYPE svg PUBLIC "-//W3C//DTD SVG 1.1//EN" "http://www.w3.org/Graphics/SVG/1.1/DTD/svg11.dtd"><svg t="1618456138958" class="icon" viewBox="0 0 1024 1024" version="1.1" xmlns="http://www.w3.org/2000/svg" p-id="1127" xmlns:xlink="http://www.w3.org/1999/xlink" width="128" height="128"><defs><style type="text/css"></style></defs><path d="M552.77795555 102.30518518S326.75157333 837.47346962 923.27480889 837.47346962c0 0 17.47626667-78.06065778-85.05116444-139.81013333s-209.7152-109.51793778-209.7152-109.51793778 165.44199111-89.71150222 170.10232888-253.98840889c4.66033778-164.27690667-175.92775111-256.31857778-245.83281778-231.85180444z" fill="#F3442E" p-id="1128"></path><path d="M544.62236445 609.11691851h-5.82542223c-11.65084445 0-19.80643555-9.32067555-19.80643555-20.97152s9.32067555-20.97152 20.97152-19.80643555h13.98101333c125.82912-4.66033778 224.86129778-107.18776889 224.86129778-233.01688889 0-128.15928889-104.8576-233.01688889-233.01688889-233.01688889s-233.01688889 104.8576-233.01688889 233.01688889c0 57.08913778 20.97152 111.84810667 58.25422222 154.95623111 6.99050667 8.15559111 6.99050667 20.97152-1.16508444 29.12711111-8.15559111 6.99050667-20.97152 6.99050667-29.12711111-1.16508445-44.27320889-50.09863111-68.73998222-115.34336-68.73998222-181.75317333 0-151.46097778 123.49895111-273.79484445 273.79484444-273.79484444 151.46097778 0 273.79484445 123.49895111 273.79484444 273.79484444 0 147.96572445-115.34336 267.96942222-263.30908444 273.79484445-4.66033778-1.16508445-8.15559111-1.16508445-11.65084444-1.16508445z" fill="#464765" p-id="1129"></path><path d="M978.03377778 941.16598518c-9.32067555 0-17.47626667-5.82542222-19.80643556-15.14609777-1.16508445-5.82542222-3.49525333-11.65084445-5.82542222-17.47626667C892.98261333 730.28570074 726.37553778 609.11691851 536.46677333 609.11691851c-191.07384889 0-358.84600889 121.16878222-417.10023111 302.92195556-1.16508445 4.66033778-2.33016889 8.15559111-3.49525333 12.81592889-3.49525333 10.48576-13.98101333 17.47626667-25.63185778 13.98101333-10.48576-3.49525333-17.47626667-13.98101333-13.98101333-25.63185778 1.16508445-4.66033778 2.33016889-9.32067555 4.66033777-13.98101333 64.07964445-198.06435555 248.16298667-330.88398222 455.54801778-330.88398222s390.30328889 131.65454222 455.54801778 328.55381333c2.33016889 5.82542222 3.49525333 12.81592889 5.82542222 18.64135112 3.49525333 10.48576-3.49525333 22.13660445-13.98101333 25.63185777H978.03377778z" fill="#464765" p-id="1130"></path></svg>