<?xml version="1.0" standalone="no"?><!DOCTYPE svg PUBLIC "-//W3C//DTD SVG 1.1//EN" "http://www.w3.org/Graphics/SVG/1.1/DTD/svg11.dtd"><svg t="1618456132915" class="icon" viewBox="0 0 1024 1024" version="1.1" xmlns="http://www.w3.org/2000/svg" p-id="984" xmlns:xlink="http://www.w3.org/1999/xlink" width="128" height="128"><defs><style type="text/css"></style></defs><path d="M910.09706667 233.54481778S524.45411556 405.97731555 548.92088889 906.96362667h191.07384889s178.25792 47.76846222 205.05486222-93.20675556c25.63185778-142.14030222-5.82542222-534.77376-5.82542222-534.77376s4.66033778-57.08913778-29.12711111-45.43829333z" fill="#e79e2d" p-id="985"></path><path d="M834.36657778 938.42090667H209.88131556c-44.27320889 0-79.22574222-12.81592889-102.52743111-38.44778667-32.62236445-36.11761778-31.45728-82.72099555-31.45728-90.87658667V146.16348445c0-11.65084445 9.32067555-20.97152 20.97152-20.97152s20.97152 9.32067555 20.97152 20.97152v664.09813333s-2.33016889 36.11761778 20.97152 60.58439111c15.14609778 16.31118222 39.61287111 25.63185778 72.23523555 25.63185778h618.65984s44.27320889 3.49525333 71.07015112-22.13660445c15.14609778-13.98101333 23.30168889-34.95253333 23.30168888-62.91456V475.88238222H573.38766222V579.57489778c-1.16508445 8.15559111 0 30.29219555 11.65084445 43.10812444 5.82542222 6.99050667 13.98101333 9.32067555 26.79694222 9.32067556h250.49315556c11.65084445 0 20.97152 9.32067555 20.97152 20.97152s-9.32067555 20.97152-20.97152 20.97152H610.67036445c-29.12711111 0-46.60337778-12.81592889-57.08913778-23.30168889-23.30168889-26.79694222-22.13660445-65.24472889-20.97152-73.40032V456.07594667c0-11.65084445 9.32067555-20.97152 20.97152-20.97152H945.0496c11.65084445 0 20.97152 9.32067555 20.97152 20.97152v356.51584c0 39.61287111-11.65084445 71.07015111-36.11761778 93.20675555-33.78744889 30.29219555-78.06065778 32.62236445-95.53692444 32.62236445z" fill="#464765" p-id="986"></path><path d="M943.88451556 360.53902222c-11.65084445 0-20.97152-9.32067555-20.97152-20.97152v-33.78744889c0-1.16508445 0-29.12711111-18.64135111-47.76846222-13.98101333-13.98101333-33.78744889-20.97152-61.74947556-20.97152H153.95726222c-11.65084445 0-20.97152-9.32067555-20.97152-20.97152s9.32067555-20.97152 20.97152-20.97152h689.72999112c39.61287111 0 69.90506667 11.65084445 90.87658666 33.78744889 31.45728 32.62236445 29.12711111 75.73048889 29.12711112 76.89557333v32.62236445c1.16508445 12.81592889-8.15559111 22.13660445-19.80643556 22.13660444z" fill="#464765" p-id="987"></path><path d="M162.11285334 237.04007111c-15.14609778 0-40.77795555-2.33016889-60.58439112-19.80643556-15.14609778-12.81592889-24.46677333-31.45728-24.46677333-53.59388444 0-25.63185778 5.82542222-44.27320889 19.80643556-58.25422222 17.47626667-17.47626667 44.27320889-20.97152 67.57489777-20.97152h507.97681778c5.82542222 0 117.67352889 5.82542222 173.59758222 118.83861333 4.66033778 10.48576 1.16508445 22.13660445-9.32067555 27.96202667-10.48576 4.66033778-22.13660445 1.16508445-27.96202667-9.32067556-46.60337778-90.87658667-137.47996445-96.70200889-138.64504888-96.70200888H163.27793778c-20.97152 0-32.62236445 2.33016889-38.44778666 8.1555911-4.66033778 4.66033778-6.99050667 13.98101333-6.99050667 27.96202667 0 10.48576 3.49525333 18.64135111 10.48576 24.46677333 12.81592889 10.48576 33.78744889 10.48576 40.77795555 10.48576 11.65084445-1.16508445 20.97152 6.99050667 22.13660445 17.47626667 1.16508445 11.65084445-6.99050667 20.97152-17.47626667 22.13660445-1.16508445 1.16508445-5.82542222 1.16508445-11.65084444 1.16508444zM721.35338667 572.58439111h-75.73048889c-11.65084445 0-20.97152-9.32067555-20.97152-20.97152s9.32067555-20.97152 20.97152-20.97152h75.73048889c11.65084445 0 20.97152 9.32067555 20.97152 20.97152s-9.32067555 20.97152-20.97152 20.97152z" fill="#464765" p-id="988"></path></svg>