<?xml version="1.0" standalone="no"?><!DOCTYPE svg PUBLIC "-//W3C//DTD SVG 1.1//EN" "http://www.w3.org/Graphics/SVG/1.1/DTD/svg11.dtd"><svg t="1618456126623" class="icon" viewBox="0 0 1024 1024" version="1.1" xmlns="http://www.w3.org/2000/svg" p-id="842" xmlns:xlink="http://www.w3.org/1999/xlink" width="128" height="128"><defs><style type="text/css"></style></defs><path d="M765.97469581 90.32909357S566.68354694 333.36707998 573.97468654 512c6.07594965 148.25317171 20.65822884 424.1012863 188.35443947 425.31647623 160.40507104 0 125.16456301-23.08860871 138.53165225-114.22785361 24.30379864-157.97469118 0-693.87345123 0-693.87345123s-64.4050664-55.89873688-134.88608245-38.88607782z" fill="#F3442E" p-id="843"></path><path d="M815.79748302 959.18989501H172.96200895c-21.87341877 1.21518994-41.31645769-4.86075973-54.68354695-19.4430389-29.16455838-29.16455838-27.94936844-81.41772545-26.7341785-89.924055V154.73415996c0-61.97468654 41.31645769-82.63291538 63.18987646-85.06329525H208.20251698c35.24050803 0 63.18987647 9.72151946 82.63291538 30.3797483 26.73417851 29.16455838 26.73417851 68.0506362 25.51898858 75.3417758v608.81015597c0 12.15189933-9.72151946 21.87341877-21.87341878 21.87341878s-21.87341877-9.72151946-21.87341877-21.87341878V175.39238881v-1.21518992s1.21518994-26.73417851-14.5822792-43.74683756c-10.93670939-10.93670939-27.94936844-17.01265905-51.03797714-17.01265906h-49.82278722c-4.86075973 1.21518994-24.30379864 7.29113959-24.30379865 42.53164763V852.253181c-1.21518994 10.93670939 0 43.74683756 14.58227919 58.32911673 3.64556979 3.64556979 9.72151946 7.29113959 23.08860871 7.29113959H807.2911535c10.93670939 1.21518994 44.9620275 0 60.7594966-14.58227918 7.29113959-7.29113959 10.93670939-15.79746912 10.93670939-29.16455837-1.21518994-82.63291538 0-725.46838946 0-731.54433912v-2.43037987s0-8.50632953-6.07594966-14.58227918c-7.29113959-7.29113959-20.65822884-10.93670939-40.10126776-10.93670939H350.37973903c-12.15189933 0-21.87341877-9.72151946-21.87341877-21.87341878s9.72151946-21.87341877 21.87341877-21.87341878h484.8607829c31.59493823 0 55.89873688 8.50632953 71.69620601 25.51898857 17.01265905 18.22784898 17.01265905 40.10126776 17.01265905 44.9620275 0 23.08860871-1.21518994 648.91142373 0 730.32914918 0 24.30379864-8.50632953 46.17721742-24.30379865 60.7594966-26.73417851 23.08860871-64.4050664 26.73417851-83.84810532 26.73417851z" fill="#464765" p-id="844"></path><path d="M505.92405035 809.72153337c-12.15189933 0-21.87341877-9.72151946-21.87341879-21.87341878v-425.31647624c0-12.15189933 9.72151946-21.87341877 21.87341879-21.87341878s21.87341877 9.72151946 21.87341877 21.87341878v425.31647624c0 13.36708926-9.72151946 21.87341877-21.87341877 21.87341878zM704.00000927 809.72153337c-12.15189933 0-21.87341877-9.72151946-21.87341878-21.87341878v-315.94938235c0-12.15189933 9.72151946-21.87341877 21.87341878-21.87341878s21.87341877 9.72151946 21.87341878 21.87341878v317.16457228c0 12.15189933-9.72151946 20.65822884-21.87341878 20.65822885z" fill="#464765" p-id="845"></path></svg>