<?xml version="1.0" standalone="no"?><!DOCTYPE svg PUBLIC "-//W3C//DTD SVG 1.1//EN" "http://www.w3.org/Graphics/SVG/1.1/DTD/svg11.dtd"><svg t="1612406213088" class="icon" viewBox="0 0 1024 1024" version="1.1" xmlns="http://www.w3.org/2000/svg" p-id="19188" xmlns:xlink="http://www.w3.org/1999/xlink" width="128" height="128"><defs><style type="text/css"></style></defs><path d="M762.8 892.2l-429.2-0.2c-19.6 0-54.8-21.6-54.8-41.2V567.6h539.4l0.2 283.2c0 19.6-36 41.4-55.6 41.4z" fill="#DEDEDE" p-id="19189"></path><path d="M849 141.4l-26.4-8.4c-4.6-1.8-8-5.2-9.8-9.8l-8.4-26.4c-2.2-7.6-10.4-12.2-18-9.8-4.8 1.4-8.4 5.2-9.8 9.8L768 123.4c-1.8 4.6-5.2 8-9.8 9.8l-26.4 8.4c-7.6 2.2-12 10.4-9.8 18 1.4 4.8 5 8.4 9.8 9.8l26.4 8.4c4.6 1.8 8 5.2 9.8 9.8l8.4 26.4c2.2 7.6 10.2 12.2 18 10 4.8-1.4 8.6-5.2 10-10l8.4-26.4c1.8-4.6 5.2-8 9.8-9.8l26.4-8.4c7.8-2.2 12.2-10.4 9.8-18-1.4-4.8-5.2-8.6-9.8-10z m-722 61.8l26.2 9.2c4.4 1.8 7.8 5.6 9.4 10l7.4 26.8c2 7.8 9.8 12.4 17.6 10.6 4.8-1.2 8.6-4.8 10.2-9.6l9.4-26.2c1.8-4.4 5.6-7.8 10-9.4l26.8-7.4c7.8-2 12.4-10 10.4-17.8-1.2-4.8-4.8-8.6-9.4-10.2L218.8 170c-4.4-1.8-7.8-5.6-9.4-10L202 133.4c-2-7.8-9.8-12.6-17.6-10.6-4.8 1.2-8.8 4.8-10.2 9.6l-9.4 26.2c-1.8 4.4-5.6 7.8-10 9.4L128 175.4c-7.8 2-12.4 10-10.4 17.8 1.2 4.8 4.8 8.6 9.4 10z m119.8 47.6c-4.4 8.2-0.6 19.6 7.6 24 1.4 0 90.4 51.8 122.6 128.4 2.6 6.8 9 11.4 16.4 11.8 2.8 0.2 5.6 0.2 7-1.2 10-3.8 13-14.8 10.6-23.4-36-89.2-134.6-145.4-138.8-147-9-4.6-20-1.4-25.4 7.4z m16.8 154.4c-8.4-5.6-19.6-1.4-25.2 7-5.6 8.4-1.4 19.6 7 25l72.2 42c2.6 1.6 5.4 2.6 8.4 2.8 7 0 12.6-2.8 15.4-9.8 5.6-8.4 1.4-19.6-7-25l-70.8-42z m-62.8-30.8c-9-3.8-19.4 0.6-23.2 9.6-0.2 0.6-0.4 1-0.6 1.6-3 9.6 1.8 20 11.2 23.8h1.4c1.4 1.4 4.2 1.4 5.6 1.4 7.8 0 14.6-5.2 16.8-12.6 2.8-9.8-2.8-21-11.2-23.8z m-75.2 12.6h1.4c9.8 0 18.2-7 18.2-16.8s-7-18.2-16.8-19.6h-1.4c-9.8-0.2-18.2 7-19.6 16.8 0 9.8 8.4 18.2 18.2 19.6z m340.8-26.6h4.2c8.4 0 15.4-5.6 18.2-14l16.8-76.8c1.4-9.8-4.2-19.6-14-21s-19.6 4.2-21 14l-16.8 76.8c-4.2 9.8 2.8 19.6 12.6 21z m30.6-145h4.2c8.4 0 15.4-5.6 18.2-14v-1.4c1.4-9.8-4.2-19.6-14-21s-19.6 4.2-21 14v1.4c-2.8 8.6 2.8 18.2 12.6 21z m19.6-92h4.2c8.4-0.2 15.8-5.8 18.2-14V108c1.4-9.8-4.2-19.6-14-21-9.8-1.4-19.6 4.2-21 14v1.4c-4.2 9.8 2.8 19.6 12.6 21z m154.2 378c3.4-0.2 6.8-1.2 9.8-2.8l92.8-55.6c8.8-5 12-16.2 7-25s-16.2-12-25-7l-92.8 55.6c-8.2 5.4-11.2 16.2-7 25 4 7 9.6 9.8 15.2 9.8z m144.4-125.4c-9.8 5.6-12.6 16.8-7 25 2.8 5.6 9.8 8.4 15.4 8.4 3.4-0.2 6.8-1.2 9.8-2.8h1.4c8.2-5.4 11.2-16.2 7-25-7-7.2-17.6-9.4-26.6-5.6z m106-40.4c-5.4-8.2-16.2-11.2-25-7h-1.4c-8.2 5.4-11.2 16.2-7 25 2.8 5.6 9.8 8.4 15.4 8.4 3.4-0.2 6.8-1.2 9.8-2.8h1.4c8-3.4 12-12.6 8.6-20.6l-1.8-3z" fill="#0066B3" p-id="19190"></path><path d="M885.2 521.6H498.2l163-158.4 58.6-58.6c9.6-9.4 9.8-24.8 0.4-34.6l-0.4-0.4-25-25c-4.8-4.8-11.4-7.4-18.2-7-7 0-12.6 2.8-18.2 7l-58.6 58.6L364 521.6H126.4c-14 0-26.4 7.6-26.4 23 0 14 11.2 23 26.4 23h64v283c0 49.8 50.6 86.6 100.2 86.6l429.4 0.4c49.6 0 100.8-37.2 100.8-86.8V567.6h64.2c14 0 26.6-7.6 26.6-23 0-14-11.2-23-26.4-23z m-165 370.6l-429.2-0.2c-19.6 0-54.8-21.6-54.8-41.2V567.6h539.4l0.2 283.2c0 19.6-36 41.4-55.6 41.4z" fill="#0066B3" p-id="19191"></path></svg>