<?xml version="1.0" standalone="no"?><!DOCTYPE svg PUBLIC "-//W3C//DTD SVG 1.1//EN" "http://www.w3.org/Graphics/SVG/1.1/DTD/svg11.dtd"><svg t="1568603625785" class="icon" viewBox="0 0 1325 1024" version="1.1" xmlns="http://www.w3.org/2000/svg" p-id="10400" xmlns:xlink="http://www.w3.org/1999/xlink" width="165.625" height="128"><defs><style type="text/css"></style></defs><path d="M1234.824 505.976c0-144.564-198.777-263.529-444.236-263.529-197.27 0-362.917 76.8-421.647 180.706-4.517 10.541-9.035 19.576-9.035 31.623 0 25.6 16.565 49.695 42.165 64.753l225.882 129.506c12.047 6.024 25.6 10.541 40.659 10.541 15.059 0 28.612-3.011 40.659-10.54L921.6 527.058c13.553-9.035 24.094-21.083 24.094-34.635 0-13.553-9.035-25.6-22.588-34.636l-79.812-45.176-176.188 100.894-134.024-76.8c51.2-46.682 147.577-76.8 257.506-76.8 164.141 0 298.165 69.27 298.165 155.106-4.518 132.517-198.777 233.412-436.706 227.388S225.882 621.93 230.4 490.918c1.506-174.683 231.906-314.73 513.506-310.212 25.6 0 49.694 1.506 73.788 3.012-58.73-21.083-129.506-33.13-209.318-33.13-63.247 0-121.976 7.53-173.176 22.588C233.412 227.388 90.353 358.4 90.353 508.988c0 200.283 256 364.424 572.235 364.424 316.236-3.012 573.741-165.647 572.236-367.436z" fill="#004187" p-id="10401"></path></svg>