<?xml version="1.0" standalone="no"?><!DOCTYPE svg PUBLIC "-//W3C//DTD SVG 1.1//EN" "http://www.w3.org/Graphics/SVG/1.1/DTD/svg11.dtd"><svg t="1568603556580" class="icon" viewBox="0 0 1177 1024" version="1.1" xmlns="http://www.w3.org/2000/svg" p-id="8760" xmlns:xlink="http://www.w3.org/1999/xlink" width="147.125" height="128"><defs><style type="text/css"></style></defs><path d="M460.8 332.8C353.28 112.64 76.8 143.36 15.36 332.8c0 0-10.24 61.44-15.36 122.88v389.12l174.08 174.08v-471.04c0-5.12 20.48-235.52 286.72-215.04z m-261.12 358.4s291.84 40.96 302.08-266.24c-5.12-286.72 353.28-307.2 450.56-102.4 0 0-256 5.12-281.6 220.16 0 0 5.12 266.24-194.56 291.84 0 10.24-220.16 46.08-276.48-143.36z m501.76-10.24c107.52 220.16 378.88 184.32 440.32-5.12 0 0 20.48-40.96 20.48-117.76V174.08L988.16 0v471.04c0 5.12-20.48 230.4-286.72 209.92z" fill="#1D1F7C" p-id="8761"></path></svg>