<?xml version="1.0" standalone="no"?><!DOCTYPE svg PUBLIC "-//W3C//DTD SVG 1.1//EN" "http://www.w3.org/Graphics/SVG/1.1/DTD/svg11.dtd"><svg t="1568603174203" class="icon" viewBox="0 0 1024 1024" version="1.1" xmlns="http://www.w3.org/2000/svg" p-id="6032" xmlns:xlink="http://www.w3.org/1999/xlink" width="48" height="48"><defs><style type="text/css"></style></defs><path d="M616.27505778 946.57649778h39.03032889c25.04931555-5.24288 46.60337778-13.39847111 64.66218666-23.88423111h-103.69251555v-27.37948445h142.14030222c8.15559111-7.57304889 16.31118222-15.14609778 22.71914667-23.88423111h-164.85944889v-29.70965333h184.08334222c4.07779555-7.57304889 8.15559111-15.72864 11.06830222-23.88423111H312.18801778v-28.54456889H820.74737778c2.33016889-7.57304889 4.07779555-15.72864 5.24288-23.88423111H312.18801778v-30.87473778h517.29749333c0.58254222-8.15559111 1.16508445-16.31118222 1.16508444-23.30168889h-518.46257777v-27.96202667h517.88003555l-0.58254222-8.73813333c-1.16508445-5.24288-3.49525333-9.90321778-4.66033778-15.14609778h-512.63715555v-32.03982222h503.31648c-2.91271111-8.15559111-6.40796445-15.72864-10.48576-23.30168889H312.18801778v-22.71914666h480.01479111c-5.24288-8.15559111-10.48576-16.31118222-16.89372444-23.88423112h-210.29774223v-33.20490666h177.67537778c-10.48576-8.73813333-21.55406222-16.31118222-33.20490667-23.30168889h-143.88792888v-33.20490667h104.27505777c16.89372445-5.24288 32.62236445-13.39847111 46.60337778-23.88423111H313.93564445v-25.63185778h431.08124444c6.99050667-7.57304889 12.81592889-15.14609778 18.05880889-23.30168889H313.93564445v-30.87473778h465.45123555c3.49525333-8.15559111 6.99050667-15.72864 9.32067555-23.8842311H313.93564445v-30.87473778h482.92750222c1.74762667-9.32067555 2.91271111-17.47626667 3.49525333-20.97152v-2.91271112H313.93564445V255.68142222h483.51004444c-0.58254222-7.57304889-0.58254222-16.31118222-2.33016889-23.30168889H313.93564445v-27.96202666h304.08704v-0.58254222h168.93724444c-2.91271111-8.15559111-4.66033778-16.89372445-8.15559111-23.3016889h-160.78165333V150.82382222h141.55776c-6.40796445-8.15559111-13.39847111-16.31118222-20.97152-23.30168889h-120.58624v-28.54456888h83.30353777c-16.89372445-10.48576-35.53507555-18.05880889-54.75896889-23.88423112H193.34940445v873.81333334h422.92565333v-2.33016889z" fill="#E7A700" p-id="6033"></path></svg>