<?xml version="1.0" standalone="no"?><!DOCTYPE svg PUBLIC "-//W3C//DTD SVG 1.1//EN" "http://www.w3.org/Graphics/SVG/1.1/DTD/svg11.dtd"><svg t="1568603675412" class="icon" viewBox="0 0 1024 1024" version="1.1" xmlns="http://www.w3.org/2000/svg" p-id="12007" xmlns:xlink="http://www.w3.org/1999/xlink" width="128" height="128"><defs><style type="text/css"></style></defs><path d="M948.148148 627.674074c11.377778-39.822222 17.066667-81.540741 17.066667-125.155555 0-125.155556-45.511111-231.348148-132.740741-320.474075-89.125926-89.125926-197.214815-132.740741-320.474074-132.74074-125.155556 0-231.348148 45.511111-320.474074 132.74074C102.4 271.17037 56.888889 379.259259 56.888889 502.518519c0 125.155556 45.511111 233.244444 132.740741 320.474074 89.125926 89.125926 195.318519 132.740741 320.474074 132.74074 87.22963 0 164.977778-20.859259 235.14074-64.474074 96.711111-58.785185 136.533333-127.051852 123.25926-202.903703-11.377778-64.474074-60.681481-109.985185-147.911111-134.637037l-18.962963-3.792593c36.02963-20.859259 58.785185-47.407407 64.474074-83.437037 5.688889-39.822222-11.377778-77.748148-49.303704-111.881482-39.822222-36.02963-91.022222-56.888889-153.6-66.37037-70.162963-11.377778-149.807407-11.377778-238.933333-3.792593v144.118519c70.162963-9.481481 144.118519-9.481481 218.074074 0 62.577778 9.481481 96.711111 28.444444 100.503703 60.681481 0 5.688889-1.896296 13.274074-5.688888 22.755556-11.377778 13.274074-34.133333 18.962963-68.266667 13.274074-89.125926-11.377778-170.666667-11.377778-246.518519 0v146.014815c108.088889-13.274074 202.903704-13.274074 280.651852 3.792592 64.474074 11.377778 100.503704 34.133333 102.4 68.266667 1.896296 15.17037-3.792593 28.444444-17.066666 43.614815-32.237037 34.133333-89.125926 51.2-178.251852 51.2-92.918519 0-172.562963-32.237037-238.933334-96.711111-64.474074-64.474074-98.607407-144.118519-98.607407-237.037037s32.237037-172.562963 98.607407-237.037037c66.37037-64.474074 144.118519-98.607407 238.933334-98.607408 92.918519 0 172.562963 32.237037 237.037037 98.607408 64.474074 64.474074 98.607407 144.118519 98.607407 237.037037l-1.896296 36.029629c39.822222 22.755556 73.955556 51.2 104.296296 87.22963z" fill="#E50012" p-id="12008"></path></svg>