<?xml version="1.0" standalone="no"?><!DOCTYPE svg PUBLIC "-//W3C//DTD SVG 1.1//EN" "http://www.w3.org/Graphics/SVG/1.1/DTD/svg11.dtd"><svg t="1568602979976" class="icon" viewBox="0 0 1024 1024" version="1.1" xmlns="http://www.w3.org/2000/svg" p-id="4433" xmlns:xlink="http://www.w3.org/1999/xlink" width="128" height="128"><defs><style type="text/css"></style></defs><path d="M147.2 565l-4.33 24.54h129.92l5.77-24.54z m330.57 24.54L482.1 565H334.86l-5.77 24.54z m82.28-124.14L539.84 565l-5.78 24.54-20.21 99.6h-205l-4.33 23.09h239.65L575.93 565l20.21-99.6H883.4L861.75 565H632.23l-52 246.85H282.89L278.56 835H612l31.76-145.79L664 589.55h193.42l-20.21 99.6H700.07L669.76 835l-21.65 99.6h-447.5l52-245.4H64.92l21.65-99.6L90.9 565l21.65-99.6h186.22l52-245.4h205l26-124.15h379.58l-21.65 99.6H616.35L612 220l-20.21 99.6h-205l-5.77 23.1h241.1l4.33-23.1 21.66-99.6h287.26l-21.65 99.6H684.19l-26 122.7H360.85l-5.78 23.1h205z" fill="#007F3E" p-id="4434"></path></svg>