<?xml version="1.0" standalone="no"?><!DOCTYPE svg PUBLIC "-//W3C//DTD SVG 1.1//EN" "http://www.w3.org/Graphics/SVG/1.1/DTD/svg11.dtd"><svg t="1566870103691" class="icon" viewBox="0 0 1025 1024" version="1.1" xmlns="http://www.w3.org/2000/svg" p-id="7175" xmlns:xlink="http://www.w3.org/1999/xlink" width="128.125" height="128"><defs><style type="text/css"></style></defs><path d="M910.154972 227.540734s-116.329182-133.963435-193.976778-155.010769A455.077486 455.077486 0 1 0 597.2892 967.041649c251.430311 0 398.1928-203.647175 398.1928-455.077486 0-125.715155-85.327029-284.423429-85.327028-284.423429z m-113.769372 312.865772h-227.538743a28.442343 28.442343 0 0 1-28.442342-28.442343V227.540734a28.442343 28.442343 0 0 1 56.884685 0v255.981086h199.0964a28.442343 28.442343 0 0 1 0 56.884686z" fill="#DEDEDE" p-id="7176"></path><path d="M511.962172 199.098391a28.442343 28.442343 0 0 1 28.442343 28.442343v284.423429a28.442343 28.442343 0 0 1-56.884686 0V227.540734a28.442343 28.442343 0 0 1 28.442343-28.442343z" fill="#0461A7" p-id="7177"></path><path d="M511.962172 483.52182h227.538743a28.442343 28.442343 0 0 1 0 56.884686h-227.538743a28.442343 28.442343 0 0 1 0-56.884686z" fill="#0461A7" p-id="7178"></path><path d="M511.962172 0.001991A511.962172 511.962172 0 0 0 15.074442 390.515359l56.884685 11.376937a455.077486 455.077486 0 1 1 33.846388 312.865771l-51.48064 23.891568A511.962172 511.962172 0 1 0 511.962172 0.001991z" fill="#0461A7" p-id="7179"></path><path d="M42.663514 367.761484a28.442343 28.442343 0 1 1-28.442343 28.442343 28.442343 28.442343 0 0 1 28.442343-28.442343zM28.442343 483.52182a28.442343 28.442343 0 1 1-28.442343 28.442343 28.442343 28.442343 0 0 1 28.442343-28.442343zM78.78529 698.545932a28.442343 28.442343 0 1 1-28.442343 28.442343 28.442343 28.442343 0 0 1 28.442343-28.442343z" fill="#0461A7" p-id="7180"></path></svg>