<?xml version="1.0" standalone="no"?><!DOCTYPE svg PUBLIC "-//W3C//DTD SVG 1.1//EN" "http://www.w3.org/Graphics/SVG/1.1/DTD/svg11.dtd"><svg t="1567133008841" class="icon" viewBox="0 0 1050 1024" version="1.1" xmlns="http://www.w3.org/2000/svg" p-id="3684" xmlns:xlink="http://www.w3.org/1999/xlink" width="32.8125" height="32"><defs><style type="text/css"></style></defs><path d="M183.718605 52.49103h787.36545a52.49103 52.49103 0 0 1 52.49103 52.49103v367.43721a52.49103 52.49103 0 0 1-52.49103 52.49103H183.718605a52.49103 52.49103 0 0 1-52.49103-52.49103V104.98206a52.49103 52.49103 0 0 1 52.49103-52.49103z" fill="#DEDEDE" p-id="3685"></path><path d="M524.9103 341.191695a26.245515 26.245515 0 0 1 26.245515 26.245515v629.89236a26.245515 26.245515 0 0 1-52.49103 0V367.43721a26.245515 26.245515 0 0 1 26.245515-26.245515z" fill="#0461A7" p-id="3686"></path><path d="M283.189107 718.864656l259.830598 259.568143a26.350497 26.350497 0 1 1-37.268631 37.268632l-259.830598-259.830599a26.245515 26.245515 0 0 1 37.268631-37.006176zM813.610965 472.41927a26.245515 26.245515 0 1 1-26.245515 26.245515 26.245515 26.245515 0 0 1 26.245515-26.245515zM236.209635 472.41927a26.245515 26.245515 0 1 1-26.245515 26.245515 26.245515 26.245515 0 0 1 26.245515-26.245515z" fill="#0461A7" p-id="3687"></path><path d="M768.731134 716.240104l-262.45515 262.45515a26.534216 26.534216 0 1 0 37.531087 37.531087l262.45515-262.45515a26.534216 26.534216 0 0 0-37.531087-37.531087zM736.974061 157.47309H367.43721a26.245515 26.245515 0 1 0 0 52.49103h370.324217a26.245515 26.245515 0 1 0 0-52.49103zM26.245515 104.98206a26.245515 26.245515 0 1 1-26.245515 26.245515 26.245515 26.245515 0 0 1 26.245515-26.245515zM26.245515 209.96412a26.245515 26.245515 0 1 1-26.245515 26.245515 26.245515 26.245515 0 0 1 26.245515-26.245515zM26.245515 367.43721a26.245515 26.245515 0 1 1-26.245515 26.245515 26.245515 26.245515 0 0 1 26.245515-26.245515z" fill="#0461A7" p-id="3688"></path><path d="M104.98206 472.41927a52.49103 52.49103 0 0 1-52.49103-52.49103v-26.245515H0v26.245515a104.98206 104.98206 0 0 0 104.98206 104.98206h131.227575v-52.49103zM944.83854 0H104.98206a104.98206 104.98206 0 0 0-104.98206 104.98206v26.245515h52.49103V104.98206a52.49103 52.49103 0 0 1 52.49103-52.49103h839.85648a52.49103 52.49103 0 0 1 52.49103 52.49103v314.94618a52.49103 52.49103 0 0 1-52.49103 52.49103h-131.227575v52.49103h131.227575a104.98206 104.98206 0 0 0 104.98206-104.98206V104.98206a104.98206 104.98206 0 0 0-104.98206-104.98206z" fill="#0461A7" p-id="3689"></path></svg>