<?xml version="1.0" standalone="no"?><!DOCTYPE svg PUBLIC "-//W3C//DTD SVG 1.1//EN" "http://www.w3.org/Graphics/SVG/1.1/DTD/svg11.dtd"><svg t="1566870214697" class="icon" viewBox="0 0 1024 1024" version="1.1" xmlns="http://www.w3.org/2000/svg" p-id="11704" xmlns:xlink="http://www.w3.org/1999/xlink" width="128" height="128"><defs><style type="text/css"></style></defs><path d="M408.98 38.14a226.64 226.64 0 1 0 226.64 226.62A226.62 226.62 0 0 0 408.98 38.14z m0 418.48a191.86 191.86 0 1 1 191.86-191.86 191.84 191.84 0 0 1-191.86 191.86z" fill="#0460A6" p-id="11705"></path><path d="M470.8 306a41.2 41.2 0 1 1-41.22 41.2A41.2 41.2 0 0 1 470.8 306zM59.74 903.46A20.6 20.6 0 1 1 39.14 924a20.6 20.6 0 0 1 20.6-20.54z" fill="#0460A6" p-id="11706"></path><path d="M632.14 607.24a369.3 369.3 0 0 0-223.16-74.64c-204.8 0-370.84 166-370.84 370.86 0 6.94 0.66 13.74 1.04 20.6h41.2c-0.42-6.86-1.04-13.66-1.04-20.6a329.66 329.66 0 0 1 528-263.28 226.52 226.52 0 0 1 24.8-32.94zM800.44 573.8a185.44 185.44 0 1 0 185.42 185.44 185.44 185.44 0 0 0-185.42-185.44z m-80.16 38.58a10.3 10.3 0 0 1 14.56 0l65.6 65.62L866 612.38a10.3 10.3 0 0 1 14.56 14.56l-72.84 72.84a10.38 10.38 0 0 1-14.64 0l-72.84-72.84a10.3 10.3 0 0 1 0.04-14.56z m162.58 173.12a10.3 10.3 0 1 1 0 20.6h-72.12v92.7a10.3 10.3 0 0 1-20.6 0v-92.7H718a10.3 10.3 0 1 1 0-20.6h72.12v-41.22H718a10.3 10.3 0 0 1 0-20.6h164.84a10.3 10.3 0 0 1 0 20.6h-72.1v41.22z" fill="#0460A6" p-id="11707"></path></svg>