<?xml version="1.0" standalone="no"?><!DOCTYPE svg PUBLIC "-//W3C//DTD SVG 1.1//EN" "http://www.w3.org/Graphics/SVG/1.1/DTD/svg11.dtd"><svg t="1566870236923" class="icon" viewBox="0 0 1024 1024" version="1.1" xmlns="http://www.w3.org/2000/svg" p-id="12620" xmlns:xlink="http://www.w3.org/1999/xlink" width="128" height="128"><defs><style type="text/css"></style></defs><path d="M896 85.646H128c-70.684 0-128 55.467-128 123.876v578.105c0 68.409 57.316 123.875 128 123.875h768c70.684 0 128-55.466 128-123.875V209.522c0-68.41-57.316-123.876-128-123.876zM85.333 415.972H384c47.132 0 85.333 36.977 85.333 82.574 0 45.625-38.2 82.602-85.333 82.602H85.333V415.972z m853.334 371.655c0 22.784-19.115 41.273-42.667 41.273H128c-23.552 0-42.667-18.49-42.667-41.273V663.75H384c94.265 0 170.667-73.955 170.667-165.177 0-91.193-76.402-165.148-170.667-165.148H85.333V209.522c0-22.813 19.115-41.273 42.667-41.273h768c23.552 0 42.667 18.489 42.667 41.273v578.105z" p-id="12621"></path><path d="M332.8 498.546c0 14.79 8.135 28.387 21.333 35.783s29.469 7.395 42.667 0c13.198-7.396 21.333-21.02 21.333-35.783 0-14.734-8.135-28.36-21.333-35.755a43.89 43.89 0 0 0-42.667 0c-13.198 7.396-21.333 21.02-21.333 35.755z" p-id="12622"></path></svg>