<?xml version="1.0" standalone="no"?><!DOCTYPE svg PUBLIC "-//W3C//DTD SVG 1.1//EN" "http://www.w3.org/Graphics/SVG/1.1/DTD/svg11.dtd"><svg t="1566870056570" class="icon" viewBox="0 0 1024 1024" version="1.1" xmlns="http://www.w3.org/2000/svg" p-id="5479" xmlns:xlink="http://www.w3.org/1999/xlink" width="128" height="128"><defs><style type="text/css"></style></defs><path d="M814.545455 279.272727H209.454545a44.683636 44.683636 0 0 0-23.272727 6.283637A186.181818 186.181818 0 0 1 325.818182 465.454545v232.727273a46.545455 46.545455 0 0 1-46.545455 46.545455h535.272728a46.545455 46.545455 0 0 0 46.545454-46.545455V325.818182a46.545455 46.545455 0 0 0-46.545454-46.545455z" fill="#DEDEDE" p-id="5480"></path><path d="M256 0a23.272727 23.272727 0 1 1-23.272727 23.272727 23.272727 23.272727 0 0 1 23.272727-23.272727zM768 0a23.272727 23.272727 0 1 1-23.272727 23.272727 23.272727 23.272727 0 0 1 23.272727-23.272727zM256 977.454545a23.272727 23.272727 0 1 1-23.272727 23.272728 23.272727 23.272727 0 0 1 23.272727-23.272728zM768 977.454545a23.272727 23.272727 0 1 1-23.272727 23.272728 23.272727 23.272727 0 0 1 23.272727-23.272728zM1000.727273 232.727273a23.272727 23.272727 0 1 1-23.272728 23.272727 23.272727 23.272727 0 0 1 23.272728-23.272727zM1000.727273 744.727273a23.272727 23.272727 0 1 1-23.272728 23.272727 23.272727 23.272727 0 0 1 23.272728-23.272727z" fill="#ffffff" p-id="5481"></path><path d="M139.636364 977.454545a93.090909 93.090909 0 0 1-93.090909-93.090909v-93.090909H0v139.636364a93.090909 93.090909 0 0 0 93.090909 93.090909h162.909091v-46.545455zM46.545455 139.636364a93.090909 93.090909 0 0 1 93.090909-93.090909h116.363636V0H93.090909a93.090909 93.090909 0 0 0-93.090909 93.090909v186.181818h46.545455zM977.454545 884.363636a93.090909 93.090909 0 0 1-93.090909 93.090909h-116.363636v46.545455h162.909091a93.090909 93.090909 0 0 0 93.090909-93.090909v-162.909091h-46.545455zM930.909091 0h-162.909091v46.545455h116.363636a93.090909 93.090909 0 0 1 93.090909 93.090909v116.363636h46.545455V93.090909a93.090909 93.090909 0 0 0-93.090909-93.090909z" fill="#ffffff" p-id="5482"></path><path d="M23.272727 256a23.272727 23.272727 0 1 1-23.272727 23.272727 23.272727 23.272727 0 0 1 23.272727-23.272727zM23.272727 768a23.272727 23.272727 0 1 1-23.272727 23.272727 23.272727 23.272727 0 0 1 23.272727-23.272727zM791.272727 232.727273H232.727273a93.090909 93.090909 0 0 0-93.090909 93.090909v46.545454h46.545454v-46.545454a46.545455 46.545455 0 0 1 46.545455-46.545455h558.545454a46.545455 46.545455 0 0 1 46.545455 46.545455v372.363636a46.545455 46.545455 0 0 1-46.545455 46.545455H232.727273a46.545455 46.545455 0 0 1-46.545455-46.545455v-93.090909H139.636364v93.090909a93.090909 93.090909 0 0 0 93.090909 93.090909h558.545454a93.090909 93.090909 0 0 0 93.090909-93.090909V325.818182a93.090909 93.090909 0 0 0-93.090909-93.090909z" fill="#ffffff" p-id="5483"></path><path d="M162.909091 349.090909a23.272727 23.272727 0 1 1-23.272727 23.272727 23.272727 23.272727 0 0 1 23.272727-23.272727zM162.909091 581.818182a23.272727 23.272727 0 1 1-23.272727 23.272727 23.272727 23.272727 0 0 1 23.272727-23.272727zM162.909091 442.181818a23.272727 23.272727 0 1 1-23.272727 23.272727 23.272727 23.272727 0 0 1 23.272727-23.272727z" fill="#ffffff" p-id="5484"></path></svg>