<?xml version="1.0" standalone="no"?><!DOCTYPE svg PUBLIC "-//W3C//DTD SVG 1.1//EN" "http://www.w3.org/Graphics/SVG/1.1/DTD/svg11.dtd"><svg t="1566870018724" class="icon" viewBox="0 0 1024 1024" version="1.1" xmlns="http://www.w3.org/2000/svg" p-id="4312" xmlns:xlink="http://www.w3.org/1999/xlink" width="128" height="128"><defs><style type="text/css"></style></defs><path d="M323.368421 53.894737h458.105263a53.894737 53.894737 0 0 1 53.894737 53.894737v808.421052a53.894737 53.894737 0 0 1-53.894737 53.894737H323.368421a53.894737 53.894737 0 0 1-53.894737-53.894737V107.789474a53.894737 53.894737 0 0 1 53.894737-53.894737z" fill-opacity="0" p-id="4313"></path><path d="M431.157895 889.263158h161.68421a26.947368 26.947368 0 0 1 0 53.894737h-161.68421a26.947368 26.947368 0 0 1 0-53.894737zM458.105263 0h107.789474a53.894737 53.894737 0 0 1 0 107.789474h-107.789474a53.894737 53.894737 0 0 1 0-107.789474z" fill="#0066b3" p-id="4314"></path><path d="M754.526316 0H269.473684a107.789474 107.789474 0 0 0-107.789473 107.789474v134.736842h53.894736V107.789474a53.894737 53.894737 0 0 1 53.894737-53.894737h485.052632a53.894737 53.894737 0 0 1 53.894737 53.894737v808.421052a53.894737 53.894737 0 0 1-53.894737 53.894737H269.473684a53.894737 53.894737 0 0 1-53.894737-53.894737V512H161.684211v404.210526a107.789474 107.789474 0 0 0 107.789473 107.789474h485.052632a107.789474 107.789474 0 0 0 107.789473-107.789474V107.789474a107.789474 107.789474 0 0 0-107.789473-107.789474z" fill="#999999" p-id="4315"></path><path d="M188.631579 215.578947a26.947368 26.947368 0 1 1-26.947368 26.947369 26.947368 26.947368 0 0 1 26.947368-26.947369zM188.631579 323.368421a26.947368 26.947368 0 1 1-26.947368 26.947368 26.947368 26.947368 0 0 1 26.947368-26.947368zM188.631579 485.052632a26.947368 26.947368 0 1 1-26.947368 26.947368 26.947368 26.947368 0 0 1 26.947368-26.947368z" fill="#999999" p-id="4316"></path></svg>