<?xml version="1.0" standalone="no"?><!DOCTYPE svg PUBLIC "-//W3C//DTD SVG 1.1//EN" "http://www.w3.org/Graphics/SVG/1.1/DTD/svg11.dtd"><svg t="1566870227837" class="icon" viewBox="0 0 1024 1024" version="1.1" xmlns="http://www.w3.org/2000/svg" p-id="12234" xmlns:xlink="http://www.w3.org/1999/xlink" width="128" height="128"><defs><style type="text/css"></style></defs><path d="M770.78 709.58L791.72 860 788 946.4l-167.72-87.54c-26.16-14-97.18-43.68-123.34-29.6l-135.68 58-55.72 31L346 677.7a83.36 83.36 0 0 0-23.58-72.94l-203.6-203.2 277.5-41.26a86.38 86.38 0 0 0 65.46-47.66l89.84-186.34 30.52 59.2 92.5 157.86c12.66 25.7 64.94 12.9 93.28 16.94l4 0.62 177.6 26.36 18.48 33.66-167.72 148c-19.2 19.1-42.52 46.18-38.26 72.78z" fill="#DEDEDE" p-id="12235"></path><path d="M162.96 517.74m-22.02 0a22.02 22.02 0 1 0 44.04 0 22.02 22.02 0 1 0-44.04 0Z" fill="#0066B3" p-id="12236"></path><path d="M260.38 745.3m-22.02 0a22.02 22.02 0 1 0 44.04 0 22.02 22.02 0 1 0-44.04 0Z" fill="#0066B3" p-id="12237"></path><path d="M220.9 575.1m-22.02 0a22.02 22.02 0 1 0 44.04 0 22.02 22.02 0 1 0-44.04 0Z" fill="#0066B3" p-id="12238"></path><path d="M976.28 435.22a38.34 38.34 0 0 0-21.38-65.04l-240.52-34.82-24.82-4.7h-0.22a35.44 35.44 0 0 1-26.68-19.2L547.06 72a38.28 38.28 0 0 0-68.92 0l-115.3 239.24a35.06 35.06 0 0 1-26.84 19.42L70.42 370a38.26 38.26 0 0 0-21.38 65L146 532l34-28.3L88.1 412l254.28-37.8a79.18 79.18 0 0 0 60-43.7l110.36-228.94 110.32 228.84a79.1 79.1 0 0 0 59.88 43.6l3.7 0.56 250.56 37-186.56 186.56a77.16 77.16 0 0 0-21.72 66.8l43.34 258L551 804a81.12 81.12 0 0 0-76.78 0l-221.16 118.98 29.82-178-44.62-0.34-30.6 182.68a38.48 38.48 0 0 0 15.4 37.38 38 38 0 0 0 22.2 7.14 38.66 38.66 0 0 0 18.16-4.64l231.48-124.58a37.7 37.7 0 0 1 17.58-4.48 36.64 36.64 0 0 1 17.5 4.38l231.7 124.84a38.4 38.4 0 0 0 18.16 4.62 38.9 38.9 0 0 0 22.2-7.14 38.44 38.44 0 0 0 15.4-37.38L772.36 658a32.5 32.5 0 0 1 9.34-28.42z" fill="#0066B3" p-id="12239"></path></svg>