<?xml version="1.0" standalone="no"?><!DOCTYPE svg PUBLIC "-//W3C//DTD SVG 1.1//EN" "http://www.w3.org/Graphics/SVG/1.1/DTD/svg11.dtd"><svg t="1566870096392" class="icon" viewBox="0 0 1463 1024" version="1.1" xmlns="http://www.w3.org/2000/svg" p-id="6783" xmlns:xlink="http://www.w3.org/1999/xlink" width="182.875" height="128"><defs><style type="text/css"></style></defs><path d="M1389.714286 0H146.285714a73.142857 73.142857 0 0 0-73.142857 73.142857v46.08A292.571429 292.571429 0 0 1 292.571429 402.285714v475.428572a73.142857 73.142857 0 0 1-73.142858 73.142857h1170.285715a73.142857 73.142857 0 0 0 73.142857-73.142857V73.142857a73.142857 73.142857 0 0 0-73.142857-73.142857z" fill="#DEDEDE" p-id="6784"></path><path d="M775.314286 585.142857A365.714286 365.714286 0 0 1 1133.714286 292.571429h292.571428c12.434286 0-3.291429-28.16 8.777143-27.062858v-19.017142c-12.068571 0 5.12-27.062857-7.314286-27.062858h-292.571428a438.857143 438.857143 0 0 0-432.274286 365.714286z" fill="#999999" p-id="6785"></path><path d="M1245.257143 23.04l206.994286 206.994286a36.717714 36.717714 0 1 1-51.931429 51.931428l-206.628571-206.994285a36.571429 36.571429 0 0 1 0-51.931429 36.571429 36.571429 0 0 1 51.565714 0zM1426.285714 475.428571a36.571429 36.571429 0 1 1-36.571428 36.571429 36.571429 36.571429 0 0 1 36.571428-36.571429zM738.742857 548.571429a36.571429 36.571429 0 1 1-36.571428 36.571428 36.571429 36.571429 0 0 1 36.571428-36.571428zM768 0a36.571429 36.571429 0 1 1-36.571429 36.571429 36.571429 36.571429 0 0 1 36.571429-36.571429z" fill="#999999" p-id="6786"></path><path d="M73.142857 146.285714a73.142857 73.142857 0 0 1 73.142857-73.142857h621.714286V0H146.285714a146.285714 146.285714 0 0 0-146.285714 146.285714v146.285715h73.142857zM1389.714286 512v365.714286a73.142857 73.142857 0 0 1-73.142857 73.142857H146.285714a73.142857 73.142857 0 0 1-73.142857-73.142857v-219.428572H0v219.428572a146.285714 146.285714 0 0 0 146.285714 146.285714h1170.285715a146.285714 146.285714 0 0 0 146.285714-146.285714V512z" fill="#999999" p-id="6787"></path><path d="M36.571429 256a36.571429 36.571429 0 1 1-36.571429 36.571429 36.571429 36.571429 0 0 1 36.571429-36.571429zM36.571429 621.714286a36.571429 36.571429 0 1 1-36.571429 36.571428 36.571429 36.571429 0 0 1 36.571429-36.571428zM36.571429 402.285714a36.571429 36.571429 0 1 1-36.571429 36.571429 36.571429 36.571429 0 0 1 36.571429-36.571429z" fill="#999999" p-id="6788"></path></svg>