<?xml version="1.0" standalone="no"?><!DOCTYPE svg PUBLIC "-//W3C//DTD SVG 1.1//EN" "http://www.w3.org/Graphics/SVG/1.1/DTD/svg11.dtd"><svg t="1566870152910" class="icon" viewBox="0 0 1024 1024" version="1.1" xmlns="http://www.w3.org/2000/svg" p-id="9634" xmlns:xlink="http://www.w3.org/1999/xlink" width="128" height="128"><defs><style type="text/css"></style></defs><path d="M512 29.06a240 240 0 1 0 240 240 240 240 0 0 0-240-240z m0 432a192 192 0 1 1 192-192 192 192 0 0 1-192 192z" fill="#666666" p-id="9635"></path><path d="M577.8 324.8a32 32 0 1 1-32 32 32 32 0 0 1 32-32zM170.72 970.94c-0.46-7.26-0.72-14.56-0.72-22a342 342 0 0 1 684 0c0 7.38-0.26 14.68-0.72 22h48.1c0.4-7.26 0.62-14.58 0.62-22 0-215.4-174.6-390-390-390S122 733.6 122 949c0 7.36 0.22 14.68 0.62 22z" fill="#666666" p-id="9636"></path><path d="M876.86 946.94a24 24 0 1 1-24 24 24 24 0 0 1 24-24zM146.86 946.94a24 24 0 1 1-24 24 24 24 0 0 1 24-24z" fill="#666666" p-id="9637"></path></svg>