<?xml version="1.0" standalone="no"?><!DOCTYPE svg PUBLIC "-//W3C//DTD SVG 1.1//EN" "http://www.w3.org/Graphics/SVG/1.1/DTD/svg11.dtd"><svg t="1566870233192" class="icon" viewBox="0 0 1024 1024" version="1.1" xmlns="http://www.w3.org/2000/svg" p-id="12493" xmlns:xlink="http://www.w3.org/1999/xlink" width="128" height="128"><defs><style type="text/css"></style></defs><path d="M518.7584 732.5696l331.5712 134.8096V153.6a17.0496 17.0496 0 0 0-16.896-17.2032H204.8A16.9984 16.9984 0 0 0 187.7504 153.6v713.728zM136.5504 153.6A68.2496 68.2496 0 0 1 204.8 85.3504h628.48A68.2496 68.2496 0 0 1 901.5296 153.6v721.408c0 37.7856-28.4672 56.832-63.232 42.752l-319.5392-129.9456L199.68 917.8112c-34.816 14.1824-63.0784-4.864-63.0784-42.752V153.6z" fill="#EE4848" p-id="12494"></path><path d="M458.1376 480.8704L396.3392 420.6592l85.3504-12.3904 38.1952-77.3632L558.08 408.2688l85.4016 12.3904-61.8496 60.2112 14.592 84.992-76.3392-40.1408-76.3392 40.1408zM578.56 359.5264l19.456 14.2336-5.9904-12.032zM441.7536 373.76l19.3024-13.9776-13.3632 1.9456L441.7536 373.76z m146.3808 245.76c35.4304 18.6368 68.352-5.12 61.44-44.6976l-13.0048-76.032 55.2448-53.8624c28.6208-27.904 16.0768-66.56-23.5008-72.3456l-76.2368-11.1104L558.08 292.3008c-17.7152-35.84-58.368-35.84-76.0832 0l-34.304 69.1712-76.3392 11.0592c-39.5776 5.7856-52.1728 44.4416-23.5008 72.3968l55.2448 53.8112-13.056 76.032c-6.7584 39.424 26.112 63.3344 61.44 44.6976l68.3008-35.84 68.2496 35.84z" fill="#EE4848" p-id="12495"></path></svg>