<?xml version="1.0" standalone="no"?><!DOCTYPE svg PUBLIC "-//W3C//DTD SVG 1.1//EN" "http://www.w3.org/Graphics/SVG/1.1/DTD/svg11.dtd"><svg t="1566870088523" class="icon" viewBox="0 0 1024 1024" version="1.1" xmlns="http://www.w3.org/2000/svg" p-id="6394" xmlns:xlink="http://www.w3.org/1999/xlink" width="128" height="128"><defs><style type="text/css"></style></defs><path d="M69.818182 0h884.363636a23.272727 23.272727 0 0 1 0 46.545455H69.818182a23.272727 23.272727 0 0 1 0-46.545455z" fill="#0461A7" p-id="6395"></path><path d="M512 0a23.272727 23.272727 0 0 1 23.272727 23.272727v977.454546a23.272727 23.272727 0 0 1-46.545454 0V23.272727a23.272727 23.272727 0 0 1 23.272727-23.272727z" fill="#0461A7" p-id="6396"></path><path d="M559.941818 30.021818l395.636364 395.636364a23.272727 23.272727 0 0 1 0 33.047273 23.272727 23.272727 0 0 1-32.814546 0l-395.636363-395.636364a23.365818 23.365818 0 0 1 33.047272-33.047273zM159.418182 343.272727l-82.385455 82.385455a23.272727 23.272727 0 0 0 0 33.047273 23.272727 23.272727 0 0 0 32.814546 0l82.618182-82.385455zM505.483636 30.021818a23.272727 23.272727 0 0 0-32.814545 0l-148.48 148.48 33.047273 32.814546 148.247272-148.247273a23.272727 23.272727 0 0 0 0-33.047273z" fill="#0461A7" p-id="6397"></path><path d="M192.465455 376.32a23.272727 23.272727 0 1 1 0-33.047273 23.272727 23.272727 0 0 1 0 33.047273zM258.327273 310.225455a23.272727 23.272727 0 1 1-33.047273-32.814546 23.272727 23.272727 0 0 1 33.047273 0 23.272727 23.272727 0 0 1 0 32.814546zM357.236364 211.316364a23.272727 23.272727 0 1 1-33.047273-32.814546 23.272727 23.272727 0 0 1 33.047273 0 23.272727 23.272727 0 0 1 0 32.814546z" fill="#0461A7" p-id="6398"></path></svg>