<?xml version="1.0" standalone="no"?><!DOCTYPE svg PUBLIC "-//W3C//DTD SVG 1.1//EN" "http://www.w3.org/Graphics/SVG/1.1/DTD/svg11.dtd"><svg t="1566870188381" class="icon" viewBox="0 0 1024 1024" version="1.1" xmlns="http://www.w3.org/2000/svg" p-id="10805" xmlns:xlink="http://www.w3.org/1999/xlink" width="128" height="128"><defs><style type="text/css"></style></defs><path d="M809.6 76.8H222c-12 0-22.8 4.8-30.8 12.8 44 21 74.2 65.8 74.2 117.8v696.4c0 24-19.4 43.6-43.6 43.6h587.6c24 0 43.6-19.4 43.6-43.6V120.4c0.2-24-19.4-43.6-43.4-43.6z" fill-opacity="0" p-id="10806"></path><path d="M417.2 555.6h217.6c12 0 21.8 9.8 21.8 21.8s-9.8 21.8-21.8 21.8H417.2c-12 0-21.8-9.8-21.8-21.8s9.8-21.8 21.8-21.8zM417.2 642.6h217.6c12 0.4 21.4 10.4 21.2 22.4-0.4 11.6-9.6 20.8-21.2 21.2H417.2c-12-0.4-21.4-10.4-21.2-22.4 0.4-11.6 9.6-20.8 21.2-21.2z" fill="#ffffff" p-id="10807"></path><path d="M526 555.6c12 0 21.8 9.8 21.8 21.8v239.4c0 12-9.8 21.8-21.8 21.8s-21.8-9.8-21.8-21.8V577.2c0-12 9.8-21.6 21.8-21.6z" fill="#ffffff" p-id="10808"></path><path d="M479.6 483l43.6 75.4c6 10.4 2.4 23.8-8 29.8s-23.8 2.4-29.8-8l-43.6-75.4c-6-10.4-2.4-23.8 8-29.8s23.8-2.4 29.8 8z" fill="#ffffff" p-id="10809"></path><path d="M572.4 478.2l-43.6 69.4c-6 9.6-2.4 21.8 8 27.4 10.4 5.6 23.2 2.4 29.8-7.4l43.6-69.4c6-9.6 2.4-21.8-8-27.4-10.4-5.6-23.2-2.4-29.8 7.4zM852.4 184.6c-72.6 109.4-195.2 175.2-326.4 175.2S272.2 294 199.6 184.6h-0.2v70.6c79.8 90.6 196.2 148 326.4 148s246.8-57.4 326.4-148l0.2-70.6z" fill="#ffffff" p-id="10810"></path><path d="M809 33.2h-566c-48 0-87 39-87 87v304.8h43.6V120.2c0-24 19.4-43.6 43.6-43.6h565.8c24 0 43.6 19.4 43.6 43.6v783.6c0 24-19.4 43.6-43.6 43.6h-566c-24 0-43.6-19.4-43.6-43.6V642.6H156v261.2c0 48 39 87 87 87h565.8c48 0 87-39 87-87V120.2c0.2-48-38.8-87-86.8-87z" fill="#ffffff" p-id="10811"></path><path d="M177.8 403.2c12 0 21.8 9.8 21.8 21.8s-9.8 21.8-21.8 21.8S156 437 156 425s9.8-21.8 21.8-21.8zM177.8 490.2c12 0 21.8 9.8 21.8 21.8s-9.8 21.8-21.8 21.8S156 524 156 512s9.8-21.8 21.8-21.8zM177.8 620.8c12 0 21.8 9.8 21.8 21.8s-9.8 21.8-21.8 21.8S156 654.6 156 642.6s9.8-21.8 21.8-21.8z" fill="#ffffff" p-id="10812"></path></svg>