<?xml version="1.0" standalone="no"?><!DOCTYPE svg PUBLIC "-//W3C//DTD SVG 1.1//EN" "http://www.w3.org/Graphics/SVG/1.1/DTD/svg11.dtd"><svg t="1566870066236" class="icon" viewBox="0 0 1097 1024" version="1.1" xmlns="http://www.w3.org/2000/svg" p-id="5870" xmlns:xlink="http://www.w3.org/1999/xlink" width="137.125" height="128"><defs><style type="text/css"></style></defs><path d="M124.725944 673.520097h49.890378a99.780755 99.780755 0 0 1 99.780755 99.780756v99.780755a99.780755 99.780755 0 0 1-99.780755 99.780755 49.890378 49.890378 0 0 1-49.890378-49.890378zM1022.752741 673.520097h49.890377v249.451888a49.890378 49.890378 0 0 1-49.890377 49.890378 99.780755 99.780755 0 0 1-99.780756-99.780755v-99.780755a99.780755 99.780755 0 0 1 99.780756-99.780756z" fill="#DEDEDE" p-id="5871"></path><path d="M149.671133 624.876979H0v349.232643a49.890378 49.890378 0 0 0 49.890378 49.890378h99.780755a149.671133 149.671133 0 0 0 149.671133-149.671133v-99.780755a149.671133 149.671133 0 0 0-149.671133-149.671133z m99.780755 249.451888a99.780755 99.780755 0 0 1-99.780755 99.780755H99.780755a49.890378 49.890378 0 0 1-49.890377-49.890377V673.520097h99.780755a99.780755 99.780755 0 0 1 99.780755 99.780756zM1072.643118 0a24.945189 24.945189 0 0 1 24.945189 24.945189v598.684531h-49.890378V24.945189a24.945189 24.945189 0 0 1 24.945189-24.945189zM947.917174 623.62972a149.671133 149.671133 0 0 0-149.671133 149.671133v99.780755a149.671133 149.671133 0 0 0 149.671133 149.671133h99.780755a49.890378 49.890378 0 0 0 49.890378-49.890378V623.62972z m99.780755 297.845554a49.890378 49.890378 0 0 1-49.890377 49.890378h-49.890378a99.780755 99.780755 0 0 1-99.780755-99.780756v-99.780755a99.780755 99.780755 0 0 1 99.780755-99.780755h99.780755z" fill="#a97835" p-id="5872"></path><path d="M0 548.794153h49.890378v124.725944H0z" fill="#a97835" p-id="5873"></path><path d="M74.835566 409.101096l-51.137637-17.461632A545.551279 545.551279 0 0 0 0 548.794153a551.538124 551.538124 0 0 0 11.973691 113.750061h53.881607a491.170767 491.170767 0 0 1-12.722046-110.756638A498.903776 498.903776 0 0 1 74.835566 409.101096zM548.794153 0A548.794153 548.794153 0 0 0 162.393179 159.150305l38.665043 38.166138a498.903776 498.903776 0 0 1 849.63313 354.471133 491.170767 491.170767 0 0 1-12.722046 110.756638h47.64531A548.794153 548.794153 0 0 0 548.794153 0z" fill="#a97835" p-id="5874"></path><path d="M181.102071 151.666748a27.190256 27.190256 0 1 1-27.190256 27.190256 27.190256 27.190256 0 0 1 27.190256-27.190256zM49.890378 372.431669a26.940804 26.940804 0 1 1-26.940804 26.940804A26.691352 26.691352 0 0 1 49.890378 372.431669zM124.725944 224.506699a24.945189 24.945189 0 1 1-24.945189 24.945189 24.945189 24.945189 0 0 1 24.945189-24.945189z" fill="#a97835" p-id="5875"></path></svg>