<?xml version="1.0" standalone="no"?><!DOCTYPE svg PUBLIC "-//W3C//DTD SVG 1.1//EN" "http://www.w3.org/Graphics/SVG/1.1/DTD/svg11.dtd"><svg t="1566870069905" class="icon" viewBox="0 0 1024 1024" version="1.1" xmlns="http://www.w3.org/2000/svg" p-id="6000" xmlns:xlink="http://www.w3.org/1999/xlink" width="128" height="128"><defs><style type="text/css"></style></defs><path d="M372.363636 46.545455h349.090909l15.592728 16.058181c25.6 0 11.170909 18.385455 11.170909 43.985455L749.614545 186.181818H325.818182V93.090909a46.545455 46.545455 0 0 1 46.545454-46.545454zM216.669091 232.727273h605.090909v651.636363a93.090909 93.090909 0 0 1-93.090909 93.090909h-418.909091a93.090909 93.090909 0 0 1-93.090909-93.090909z" fill="#DEDEDE" p-id="6001"></path><path d="M162.909091 349.090909a23.272727 23.272727 0 1 1-23.272727 23.272727 23.272727 23.272727 0 0 1 23.272727-23.272727zM162.909091 581.818182a23.272727 23.272727 0 1 1-23.272727 23.272727 23.272727 23.272727 0 0 1 23.272727-23.272727zM162.909091 442.181818a23.272727 23.272727 0 1 1-23.272727 23.272727 23.272727 23.272727 0 0 1 23.272727-23.272727zM674.909091 0H302.545455a93.090909 93.090909 0 0 0-93.09091 93.090909v93.090909h46.545455V93.090909a46.545455 46.545455 0 0 1 46.545455-46.545454h372.363636a46.545455 46.545455 0 0 1 46.545454 46.545454v93.090909h46.545455V93.090909a93.090909 93.090909 0 0 0-93.090909-93.090909zM69.818182 186.181818h884.363636a23.272727 23.272727 0 0 1 0 46.545455H69.818182a23.272727 23.272727 0 0 1 0-46.545455zM395.636364 349.090909a23.272727 23.272727 0 0 1 23.272727 23.272727v465.454546a23.272727 23.272727 0 0 1-46.545455 0V372.363636a23.272727 23.272727 0 0 1 23.272728-23.272727zM605.090909 349.090909a23.272727 23.272727 0 0 1 23.272727 23.272727v465.454546a23.272727 23.272727 0 0 1-46.545454 0V372.363636a23.272727 23.272727 0 0 1 23.272727-23.272727z" fill="#0461A7" p-id="6002"></path><path d="M791.272727 232.727273v651.636363a93.090909 93.090909 0 0 1-93.090909 93.090909H279.272727a93.090909 93.090909 0 0 1-93.090909-93.090909V605.090909H139.636364v325.818182a93.090909 93.090909 0 0 0 93.090909 93.090909h512a93.090909 93.090909 0 0 0 93.090909-93.090909V232.727273z" fill="#0461A7" p-id="6003"></path><path d="M139.636364 232.727273h46.545454v139.636363H139.636364z" fill="#0461A7" p-id="6004"></path><path d="M162.909091 349.090909a23.272727 23.272727 0 1 1-23.272727 23.272727 23.272727 23.272727 0 0 1 23.272727-23.272727zM162.909091 442.181818a23.272727 23.272727 0 1 1-23.272727 23.272727 23.272727 23.272727 0 0 1 23.272727-23.272727zM162.909091 581.818182a23.272727 23.272727 0 1 1-23.272727 23.272727 23.272727 23.272727 0 0 1 23.272727-23.272727z" fill="#0461A7" p-id="6005"></path></svg>