<?xml version="1.0" standalone="no"?><!DOCTYPE svg PUBLIC "-//W3C//DTD SVG 1.1//EN" "http://www.w3.org/Graphics/SVG/1.1/DTD/svg11.dtd"><svg t="1566870118494" class="icon" viewBox="0 0 1038 1024" version="1.1" xmlns="http://www.w3.org/2000/svg" p-id="7969" xmlns:xlink="http://www.w3.org/1999/xlink" width="129.75" height="128"><defs><style type="text/css"></style></defs><path d="M937.062489 80.349999H77.349999a56.662499 56.662499 0 0 0-11.0875 0 188.749998 188.749998 0 0 1 169.624998 188.749998v660.537492a47.174999 47.174999 0 0 1-47.174999 47.174999H41.537499a58.149999 58.149999 0 0 0 35.8125 11.8h859.71249a49.999999 49.999999 0 0 0 53.749999-45.525V125.649998a49.999999 49.999999 0 0 0-53.749999-45.299999z" fill="#DEDEDE" p-id="7970"></path><path d="M210.924997 33.1625a23.6 23.6 0 1 1-16.687499 6.9125 23.5875 23.5875 0 0 1 16.687499-6.9125z m613.374993 0a23.6 23.6 0 1 1-16.6875 6.9125 23.5875 23.5875 0 0 1 16.6875-6.9125z m-305.274996-3.75a23.6 23.6 0 0 1 23.587499 23.599999v707.712492a23.6 23.6 0 0 1-47.187499 0V52.987499a23.6 23.6 0 0 1 23.6-23.599999z m0 0" fill="#0461A7" p-id="7971"></path><path d="M535.774993 6.975a23.6 23.6 0 0 1 0 33.5L335.487496 240.537497a23.5875 23.5875 0 1 1-33.2625-33.2625l199.999998-200.299997a23.6 23.6 0 0 1 33.499999 0z m0 0" fill="#0461A7" p-id="7972"></path><path d="M535.774993 6.975l200.324998 200.299997a23.60375 23.60375 0 1 1-33.5 33.2625l-199.999997-199.999997a23.60375 23.60375 0 0 1 33.262499-33.5zM47.199999 292.674996V127.499998a47.174999 47.174999 0 0 1 47.175-47.149999h117.974998V33.1625H94.374999a94.362499 94.362499 0 0 0-66.724999 27.637499A94.412499 94.412499 0 0 0 0.0125 127.499998v165.174998z" fill="#0461A7" p-id="7973"></path><path d="M943.662488 33.1625h-117.949998v47.187499h117.949998A47.187499 47.187499 0 0 1 990.849988 127.499998v802.137491a47.187499 47.187499 0 0 1-47.1875 47.174999H94.374999a47.174999 47.174999 0 0 1-47.175-47.174999V528.587494H0.0125v401.049995a94.412499 94.412499 0 0 0 27.6375 66.724999 94.362499 94.362499 0 0 0 66.724999 27.637499h849.287489a94.362499 94.362499 0 0 0 94.374999-94.362498V127.499998a94.362499 94.362499 0 0 0-94.374999-94.337498z" fill="#0461A7" p-id="7974"></path><path d="M23.6 269.087497a23.5875 23.5875 0 0 1 23.587499 23.587499A23.5875 23.5875 0 0 1 23.6 316.249996 23.5875 23.5875 0 0 1 0 292.662496a23.6 23.6 0 0 1 6.9125-16.687499 23.5875 23.5875 0 0 1 16.6875-6.8875z m0 94.362499a23.5875 23.5875 0 0 1 23.587499 23.587499 23.5875 23.5875 0 0 1-23.587499 23.5875A23.5875 23.5875 0 0 1 0 387.037495a23.6 23.6 0 0 1 6.9125-16.6875 23.6375 23.6375 0 0 1 16.6875-6.899999z m0 141.549998a23.5625 23.5625 0 0 1 21.787499 14.5625 23.575 23.575 0 0 1-5.112499 25.699999 23.575 23.575 0 0 1-25.7125 5.1125A23.575 23.575 0 0 1 0 528.587494a23.6 23.6 0 0 1 6.9125-16.6875A23.5875 23.5875 0 0 1 23.6 504.999994z m0 0" fill="#0461A7" p-id="7975"></path></svg>