<?xml version="1.0" standalone="no"?><!DOCTYPE svg PUBLIC "-//W3C//DTD SVG 1.1//EN" "http://www.w3.org/Graphics/SVG/1.1/DTD/svg11.dtd"><svg t="1566870193639" class="icon" viewBox="0 0 1024 1024" version="1.1" xmlns="http://www.w3.org/2000/svg" p-id="11063" xmlns:xlink="http://www.w3.org/1999/xlink" width="128" height="128"><defs><style type="text/css"></style></defs><path d="M92.96 204.22c93.02 0 147.36 75.4 147.36 168.42v505.24a42 42 0 0 1-42 42.1h736.72V204.22z" fill="#DDDDDE" p-id="11064"></path><path d="M324.54 78a21.06 21.06 0 0 1 21.04 21.06v189.46a21.06 21.06 0 1 1-42 0V98.96A21.06 21.06 0 0 1 324.54 78zM703.46 78a21.06 21.06 0 0 1 21.06 21.06v189.46a21.06 21.06 0 1 1-42.1 0V98.96A21.06 21.06 0 0 1 703.46 78zM114 393.68h800a21.06 21.06 0 0 1 0 42.12H114a21.06 21.06 0 1 1 0-42.12z" fill="#989898" p-id="11065"></path><path d="M871.88 162.12H156.12A84.2 84.2 0 0 0 72 246.32v294.74h42V246.32a42 42 0 0 1 42.1-42h715.78a42 42 0 0 1 42.1 42v631.56A42 42 0 0 1 871.88 920H156.12A42 42 0 0 1 114 877.88v-126.3H72v126.3a84.22 84.22 0 0 0 84.22 84.22h715.66a84.22 84.22 0 0 0 84.22-84.22V246.32a84.2 84.2 0 0 0-84.22-84.2z" fill="#989898" p-id="11066"></path><path d="M92.96 520A21.06 21.06 0 1 1 72 541.06 21.06 21.06 0 0 1 92.96 520zM92.96 604.2A21.06 21.06 0 1 1 72 625.26a21.08 21.08 0 0 1 20.96-21.06zM92.96 730.52A21.06 21.06 0 1 1 72 751.58a21.06 21.06 0 0 1 20.96-21.06z" fill="#989898" p-id="11067"></path><path d="M261.38 583.16h84.2a21.06 21.06 0 1 1 0 42.1h-84.2a21.06 21.06 0 1 1 0-42.1zM472 583.16h84.2a21.06 21.06 0 1 1 0 42.1H472a21.06 21.06 0 1 1 0-42.1zM682.42 583.16h84.2a21.06 21.06 0 1 1 0 42.1h-84.2a21.06 21.06 0 1 1 0-42.1zM682.42 751.58h84.2a21.06 21.06 0 1 1 0 42h-84.2a21.06 21.06 0 1 1 0-42zM472 751.58h84.2a21.06 21.06 0 1 1 0 42H472a21.06 21.06 0 1 1 0-42zM261.38 751.58h84.2a21.06 21.06 0 1 1 0 42h-84.2a21.06 21.06 0 1 1 0-42z" fill="#0460A6" p-id="11068"></path></svg>