<?xml version="1.0" standalone="no"?><!DOCTYPE svg PUBLIC "-//W3C//DTD SVG 1.1//EN" "http://www.w3.org/Graphics/SVG/1.1/DTD/svg11.dtd"><svg t="1566870106107" class="icon" viewBox="0 0 1024 1024" version="1.1" xmlns="http://www.w3.org/2000/svg" p-id="7305" xmlns:xlink="http://www.w3.org/1999/xlink" width="128" height="128"><defs><style type="text/css"></style></defs><path d="M581.818182 279.272727a485.003636 485.003636 0 0 1 192.465454 38.865455C908.8 376.32 954.181818 628.363636 954.181818 628.363636s-58.414545 268.101818-208.058182 321.163637A491.752727 491.752727 0 0 1 581.818182 977.454545c-231.330909 0-418.909091-156.392727-418.909091-349.090909s187.578182-349.090909 418.909091-349.090909z" fill-opacity="0" p-id="7306"></path><path d="M581.818182 46.545455a69.818182 69.818182 0 0 1 69.818182 69.818181v256h-139.636364V116.363636a69.818182 69.818182 0 0 1 69.818182-69.818181z" fill-opacity="0" p-id="7307"></path><path d="M814.545455 186.181818a161.512727 161.512727 0 0 0 12.334545 65.163637L605.090909 379.345455l-69.818182-120.785455 221.789091-128a69.818182 69.818182 0 0 1 33.28-9.309091C814.545455 120.552727 814.545455 186.181818 814.545455 186.181818z" fill-opacity="0" p-id="7308"></path><path d="M299.752727 145.221818a69.818182 69.818182 0 0 0 25.6 96.116364l222.952728 129.396363 69.818181-121.94909L395.636364 119.621818a69.818182 69.818182 0 0 0-95.883637 25.6z" fill-opacity="0" p-id="7309"></path><path d="M512 553.425455a23.272727 23.272727 0 0 1 23.272727 23.272727V814.545455a23.272727 23.272727 0 0 1-46.545454 0V576.698182a23.272727 23.272727 0 0 1 23.272727-23.272727z" fill="#ffffff" p-id="7310"></path><path d="M395.636364 674.909091h232.727272a23.272727 23.272727 0 0 1 0 46.545454H395.636364a23.272727 23.272727 0 0 1 0-46.545454zM395.636364 576.698182h232.727272a23.272727 23.272727 0 0 1 23.272728 23.272727v1.396364a23.272727 23.272727 0 0 1-23.272728 23.272727H395.636364a23.272727 23.272727 0 0 1-23.272728-23.272727v-1.396364a23.272727 23.272727 0 0 1 23.272728-23.272727z" fill="#ffffff" p-id="7311"></path><path d="M439.854545 459.869091l89.832728 108.916364a23.272727 23.272727 0 0 1-3.025455 33.512727 23.272727 23.272727 0 0 1-32.814545-3.025455l-89.6-108.916363a23.272727 23.272727 0 0 1 2.792727-33.28 23.272727 23.272727 0 0 1 32.814545 2.792727z" fill="#ffffff" p-id="7312"></path><path d="M586.24 451.490909l-91.694545 116.363636a25.832727 25.832727 0 0 0 2.792727 35.141819 23.272727 23.272727 0 0 0 33.512727-3.025455l91.694546-116.363636a25.832727 25.832727 0 0 0-2.792728-35.141818 23.272727 23.272727 0 0 0-33.512727 3.025454zM418.909091 139.636364a23.272727 23.272727 0 1 1-23.272727 23.272727 23.272727 23.272727 0 0 1 23.272727-23.272727zM605.090909 139.636364a23.272727 23.272727 0 1 1-23.272727 23.272727 23.272727 23.272727 0 0 1 23.272727-23.272727z" fill="#ffffff" p-id="7313"></path><path d="M512 232.727273c-205.498182 0-379.810909 113.338182-442.181818 270.661818l43.287273 16.058182c55.156364-139.636364 212.247273-240.174545 397.963636-240.174546 231.330909 0 418.909091 156.392727 418.909091 349.090909s-187.578182 349.090909-418.909091 349.090909C326.283636 977.454545 169.658182 877.614545 114.036364 739.141818l-44.916364 12.8C130.094545 909.963636 304.872727 1024 511.301818 1024c257.163636 0 465.454545-177.105455 465.454546-395.636364S769.163636 232.727273 512 232.727273z" fill="#ffffff" p-id="7314"></path><path d="M93.090909 488.727273a23.272727 23.272727 0 1 1-23.272727 23.272727 23.272727 23.272727 0 0 1 23.272727-23.272727zM69.818182 581.818182a23.272727 23.272727 0 1 1-23.272727 23.272727 23.272727 23.272727 0 0 1 23.272727-23.272727zM91.694545 721.454545a23.272727 23.272727 0 1 1-23.272727 23.272728 23.272727 23.272727 0 0 1 23.272727-23.272728zM822.923636 132.887273a116.363636 116.363636 0 0 0-158.952727-42.821818L605.090909 124.043636l10.24 21.410909c-32.814545 19.083636-12.334545-23.272727-16.523636 13.032728l6.283636 19.316363 82.152727-46.545454a69.818182 69.818182 0 1 1 69.818182 120.785454l-61.44 35.607273 25.134546 9.774546c32.349091 13.730909-35.84 25.6-3.025455 6.516363l23.272727 10.938182 39.098182-23.272727a116.363636 116.363636 0 0 0 42.821818-158.72zM500.363636 319.069091zM256 241.338182a69.818182 69.818182 0 0 1-25.6-96.116364 69.818182 69.818182 0 0 1 95.650909-25.6l79.825455 46.545455L418.909091 162.909091c-4.421818-35.141818 27.927273-2.56-5.12-21.876364l-2.327273-25.832727L349.090909 78.894545a117.061818 117.061818 0 0 0-116.363636 203.17091l55.621818 32.116363 21.178182-14.429091c33.047273 19.083636-12.8 13.730909 19.781818 0l5.352727-12.8zM513.396364 309.76z" fill="#ffffff" p-id="7315"></path><path d="M442.181818 162.909091V116.363636a69.818182 69.818182 0 0 1 139.636364 0v46.545455h46.545454V116.363636a116.363636 116.363636 0 0 0-232.727272 0v46.545455z" fill="#ffffff" p-id="7316"></path></svg>