<?xml version="1.0" standalone="no"?><!DOCTYPE svg PUBLIC "-//W3C//DTD SVG 1.1//EN" "http://www.w3.org/Graphics/SVG/1.1/DTD/svg11.dtd"><svg t="1566870174594" class="icon" viewBox="0 0 1024 1024" version="1.1" xmlns="http://www.w3.org/2000/svg" p-id="10021" xmlns:xlink="http://www.w3.org/1999/xlink" width="128" height="128"><defs><style type="text/css"></style></defs><path d="M760.38 799.74m24 0l112 0q24 0 24 24l0 0q0 24-24 24l-112 0q-24 0-24-24l0 0q0-24 24-24Z" fill="#0066B3" p-id="10022"></path><path d="M816.38 743.74m24 0l0 0q24 0 24 24l0 112q0 24-24 24l0 0q-24 0-24-24l0-112q0-24 24-24Z" fill="#0066B3" p-id="10023"></path><path d="M187.290787 309.529479m6.899341-12.456993l0 0q6.899341-12.456994 19.356335-5.557653l17.075879 9.457524q12.456994 6.899341 5.557652 19.356335l0 0q-6.899341 12.456994-19.356334 5.557652l-17.075879-9.457523q-12.456994-6.899341-5.557653-19.356335Z" fill="#0066B3" p-id="10024"></path><path d="M756.14 560l-17.42-26.58c-12.16-17.1-129.28-104.84-237.6-181.36a186.56 186.56 0 0 0-36.4 3.6c-2.66 5.84-6.24 13.26-10.38 20.96-14.5 26.9-27.2 41.46-41.16 47.16l-0.98 0.38c-48.26 17.28-100 4-116-13.14a27.24 27.24 0 0 1-5.6-29.88c3.58-8.12 57.26-108.68 73.62-139.3l4.28-8 8.48-3.18c104-38.88 190.82-13.72 237.5-0.2 10.44 3.02 23.46 6.82 27.48 6.76 25.74-2.44 65.04-14 65.44-14.18l18.3-5.44 140 247.12-24.8 10.5c-10.76 4.54-41.78 35.08-64 60.76zM499.58 304c3.72 0 7.5 0.12 11.26 0.38l6.7 0.46 5.48 3.86c0.58 0.42 58.44 41.22 118 85.12 65.8 48.58 99.42 75.66 117.12 91.36a423.7 423.7 0 0 1 41.66-39.7l-97.12-171.4c-15.56 4-38 9.18-56.28 10.9-12 1.12-25.88-2.9-45.14-8.48-42.86-12.4-113.68-32.9-198.94-4-19 35.6-44.34 83.2-58 109.36a96.48 96.48 0 0 0 50.4-2.5c6.84-5.22 21.32-30.34 30.86-53.66l4.48-10.96 11.42-3.12a248.48 248.48 0 0 1 58.1-7.62zM255.1 663.4a66.9 66.9 0 0 1-47.46-19.62l-0.64-0.66a67.12 67.12 0 0 1 0-94.88l48.36-48.38a67.12 67.12 0 0 1 94.92 0l0.82 0.86a67.06 67.06 0 0 1-0.22 94.66l-48.36 48.38a66.86 66.86 0 0 1-47.42 19.64z m-13.52-53.56a19.16 19.16 0 0 0 27.04 0l48.36-48.38a19.1 19.1 0 0 0 0-27l-0.78-0.82a19.14 19.14 0 0 0-26.88 0.18l-48.36 48.38a19.12 19.12 0 0 0 0 27.04z" fill="#0066B3" p-id="10025"></path><path d="M323.42 718.26a66.9 66.9 0 0 1-47.42-19.62l-0.7-0.72a67.12 67.12 0 0 1 0.1-94.82l41.62-41.64a67.1 67.1 0 0 1 94.92 0l0.52 0.52a67.1 67.1 0 0 1 0 95l-41.64 41.66a66.86 66.86 0 0 1-47.4 19.62zM310 664.76a19.12 19.12 0 0 0 26.96 0l41.64-41.64a19.12 19.12 0 0 0 0-27.04l-0.5-0.5a19.2 19.2 0 0 0-27.16-0.12l-41.62 41.66a19.12 19.12 0 0 0 0 27.04z" fill="#0066B3" p-id="10026"></path><path d="M402.18 762.68a66.84 66.84 0 0 1-47.46-19.64l-0.64-0.64a67.14 67.14 0 0 1 0-94.9l24.48-24.46a67.18 67.18 0 0 1 94.88 0l0.5 0.5a67.24 67.24 0 0 1 0.14 95.04l-24.48 24.48a66.94 66.94 0 0 1-47.42 19.62z m-13.52-53.56a19.16 19.16 0 0 0 27.04 0l24.48-24.48a19.16 19.16 0 0 0 0-27.04l-0.5-0.48a19.18 19.18 0 0 0-27.14-0.14L388 681.46a19.12 19.12 0 0 0 0 27.04zM193.5 601.82A66.96 66.96 0 0 1 146 582.2l-0.86-0.9a67.06 67.06 0 0 1 0.28-94.64l22-22.12a67.14 67.14 0 0 1 94.94 0l0.6 0.6a67.24 67.24 0 0 1 0 94.94l-22 22a66.9 66.9 0 0 1-47.46 19.74z m-13.32-53.38a19.12 19.12 0 0 0 26.84-0.2l22-22.1a19.14 19.14 0 0 0 0-27.04l-0.6-0.62a19.12 19.12 0 0 0-27.04 0l-22 22.12a19.04 19.04 0 0 0 0 27zM692.7 591.7l-101.84-63.5a24 24 0 0 1-7.68-33.08 24 24 0 0 1 33.08-7.66l101.84 63.5zM636.48 648.98L534.6 590a24 24 0 0 1-8.72-32.8 24 24 0 0 1 32.8-8.72l101.86 59.06z" fill="#0066B3" p-id="10027"></path><path d="M575.34 698.6L497.24 652a24 24 0 0 1-8.32-32.9 24 24 0 0 1 32.9-8.32l78 46.58zM828.64 496l-151.36-272.86a24 24 0 0 1 9.44-32.68l122.76-67.24a24 24 0 0 1 32.52 9.4l13.86 24.98a24 24 0 0 1-9.32 32.62A24 24 0 0 1 814 180.9l-2.28-4.12-68.36 37.44a14 14 0 0 0-5.5 19.02l114.52 206.44a14 14 0 0 0 18.96 5.48l56-30.68a14 14 0 0 0 5.54-19.2l-71.74-128.88a23.46 23.46 0 0 1 9.12-31.9l0.54-0.3a24.12 24.12 0 0 1 32.88 9.36c21.66 39.22 68 122.76 89.7 162a24 24 0 0 1-9.38 32.62l-122.78 67.24a24 24 0 0 1-32.58-9.42zM120.72 479.16l-80.62-44.18a24 24 0 0 1-9.48-32.7l128-230.86A24 24 0 0 1 191.24 162l80.62 44.18a24 24 0 0 1 9.46 32.72l-128 230.84a24 24 0 0 1-32.6 9.42z" fill="#0066B3" p-id="10028"></path><path d="M811.358 175.416l42.122-23.014 47.946 87.756-42.124 23.014zM323.28 589.1l-34.12 34.16 0.18 0.14c0.94-1.14 2-2.24 2.98-3.3zM397.4 638c-0.6 0.68-1.18 1.38-1.84 2l-33.2 33.2 1.52 0.88a42.8 42.8 0 0 1 7.2-9.58L395.56 640c0.68-0.68 1.4-1.28 2.1-1.9zM184.52 481.5a42.94 42.94 0 0 1 24.62-12.18 526.528 526.528 0 0 0-37.74-32l34.46-62.26a24 24 0 1 0-42-23.24L108.46 452l18.32 12.26a441.3 441.3 0 0 1 41.86 33.14zM453.78 321.88c95.22 55.56 269.64 195.72 284.7 211.14 1.78 3.56 1.84 14.36-2.38 19.04-3.26 3.6-12.86 1.04-20.78-2.56l-44.26-20.26 10.94 47.34c1.36 6.28 1.8 20.14-3.16 25.34-3.68 3.84-13.5 4.82-26.26 2.66l-35.5-6 8 35.1c0.92 4 1.54 16.36-2.54 20.44-2.78 2.78-12.18 4.58-29.5 0.54L560.54 646l3.1 32.94c0 1.46-0.64 8.2-6 11.66-4.62 3.02-24.12 10.9-81.86-14.1l-6.22-2.74a42.8 42.8 0 0 1-12.5 28l-13.06 13.02q6.34 2.84 12.82 5.68c33.48 14.5 61.52 21.74 84.58 21.74 17.4 0 32-4.12 43.9-12.36a59.1 59.1 0 0 0 20.7-25c21.32 1.06 38.26-4.58 50.5-16.8a60 60 0 0 0 16.5-34.64c16.82-1.48 30.48-7.68 40.76-18.58a63.14 63.14 0 0 0 15.84-33.06 54.62 54.62 0 0 0 46-22.24c16.66-23.06 16-59.82-1.38-78.66-16.8-18.2-152.2-126.32-251.12-192M395.12 249.38a322.82 322.82 0 0 0-36.24-2.98c-28.22-1.2-52.6-2.24-94.42-26l-21.12-12-23.08 41.6a18.5 18.5 0 0 0 7.22 25.16l9.6 5.32a18.5 18.5 0 0 0 25.16-7.24c40.2 18.82 68.88 20 94.62 21.14 6.72 0.28 13.24 0.56 19.84 1.14M257.52 522.56a43.06 43.06 0 0 1-11.42 20.56l-18.8 18.8 34.16-34.18c-1.16-1.5-2.3-3-3.42-4.52z" fill="#0066B3" p-id="10029"></path></svg>