<?xml version="1.0" standalone="no"?><!DOCTYPE svg PUBLIC "-//W3C//DTD SVG 1.1//EN" "http://www.w3.org/Graphics/SVG/1.1/DTD/svg11.dtd"><svg t="1571724284665" class="icon" viewBox="0 0 1024 1024" version="1.1" xmlns="http://www.w3.org/2000/svg" p-id="3262" xmlns:xlink="http://www.w3.org/1999/xlink" width="48" height="48"><defs><style type="text/css"></style></defs><path d="M497.84 502.78a245.7 245.7 0 0 1-96 195.1l37.52 48.78a307.68 307.68 0 0 0 0-487.76l-37.52 48.78a245.68 245.68 0 0 1 96 195.1zM326.74 600.32a123.02 123.02 0 0 0 0-195.08l-75.02 97.52z" fill="#0066B3" p-id="3263"></path><path d="M551.84 112.58l-37.52 48.76a430.74 430.74 0 0 1 0 682.86l37.52 48.78a492.26 492.26 0 0 0 0-780.4z" fill="#0066B3" p-id="3264"></path></svg>