<?xml version="1.0" standalone="no"?><!DOCTYPE svg PUBLIC "-//W3C//DTD SVG 1.1//EN" "http://www.w3.org/Graphics/SVG/1.1/DTD/svg11.dtd"><svg t="1566872688324" class="icon" viewBox="0 0 1195 1024" version="1.1" xmlns="http://www.w3.org/2000/svg" p-id="3312" xmlns:xlink="http://www.w3.org/1999/xlink" width="37.34375" height="32"><defs><style type="text/css"></style></defs><path d="M671.24445718 979.67789631a10.98741043 10.98741043 0 0 0 11.28070887-11.28070886v-112.80708868l16.71801053-4.78302057a330.72782255 330.72782255 0 0 0 62.51768857-25.26878786l15.00334279-7.78368911L856.24808259 897.26103733a11.61913013 11.61913013 0 0 0 16.40215069 0l108.92652483-108.88140198a11.64169155 11.64169155 0 0 0 3.38421266-8.21235606 11.39351596 11.39351596 0 0 0-3.38421266-8.14467182L903.92035827 694.20827773l8.43797023-15.20639558a346.97204333 346.97204333 0 0 0 27.81822809-64.23235628l5.12144181-16.10885224h108.00150668c6.65561823 0 12.4990254-5.27937174 12.49902544-11.28070886V433.39828873c0-6.38488124-6.3623198-10.22032222-12.49902544-10.22032225h-104.84290821l-4.51228355-17.21436172a319.28918379 319.28918379 0 0 0-27.43468398-69.48916662l-7.85137335-15.00334278 72.44471236-72.80569506a11.8221829 11.8221829 0 0 0 0-16.5600806l-108.85884058-108.97164766a11.52888447 11.52888447 0 0 0-8.18979463-3.40677407 11.41607738 11.41607738 0 0 0-8.1221104 3.36165122l-71.40688713 71.13615014-15.16127271-8.34772458a350.15320323 350.15320323 0 0 0-70.34650047-29.44265014l-16.53751922-4.89582764V51.34324084c0-6.76842532-5.25681033-12.61183252-11.28070885-12.61183252L501.74052576 30.90259635c-15.47713256 5.55010876-8.50565449 16.31190501-1.69210634 23.68948864 0.29329844 0.31585985 7.33246076 3.40677409 6.94891667 3.58726542v93.90062056l-16.49239637 4.91838909A352.95081903 352.95081903 0 0 0 420.3840534 186.57637872l-15.18383413 8.41540881L367.45496739 157.40446558a500.86347369 500.86347369 0 0 0-101.75199398 148.3413216l-0.42866691 0.99270239 15.79299242 16.0186066-7.71600488 14.98078134a331.65284067 331.65284067 0 0 0-26.87064853 68.42878002l-4.51228356 17.07899321h-12.02523564a504.42817769 504.42817769 0 0 0 0.4963512 175.50526856h14.89053572l5.05375755 16.22165932a333.54799978 333.54799978 0 0 0 27.07370129 62.94635549l8.34772457 15.18383415-20.14734607 20.16990744c0.15792992 0.31585985 0.29329844 0.63171969 0.45122838 0.97014097a500.86347369 500.86347369 0 0 0 101.57150264 147.73216332l45.30332679-44.89722131 14.95821997 7.82881198a327.32104845 327.32104845 0 0 0 62.31463578 25.3364721l16.67288771 4.80558198v105.83561059c0.38354409 0.18049134-9.97214664 2.93298432-9.58860255 3.11347567 14.25881601 6.76842532-7.89649623 16.60520346 6.94891669 21.99738228z m155.01950127-476.04591417a231.05147901 231.05147901 0 1 1-231.05147904-231.02891761 231.29965461 231.29965461 0 0 1 231.05147904 231.051479z m0 0" fill="#DEDEDE" p-id="3313"></path><path d="M497.97276899 28.08241915h65.99214688v37.22633925h-65.99214688zM497.97276899 948.76875401h65.99214688v37.22633927h-65.99214688z" fill="#DEDEDE" p-id="3314"></path><path d="M606.83160954 502.43622699m-253.43240537 0a253.43240541 253.43240541 0 1 0 506.86481076 0 253.43240541 253.43240541 0 1 0-506.86481076 0Z" fill="#DEDEDE" p-id="3315"></path><path d="M368.13180993 156.72762307l-33.8421266-33.66163528a11.73193723 11.73193723 0 0 0-16.51495778 0L208.87076214 231.92482836a11.57400729 11.57400729 0 0 0 0 16.33446644l56.8547727 57.48649238a500.86347369 500.86347369 0 0 1 101.75199399-148.3413216l0.67684251-0.67684251zM208.35184956 771.95492324a11.57400729 11.57400729 0 0 0-1e-8 16.37958926L317.21069011 897.26103733a11.52888447 11.52888447 0 0 0 16.33446642 0l34.85739043-34.60921482-0.65428114-0.65428111a500.86347369 500.86347369 0 0 1-101.59406406-147.82240898z m310.33230092-733.24607636c-6.49768831 0-10.51362067 6.54281113-10.51362068 12.61183253v6.29463554q22.2681193-10.5587435 45.50637957-18.90646807z m-288.78614697 384.44655819H136.62910257c-5.8434072 0-11.77706004 3.51958116-11.77706005 10.22032224v153.981676a11.55144588 11.55144588 0 0 0 11.77706005 11.28070888h93.72012927a504.42817769 504.42817769 0 0 1-0.4963512-175.50526852z m278.27252629 538.27030429v7.03916234c0 6.6104954 4.30923078 11.28070886 10.51362068 11.28070887h33.16528406q-22.2681193-8.09954898-43.67890474-18.25218696z m0 0" fill="#FFFFFF" p-id="3316"></path><path d="M713.27637844 1009.05286218a57.30600103 57.30600103 0 0 0 16.56008058-40.61055192v-78.96496204a373.43658633 373.43658633 0 0 0 37.92574325-15.47713261l55.83950887 55.79438607a57.8700365 57.8700365 0 0 0 68.13548154 10.10751515 58.65968612 58.65968612 0 0 0 14.50699161-10.5587435L1015.19327053 820.55221702a57.7797908 57.7797908 0 0 0 0-81.62720935l-53.8089813-53.89922698a392.88452841 392.88452841 0 0 0 17.32716884-40.13676214h75.03927537A57.93772074 57.93772074 0 0 0 1111.98175261 587.40252618V433.39828873a55.00473644 55.00473644 0 0 0-17.82352-40.74592043 59.17859872 59.17859872 0 0 0-40.45262201-15.63506249H983.6072857a359.6741215 359.6741215 0 0 0-18.04913417-45.7771166l49.2515749-49.49975048a57.98284357 57.98284357 0 0 0 0-81.83026212l-108.88140199-108.94908625a60.12617825 60.12617825 0 0 0-41.89655272-17.41741447 57.2608782 57.2608782 0 0 0-40.61055191 16.85337903l-47.13080168 46.9503103a401.39018289 401.39018289 0 0 0-46.36371343-19.51562634V51.34324084C729.9267047 18.92248354 704.27437275-7.45181378 672.75607217-7.45181378h-154.07192169c-31.27012499 0-56.69684276 26.37429732-56.69684276 58.79505461v31.29268637l-1.15063231 0.72196538v34.45128488a407.05309875 407.05309875 0 0 0-46.74725755 19.51562635l-47.15336308-46.95031031a57.89259792 57.89259792 0 0 0-81.76257786 0L176.22439068 199.2558955a57.7572294 57.7572294 0 0 0 0 81.60464794l48.82290798 49.36438198a363.71261527 363.71261527 0 0 0-18.63573105 46.79238039H136.62910257c-32.48844153 0-57.96028216 24.81755951-57.96028217 56.40354434v153.98167603a57.80235225 57.80235225 0 0 0 57.96028217 57.48649237h74.61060843a388.57529763 388.57529763 0 0 0 17.75583579 41.06178028L175.68291669 739.3311132a57.73466797 57.73466797 0 0 0 0 81.67233218l108.88140196 108.90396338a57.71210655 57.71210655 0 0 0 81.58208652 0l56.40354434-55.92975454a376.23420214 376.23420214 0 0 0 38.35441016 15.54481682v46.16066069l1.15063229 0.69940395v32.03721315a56.40354432 56.40354432 0 0 0 56.62915852 57.44136958h153.98167601a56.74196559 56.74196559 0 0 0 40.61055195-16.80825623z m-205.10584864-40.61055192v-7.03916231l-1.17319371-0.54147404v-105.81304917l-16.6728877-4.80558198a327.32104845 327.32104845 0 0 1-62.3146358-25.3364721l-14.95821993-7.82881198-45.37101107 44.89722131 0.65428111 0.65428113L333.54515653 897.26103733a11.52888447 11.52888447 0 0 1-16.33446642 0l-108.881402-108.88140198a11.57400729 11.57400729 0 0 1 0-16.37958928l57.82491365-57.82491365c-0.15792992-0.33842128-0.29329844-0.65428113-0.45122835-0.97014097l20.14734604-20.16990744-8.34772456-15.18383416a333.54799978 333.54799978 0 0 1-27.07370127-62.94635547l-5.05375757-16.22165935h-108.74603348a11.55144588 11.55144588 0 0 1-11.77706005-11.28070885V433.39828873c0-6.76842532 5.93365285-10.22032222 11.77706005-10.22032225h105.24901375l4.51228352-17.07899323A332.0589462 332.0589462 0 0 1 273.35129404 337.73787751l7.73856628-14.91309708-15.79299243-16.01860663 0.42866695-0.99270236-56.8547727-57.48649238a11.57400729 11.57400729 0 0 1 0-16.33446644L317.81984839 123.11111062a11.73193723 11.73193723 0 0 1 16.51495778 0l33.84212661 33.66163527-0.65428112 0.67684254 37.74525186 37.49707627 15.18383413-8.39284742a351.70994105 351.70994105 0 0 1 70.12088632-29.51033437l16.49239637-4.91838907V58.20191181l1.1506323-0.56403543v-6.29463555c0-6.06902136 4.03849378-12.61183252 10.53618209-12.6118325h152.5603067c6.00133711 0 11.28070886 5.88853004 11.28070887 12.6118325v100.19525614l16.53751919 4.89582764a350.15320323 350.15320323 0 0 1 70.34650052 29.44265014l15.16127272 8.34772458 71.40688711-71.13615014a11.52888447 11.52888447 0 0 1 16.31190503 0l108.85884055 108.97164767a11.84474431 11.84474431 0 0 1 0 16.58264205l-72.44471232 72.78313359 7.85137335 15.00334279a319.28918379 319.28918379 0 0 1 27.43468395 69.48916662l4.51228358 17.21436176h104.84290818c6.13670562 0 12.4990254 3.83544103 12.49902546 10.22032222v153.98167604c0 6.02389853-5.8434072 11.28070886-12.49902546 11.28070885H945.25287557l-5.12144184 16.10885225a347.62632443 347.62632443 0 0 1-27.81822806 64.23235632l-8.3928474 15.25151838 77.65639984 77.74664551a11.48376161 11.48376161 0 0 1 3.38421266 8.16723319 11.64169155 11.64169155 0 0 1-3.38421266 8.21235607L872.65023328 897.26103733a11.61913013 11.61913013 0 0 1-16.40215069 0l-79.52899749-79.5064361-14.98078138 7.78368911a330.72782255 330.72782255 0 0 1-62.40488147 25.26878786l-16.71801051 4.78302057v112.80708868a10.98741043 10.98741043 0 0 1-11.28070886 11.28070886h-152.6505524c-6.20438988 0-10.51362067-4.51228355-10.51362068-11.28070886z m0 0" fill="#0066b3" p-id="3317"></path><path d="M387.60231343 515.40904218m-23.12545316 0a23.12545318 23.12545318 0 1 0 46.25090636 0 23.12545318 23.12545318 0 1 0-46.25090636 0Z" fill="#0066b3" p-id="3318"></path><path d="M399.58242625 433.05986746m-23.12545317 0a23.12545318 23.12545318 0 1 0 46.25090635 0 23.12545318 23.12545318 0 1 0-46.25090635 0Z" fill="#0066b3" p-id="3319"></path><path d="M429.13788348 628.78016628m-23.12545316 0a23.12545318 23.12545318 0 1 0 46.25090633 0 23.12545318 23.12545318 0 1 0-46.25090633 0Z" fill="#0066b3" p-id="3320"></path><path d="M595.21247941 272.60306453a231.4124617 231.4124617 0 0 0-217.33413701 152.71823663l43.4984134 15.49969397A185.00362541 185.00362541 0 1 1 449.82670355 617.49945744l-40.90385038 22.56141772a231.00635617 231.00635617 0 1 0 186.28962624-367.52549489z" fill="#0066b3" p-id="3321"></path></svg>