<?xml version="1.0" standalone="no"?><!DOCTYPE svg PUBLIC "-//W3C//DTD SVG 1.1//EN" "http://www.w3.org/Graphics/SVG/1.1/DTD/svg11.dtd"><svg t="1576567722955" class="icon" viewBox="0 0 1024 1024" version="1.1" xmlns="http://www.w3.org/2000/svg" p-id="25473" xmlns:xlink="http://www.w3.org/1999/xlink" width="500" height="500"><defs><style type="text/css"></style></defs><path d="M337.066667 238.933333L309.333333 213.333333c-4.266667-4.266667-8.533333-4.266667-12.8 0L213.333333 298.666667c-4.266667 4.266667-4.266667 8.533333 0 12.8l44.8 44.8c17.066667-44.8 44.8-83.2 78.933334-117.333334zM213.333333 716.8c-4.266667 4.266667-4.266667 8.533333 0 12.8l85.333334 85.333333c4.266667 4.266667 8.533333 4.266667 12.8 0l27.733333-27.733333c-32-34.133333-59.733333-72.533333-78.933333-115.2L213.333333 716.8zM452.266667 149.333333c-4.266667 0-8.533333 4.266667-8.533334 10.666667v4.266667c10.666667-6.4 23.466667-10.666667 36.266667-14.933334h-27.733333zM228.266667 445.866667H157.866667c-4.266667 0-8.533333 2.133333-8.533334 8.533333v119.466667c0 4.266667 4.266667 8.533333 8.533334 8.533333h72.533333c-8.533333-44.8-8.533333-91.733333-2.133333-136.533333z m215.466666 416v6.4c0 4.266667 2.133333 8.533333 6.4 8.533333h25.6c-8.533333-4.266667-19.2-8.533333-32-14.933333z" fill="#ffffff" p-id="25474"></path><path d="M603.733333 900.266667c8.533333-8.533333 12.8-19.2 12.8-32v-61.866667c10.666667-4.266667 19.2-8.533333 29.866667-12.8l42.666667 42.666667c14.933333 14.933333 36.266667 17.066667 53.333333 8.533333 4.266667-2.133333 8.533333-4.266667 10.666667-8.533333l85.333333-83.2c17.066667-17.066667 17.066667-44.8 0-64l-42.666667-42.666667 12.8-32h57.6c25.6 0 44.8-19.2 44.8-44.8v-119.466667c0-12.8-4.266667-23.466667-12.8-32-8.533333-8.533333-19.2-12.8-32-12.8h-53.333333c-4.266667-12.8-8.533333-23.466667-14.933333-36.266666l38.4-38.4c17.066667-17.066667 17.066667-44.8 0-64l-83.2-85.333334c-8.533333-8.533333-21.333333-12.8-32-12.8-12.8 0-23.466667 4.266667-32 12.8l-36.266667 36.266667c-10.666667-6.4-23.466667-10.666667-36.266667-14.933333V157.866667c0-25.6-19.2-44.8-44.8-44.8h-119.466666c-23.466667 0-44.8 21.333333-44.8 44.8v49.066666c-12.8 4.266667-23.466667 8.533333-36.266667 14.933334l-36.266667-36.266667c-17.066667-17.066667-44.8-17.066667-64 0l-85.333333 85.333333c-17.066667 17.066667-17.066667 44.8 0 64l38.4 38.4c-6.4 10.666667-10.666667 23.466667-14.933333 36.266667H157.866667c-25.6 0-44.8 19.2-44.8 44.8v119.466667c0 23.466667 19.2 44.8 44.8 44.8h57.6l12.8 32-40.533334 40.533333c-17.066667 17.066667-17.066667 44.8 0 64l85.333334 85.333333c17.066667 17.066667 44.8 17.066667 64 0l42.666666-42.666666c10.666667 4.266667 19.2 8.533333 29.866667 12.8v61.866666c0 23.466667 19.2 44.8 42.666667 44.8h119.466666c12.8-4.266667 23.466667-8.533333 32-17.066666z m-160-32v-87.466667l-12.8-4.266667c-17.066667-4.266667-32-10.666667-49.066666-19.2l-10.666667-6.4-34.133333 34.133334-27.733334 27.733333c-4.266667 4.266667-8.533333 4.266667-12.8 0l-85.333333-85.333333c-4.266667-4.266667-4.266667-8.533333 0-12.8l44.8-44.8 14.933333-14.933334-6.4-12.8c-8.533333-14.933333-14.933333-32-21.333333-49.066666l-4.266667-12.8H157.866667c-4.266667 0-8.533333-4.266667-8.533334-8.533334v-119.466666c0-4.266667 4.266667-8.533333 8.533334-8.533334h81.066666l4.266667-12.8c4.266667-19.2 12.8-36.266667 21.333333-53.333333l6.4-10.666667-14.933333-10.666666-42.666667-44.8c-4.266667-4.266667-4.266667-8.533333 0-12.8l85.333334-85.333334c4.266667-4.266667 8.533333-4.266667 12.8 0l25.6 25.6 29.866666 29.866667 12.8-6.4c17.066667-8.533333 36.266667-17.066667 53.333334-23.466667l12.8-4.266666V157.866667c-2.133333-4.266667 2.133333-8.533333 6.4-8.533334h117.333333c4.266667 0 8.533333 4.266667 8.533333 10.666667V234.666667l12.8 4.266666c19.2 6.4 36.266667 12.8 55.466667 23.466667l12.8 6.4 55.466667-55.466667c4.266667-4.266667 8.533333-4.266667 12.8 0l85.333333 85.333334c4.266667 4.266667 4.266667 8.533333 0 12.8l-55.466667 55.466666 6.4 10.666667c8.533333 17.066667 17.066667 34.133333 21.333334 53.333333l4.266666 12.8h81.066667c4.266667 0 10.666667 2.133333 10.666667 8.533334v119.466666c0 4.266667-4.266667 8.533333-10.666667 8.533334h-83.2l-4.266667 12.8c-6.4 17.066667-12.8 34.133333-21.333333 49.066666l-6.4 12.8 59.733333 59.733334c4.266667 4.266667 4.266667 8.533333 0 12.8l-85.333333 85.333333c-4.266667 4.266667-8.533333 4.266667-12.8 0l-61.866667-61.866667-14.933333 6.4c-14.933333 8.533333-32 14.933333-49.066667 19.2l-12.8 4.266667v87.466667c0 4.266667-4.266667 8.533333-8.533333 8.533333h-119.466667c-2.133333 0-6.4-4.266667-6.4-8.533333z" fill="#ffffff" p-id="25475"></path><path d="M332.8 518.4c0 10.666667 8.533333 17.066667 17.066667 17.066667 10.666667 0 17.066667-8.533333 17.066666-17.066667 0-10.666667-8.533333-17.066667-17.066666-17.066667-8.533333-2.133333-17.066667 6.4-17.066667 17.066667z m10.666667-64c0 10.666667 8.533333 17.066667 17.066666 17.066667 10.666667 0 17.066667-8.533333 17.066667-17.066667 0-10.666667-8.533333-17.066667-17.066667-17.066667-10.666667-2.133333-17.066667 6.4-17.066666 17.066667z m21.333333 151.466667c0 10.666667 10.666667 17.066667 19.2 17.066666s14.933333-8.533333 17.066667-17.066666c0-10.666667-10.666667-17.066667-19.2-17.066667-8.533333 2.133333-14.933333 8.533333-17.066667 17.066667z" fill="#ffffff" p-id="25476"></path><path d="M512 328.533333c-74.666667 0-142.933333 46.933333-168.533333 117.333334l34.133333 12.8c27.733333-74.666667 108.8-113.066667 183.466667-85.333334s113.066667 108.8 85.333333 183.466667c-27.733333 74.666667-108.8 113.066667-183.466667 85.333333-25.6-8.533333-46.933333-25.6-64-46.933333l-32 17.066667c57.6 78.933333 170.666667 96 249.6 38.4 78.933333-57.6 96-170.666667 38.4-249.6-32-44.8-85.333333-72.533333-142.933333-72.533334z" fill="#ffffff" p-id="25477"></path></svg>