<?xml version="1.0" standalone="no"?><!DOCTYPE svg PUBLIC "-//W3C//DTD SVG 1.1//EN" "http://www.w3.org/Graphics/SVG/1.1/DTD/svg11.dtd"><svg t="1566986427358" class="icon" viewBox="0 0 1024 1024" version="1.1" xmlns="http://www.w3.org/2000/svg" p-id="15481" xmlns:xlink="http://www.w3.org/1999/xlink" width="32" height="32"><defs><style type="text/css"></style></defs><path d="M240 896L784 896c87.99999999 0 160-72.00000001 160-160l0-448c0-87.99999999-72.00000001-160-160-160l-544 0c-87.99999999 0-160 72.00000001-160 160L80 736c0 87.99999999 72.00000001 160 160 160z m-96-480L432 416c52.8 0 96 43.2 96 96s-43.2 96-96 96l-288 0 0-192zM432 671.99999999c87.99999999 0 160-72.00000001 159.99999999-159.99999999s-72.00000001-160-159.99999999-159.99999999l-288-1e-8 0-64c0-52.8 43.2-96 96-96L784 192c52.8 0 96 43.2 96 96L880 736c0 52.8-43.2 96-96 96l-544 0c-52.8 0-96-43.2-96-96l0-64L432 671.99999999z" p-id="15482" fill="#22ac38"></path><path d="M464 512a32 32 0 1 0-64 0 32 32 0 1 0 64 0z" p-id="15483" fill="#22ac38"></path></svg>